G04 Layer_Color=128*
%FSLAX42Y42*%
%MOMM*%
G71*
G01*
G75*
%ADD10R,1.10X1.00*%
%ADD11R,1.00X1.10*%
%ADD14R,1.50X1.30*%
%ADD30R,2.20X3.15*%
%ADD34R,1.30X1.50*%
%ADD36R,2.00X1.20*%
%ADD37R,1.20X2.00*%
%ADD39R,0.59X1.30*%
%ADD40R,0.99X1.30*%
%ADD43R,0.65X1.52*%
G04:AMPARAMS|DCode=44|XSize=1.5mm|YSize=1.3mm|CornerRadius=0mm|HoleSize=0mm|Usage=FLASHONLY|Rotation=45.000|XOffset=0mm|YOffset=0mm|HoleType=Round|Shape=Rectangle|*
%AMROTATEDRECTD44*
4,1,4,-0.07,-0.99,-0.99,-0.07,0.07,0.99,0.99,0.07,-0.07,-0.99,0.0*
%
%ADD44ROTATEDRECTD44*%

%ADD81R,2.15X3.40*%
%ADD82R,0.56X1.98*%
%ADD83R,1.00X0.60*%
%ADD84R,1.52X0.61*%
G04:AMPARAMS|DCode=85|XSize=1mm|YSize=1.1mm|CornerRadius=0mm|HoleSize=0mm|Usage=FLASHONLY|Rotation=315.000|XOffset=0mm|YOffset=0mm|HoleType=Round|Shape=Rectangle|*
%AMROTATEDRECTD85*
4,1,4,-0.74,-0.04,0.04,0.74,0.74,0.04,-0.04,-0.74,-0.74,-0.04,0.0*
%
%ADD85ROTATEDRECTD85*%

%ADD86R,1.90X3.40*%
%ADD87C,17.78*%
%ADD88R,5.08X2.79*%
%ADD89R,1.08X1.12*%
D10*
X375Y3440D02*
D03*
X205D02*
D03*
X405Y2870D02*
D03*
X235D02*
D03*
X385Y3820D02*
D03*
X215D02*
D03*
X385Y4350D02*
D03*
X215D02*
D03*
X405Y3020D02*
D03*
X235D02*
D03*
X545Y4570D02*
D03*
X375D02*
D03*
X4055Y2360D02*
D03*
X3885D02*
D03*
X4155Y1120D02*
D03*
X4325D02*
D03*
X4495D02*
D03*
X4665D02*
D03*
X4865Y6730D02*
D03*
X5035D02*
D03*
X595Y3320D02*
D03*
X765D02*
D03*
X7645Y6190D02*
D03*
X7475D02*
D03*
X3315Y3720D02*
D03*
X3145D02*
D03*
D11*
X1840Y3400D02*
D03*
Y3230D02*
D03*
X990Y2305D02*
D03*
Y2135D02*
D03*
X2760Y3400D02*
D03*
Y3230D02*
D03*
X4010Y1115D02*
D03*
Y1285D02*
D03*
X3860Y1745D02*
D03*
Y1915D02*
D03*
X2763Y3735D02*
D03*
Y3565D02*
D03*
X3920Y685D02*
D03*
Y515D02*
D03*
X160Y1425D02*
D03*
Y1595D02*
D03*
X830Y2265D02*
D03*
Y2095D02*
D03*
X3570Y4040D02*
D03*
Y4210D02*
D03*
D14*
X1815Y6055D02*
D03*
Y6245D02*
D03*
X6850Y7365D02*
D03*
Y7175D02*
D03*
X6610Y7365D02*
D03*
Y7175D02*
D03*
X2600Y6235D02*
D03*
Y6045D02*
D03*
D30*
X8360Y5538D02*
D03*
X7660D02*
D03*
X8360Y4858D02*
D03*
X7660D02*
D03*
D34*
X1885Y4917D02*
D03*
X2075D02*
D03*
X2725Y6570D02*
D03*
X2915D02*
D03*
D36*
X2850Y2500D02*
D03*
X2570D02*
D03*
X2200Y2700D02*
D03*
X2480D02*
D03*
X3590Y1460D02*
D03*
X3870D02*
D03*
D37*
X3580Y2290D02*
D03*
Y2570D02*
D03*
Y1720D02*
D03*
Y2000D02*
D03*
D39*
X2054Y7457D02*
D03*
X2246D02*
D03*
Y7662D02*
D03*
D40*
X2074D02*
D03*
D43*
X4219Y1679D02*
D03*
X4347D02*
D03*
X4474D02*
D03*
X4601D02*
D03*
Y2221D02*
D03*
X4474D02*
D03*
X4347D02*
D03*
X4219D02*
D03*
X3059Y4461D02*
D03*
X3186D02*
D03*
X3313D02*
D03*
X3440D02*
D03*
Y3919D02*
D03*
X3313D02*
D03*
X3186D02*
D03*
X3059D02*
D03*
D44*
X1901Y4276D02*
D03*
X1766Y4411D02*
D03*
D81*
X6768Y680D02*
D03*
X6212D02*
D03*
D82*
X2417Y6068D02*
D03*
X2290D02*
D03*
X2163D02*
D03*
X2036D02*
D03*
Y6540D02*
D03*
X2163D02*
D03*
X2290D02*
D03*
X2417D02*
D03*
D83*
X7050Y5950D02*
D03*
Y6045D02*
D03*
Y6140D02*
D03*
X6790Y5950D02*
D03*
Y6140D02*
D03*
D84*
X2600Y1420D02*
D03*
X3146D02*
D03*
X2600Y1547D02*
D03*
Y1674D02*
D03*
X3146Y1547D02*
D03*
Y1674D02*
D03*
X2600Y1801D02*
D03*
X3146D02*
D03*
X2600Y1928D02*
D03*
X3146D02*
D03*
X2600Y2055D02*
D03*
Y2182D02*
D03*
X3146Y2055D02*
D03*
Y2182D02*
D03*
X2600Y2309D02*
D03*
X3146D02*
D03*
D85*
X1330Y2270D02*
D03*
X1450Y2390D02*
D03*
D86*
X4375Y7080D02*
D03*
X4765D02*
D03*
D87*
X7640Y1949D02*
D03*
D88*
Y850D02*
D03*
Y3047D02*
D03*
D89*
X5230Y7106D02*
D03*
Y7430D02*
D03*
M02*
