G04 Layer_Physical_Order=2*
G04 Layer_Color=16711680*
%FSLAX42Y42*%
%MOMM*%
G71*
G01*
G75*
%ADD10R,1.10X1.00*%
%ADD11R,1.00X1.10*%
%ADD14R,1.50X1.30*%
%ADD30R,2.20X3.15*%
%ADD34R,1.30X1.50*%
%ADD36R,2.00X1.20*%
%ADD37R,1.20X2.00*%
%ADD39R,0.59X1.30*%
%ADD40R,0.99X1.30*%
%ADD43R,0.65X1.52*%
G04:AMPARAMS|DCode=44|XSize=1.5mm|YSize=1.3mm|CornerRadius=0mm|HoleSize=0mm|Usage=FLASHONLY|Rotation=45.000|XOffset=0mm|YOffset=0mm|HoleType=Round|Shape=Rectangle|*
%AMROTATEDRECTD44*
4,1,4,-0.07,-0.99,-0.99,-0.07,0.07,0.99,0.99,0.07,-0.07,-0.99,0.0*
%
%ADD44ROTATEDRECTD44*%

%ADD50C,0.30*%
%ADD51C,0.25*%
%ADD52C,0.50*%
%ADD53C,0.80*%
%ADD54C,0.70*%
%ADD55C,1.00*%
%ADD57C,1.20*%
%ADD58C,0.60*%
%ADD59C,1.80*%
%ADD60C,2.00*%
%ADD62R,1.50X1.50*%
%ADD63C,1.50*%
%ADD64C,1.10*%
%ADD65C,2.20*%
%ADD66R,1.42X1.42*%
%ADD67C,1.42*%
%ADD68C,1.52*%
%ADD69C,2.44*%
%ADD70C,3.25*%
%ADD71C,4.00*%
%ADD72R,1.50X1.50*%
%ADD73C,1.70*%
%ADD74C,1.00*%
%ADD75C,4.76*%
%ADD76R,1.69X1.69*%
%ADD77C,1.69*%
%ADD78C,1.30*%
%ADD79C,1.80*%
%ADD80C,1.20*%
%ADD81R,2.15X3.40*%
%ADD82R,0.56X1.98*%
%ADD83R,1.00X0.60*%
%ADD84R,1.52X0.61*%
G04:AMPARAMS|DCode=85|XSize=1mm|YSize=1.1mm|CornerRadius=0mm|HoleSize=0mm|Usage=FLASHONLY|Rotation=315.000|XOffset=0mm|YOffset=0mm|HoleType=Round|Shape=Rectangle|*
%AMROTATEDRECTD85*
4,1,4,-0.74,-0.04,0.04,0.74,0.74,0.04,-0.04,-0.74,-0.74,-0.04,0.0*
%
%ADD85ROTATEDRECTD85*%

%ADD86R,1.90X3.40*%
%ADD87C,17.78*%
%ADD88R,5.08X2.79*%
%ADD89R,1.08X1.12*%
G36*
X8600Y0D02*
X0D01*
Y8000D01*
X8600D01*
Y0D01*
D02*
G37*
%LPC*%
G36*
X2867Y3994D02*
X2860Y3993D01*
X2842Y3986D01*
X2826Y3974D01*
X2814Y3958D01*
X2807Y3940D01*
X2806Y3933D01*
X2867D01*
Y3994D01*
D02*
G37*
G36*
X4983Y3924D02*
Y3853D01*
X5054D01*
X5053Y3862D01*
X5045Y3883D01*
X5031Y3901D01*
X5013Y3915D01*
X4992Y3923D01*
X4983Y3924D01*
D02*
G37*
G36*
X4957D02*
X4948Y3923D01*
X4927Y3915D01*
X4909Y3901D01*
X4895Y3883D01*
X4887Y3862D01*
X4886Y3853D01*
X4957D01*
Y3924D01*
D02*
G37*
G36*
X8350Y6231D02*
X8313Y6226D01*
X8279Y6212D01*
X8250Y6190D01*
X8228Y6161D01*
X8214Y6127D01*
X8209Y6090D01*
Y4858D01*
X8209Y4854D01*
Y4700D01*
X8212Y4684D01*
X8221Y4671D01*
X8234Y4662D01*
X8250Y4659D01*
X8470D01*
X8486Y4662D01*
X8499Y4671D01*
X8508Y4684D01*
X8511Y4700D01*
Y5015D01*
X8508Y5031D01*
X8499Y5044D01*
X8491Y5049D01*
Y5346D01*
X8499Y5351D01*
X8508Y5364D01*
X8511Y5380D01*
Y5695D01*
X8508Y5711D01*
X8499Y5724D01*
X8491Y5729D01*
Y6090D01*
X8486Y6127D01*
X8472Y6161D01*
X8450Y6190D01*
X8421Y6212D01*
X8387Y6226D01*
X8350Y6231D01*
D02*
G37*
G36*
X8335Y4466D02*
X8302Y4462D01*
X8272Y4449D01*
X8246Y4429D01*
X8226Y4403D01*
X8213Y4373D01*
X8209Y4340D01*
X8213Y4307D01*
X8226Y4277D01*
X8246Y4251D01*
X8272Y4231D01*
X8302Y4218D01*
X8335Y4214D01*
X8368Y4218D01*
X8398Y4231D01*
X8424Y4251D01*
X8444Y4277D01*
X8457Y4307D01*
X8461Y4340D01*
X8457Y4373D01*
X8444Y4403D01*
X8424Y4429D01*
X8398Y4449D01*
X8368Y4462D01*
X8335Y4466D01*
D02*
G37*
G36*
X2893Y3994D02*
Y3933D01*
X2954D01*
X2953Y3940D01*
X2946Y3958D01*
X2934Y3974D01*
X2918Y3986D01*
X2900Y3993D01*
X2893Y3994D01*
D02*
G37*
G36*
X5054Y3827D02*
X4983D01*
Y3756D01*
X4992Y3757D01*
X5013Y3765D01*
X5031Y3779D01*
X5045Y3797D01*
X5053Y3818D01*
X5054Y3827D01*
D02*
G37*
G36*
X4957D02*
X4886D01*
X4887Y3818D01*
X4895Y3797D01*
X4909Y3779D01*
X4927Y3765D01*
X4948Y3757D01*
X4957Y3756D01*
Y3827D01*
D02*
G37*
G36*
X3132Y3707D02*
X3064D01*
Y3670D01*
X3066Y3660D01*
X3072Y3652D01*
X3080Y3646D01*
X3090Y3644D01*
X3132D01*
Y3707D01*
D02*
G37*
G36*
X2954Y3907D02*
X2893D01*
Y3846D01*
X2900Y3847D01*
X2918Y3854D01*
X2934Y3866D01*
X2946Y3882D01*
X2953Y3900D01*
X2954Y3907D01*
D02*
G37*
G36*
X2867D02*
X2806D01*
X2807Y3900D01*
X2814Y3882D01*
X2826Y3866D01*
X2842Y3854D01*
X2860Y3847D01*
X2867Y3846D01*
Y3907D01*
D02*
G37*
G36*
X8010Y4121D02*
X7981Y4118D01*
X7952Y4109D01*
X7926Y4095D01*
X7903Y4077D01*
X7885Y4054D01*
X7871Y4028D01*
X7862Y3999D01*
X7859Y3970D01*
X7862Y3941D01*
X7871Y3912D01*
X7885Y3886D01*
X7903Y3863D01*
X7926Y3845D01*
X7952Y3831D01*
X7981Y3822D01*
X8010Y3819D01*
X8039Y3822D01*
X8068Y3831D01*
X8094Y3845D01*
X8117Y3863D01*
X8135Y3886D01*
X8149Y3912D01*
X8158Y3941D01*
X8161Y3970D01*
X8158Y3999D01*
X8149Y4028D01*
X8135Y4054D01*
X8117Y4077D01*
X8094Y4095D01*
X8068Y4109D01*
X8039Y4118D01*
X8010Y4121D01*
D02*
G37*
G36*
X3653Y4804D02*
Y4743D01*
X3714D01*
X3713Y4750D01*
X3706Y4768D01*
X3694Y4784D01*
X3678Y4796D01*
X3660Y4803D01*
X3653Y4804D01*
D02*
G37*
G36*
X279Y5434D02*
Y5347D01*
X366D01*
X364Y5360D01*
X354Y5385D01*
X338Y5406D01*
X317Y5422D01*
X292Y5432D01*
X279Y5434D01*
D02*
G37*
G36*
X507D02*
X494Y5432D01*
X469Y5422D01*
X448Y5406D01*
X432Y5385D01*
X422Y5360D01*
X420Y5347D01*
X507D01*
Y5434D01*
D02*
G37*
G36*
X620Y5321D02*
X533D01*
Y5234D01*
X546Y5236D01*
X571Y5246D01*
X592Y5262D01*
X608Y5283D01*
X618Y5308D01*
X620Y5321D01*
D02*
G37*
G36*
X7770Y5721D02*
X7673D01*
Y5550D01*
X7796D01*
Y5695D01*
X7794Y5705D01*
X7788Y5713D01*
X7780Y5719D01*
X7770Y5721D01*
D02*
G37*
G36*
X7796Y5525D02*
X7673D01*
Y5354D01*
X7770D01*
X7780Y5356D01*
X7788Y5362D01*
X7794Y5370D01*
X7796Y5380D01*
Y5525D01*
D02*
G37*
G36*
X533Y5434D02*
Y5347D01*
X620D01*
X618Y5360D01*
X608Y5385D01*
X592Y5406D01*
X571Y5422D01*
X546Y5432D01*
X533Y5434D01*
D02*
G37*
G36*
X3657Y5284D02*
X3648Y5283D01*
X3627Y5275D01*
X3609Y5261D01*
X3595Y5243D01*
X3587Y5222D01*
X3586Y5213D01*
X3657D01*
Y5284D01*
D02*
G37*
G36*
X3754Y5187D02*
X3683D01*
Y5116D01*
X3692Y5117D01*
X3713Y5125D01*
X3731Y5139D01*
X3745Y5157D01*
X3753Y5178D01*
X3754Y5187D01*
D02*
G37*
G36*
X3657D02*
X3586D01*
X3587Y5178D01*
X3595Y5157D01*
X3609Y5139D01*
X3627Y5125D01*
X3648Y5117D01*
X3657Y5116D01*
Y5187D01*
D02*
G37*
G36*
X366Y5321D02*
X279D01*
Y5234D01*
X292Y5236D01*
X317Y5246D01*
X338Y5262D01*
X354Y5283D01*
X364Y5308D01*
X366Y5321D01*
D02*
G37*
G36*
X507D02*
X420D01*
X422Y5308D01*
X432Y5283D01*
X448Y5262D01*
X469Y5246D01*
X494Y5236D01*
X507Y5234D01*
Y5321D01*
D02*
G37*
G36*
X3683Y5284D02*
Y5213D01*
X3754D01*
X3753Y5222D01*
X3745Y5243D01*
X3731Y5261D01*
X3713Y5275D01*
X3692Y5283D01*
X3683Y5284D01*
D02*
G37*
G36*
X8023Y3605D02*
Y3483D01*
X8145D01*
X8142Y3505D01*
X8128Y3538D01*
X8107Y3567D01*
X8078Y3588D01*
X8045Y3602D01*
X8023Y3605D01*
D02*
G37*
G36*
X470Y1187D02*
X393D01*
Y1110D01*
X404Y1112D01*
X426Y1121D01*
X444Y1136D01*
X459Y1154D01*
X468Y1176D01*
X470Y1187D01*
D02*
G37*
G36*
X367D02*
X290D01*
X292Y1176D01*
X301Y1154D01*
X316Y1136D01*
X334Y1121D01*
X356Y1112D01*
X367Y1110D01*
Y1187D01*
D02*
G37*
G36*
X567Y1187D02*
X490D01*
X492Y1176D01*
X501Y1154D01*
X516Y1136D01*
X534Y1121D01*
X556Y1112D01*
X567Y1110D01*
Y1187D01*
D02*
G37*
G36*
X5797Y1457D02*
X5726D01*
X5727Y1448D01*
X5735Y1427D01*
X5749Y1409D01*
X5767Y1395D01*
X5788Y1387D01*
X5797Y1386D01*
Y1457D01*
D02*
G37*
G36*
X236Y1412D02*
X173D01*
Y1344D01*
X210D01*
X220Y1346D01*
X228Y1352D01*
X234Y1360D01*
X236Y1370D01*
Y1412D01*
D02*
G37*
G36*
X147D02*
X84D01*
Y1370D01*
X86Y1360D01*
X92Y1352D01*
X100Y1346D01*
X110Y1344D01*
X147D01*
Y1412D01*
D02*
G37*
G36*
X5500Y326D02*
X5475Y323D01*
X5452Y313D01*
X5432Y298D01*
X5417Y278D01*
X5407Y255D01*
X5404Y230D01*
X5407Y205D01*
X5417Y182D01*
X5432Y162D01*
X5452Y147D01*
X5475Y137D01*
X5500Y134D01*
X5525Y137D01*
X5548Y147D01*
X5568Y162D01*
X5583Y182D01*
X5593Y205D01*
X5596Y230D01*
X5593Y255D01*
X5583Y278D01*
X5568Y298D01*
X5548Y313D01*
X5525Y323D01*
X5500Y326D01*
D02*
G37*
G36*
X4950D02*
X4925Y323D01*
X4902Y313D01*
X4882Y298D01*
X4867Y278D01*
X4857Y255D01*
X4854Y230D01*
X4857Y205D01*
X4867Y182D01*
X4882Y162D01*
X4902Y147D01*
X4925Y137D01*
X4950Y134D01*
X4975Y137D01*
X4998Y147D01*
X5018Y162D01*
X5033Y182D01*
X5043Y205D01*
X5046Y230D01*
X5043Y255D01*
X5033Y278D01*
X5018Y298D01*
X4998Y313D01*
X4975Y323D01*
X4950Y326D01*
D02*
G37*
G36*
X6320Y891D02*
X6105D01*
X6089Y888D01*
X6076Y879D01*
X6067Y866D01*
X6064Y850D01*
Y510D01*
X6067Y494D01*
X6076Y481D01*
X6089Y472D01*
X6105Y469D01*
X6112D01*
Y347D01*
X6115Y321D01*
X6125Y297D01*
X6141Y276D01*
X6259Y159D01*
X6280Y143D01*
X6304Y133D01*
X6330Y129D01*
X6356Y133D01*
X6380Y143D01*
X6401Y159D01*
X6417Y180D01*
X6427Y204D01*
X6431Y230D01*
X6427Y256D01*
X6417Y280D01*
X6401Y301D01*
X6313Y389D01*
Y469D01*
X6320D01*
X6336Y472D01*
X6349Y481D01*
X6358Y494D01*
X6361Y510D01*
Y850D01*
X6358Y866D01*
X6349Y879D01*
X6336Y888D01*
X6320Y891D01*
D02*
G37*
G36*
X450Y841D02*
X403Y837D01*
X358Y823D01*
X316Y801D01*
X279Y771D01*
X249Y734D01*
X227Y692D01*
X213Y647D01*
X209Y600D01*
X213Y553D01*
X227Y508D01*
X249Y466D01*
X279Y429D01*
X316Y399D01*
X358Y377D01*
X403Y363D01*
X450Y359D01*
X497Y363D01*
X542Y377D01*
X584Y399D01*
X621Y429D01*
X651Y466D01*
X673Y508D01*
X687Y553D01*
X691Y600D01*
X687Y647D01*
X673Y692D01*
X651Y734D01*
X621Y771D01*
X584Y801D01*
X542Y823D01*
X497Y837D01*
X450Y841D01*
D02*
G37*
G36*
X6663Y217D02*
X6597D01*
Y151D01*
X6605Y152D01*
X6625Y160D01*
X6641Y173D01*
X6654Y189D01*
X6662Y209D01*
X6663Y217D01*
D02*
G37*
G36*
X6571D02*
X6505D01*
X6506Y209D01*
X6514Y189D01*
X6527Y173D01*
X6543Y160D01*
X6563Y152D01*
X6571Y151D01*
Y217D01*
D02*
G37*
G36*
X5894Y1457D02*
X5823D01*
Y1386D01*
X5832Y1387D01*
X5853Y1395D01*
X5871Y1409D01*
X5885Y1427D01*
X5893Y1448D01*
X5894Y1457D01*
D02*
G37*
G36*
X7997Y3457D02*
X7875D01*
X7878Y3435D01*
X7892Y3402D01*
X7913Y3373D01*
X7942Y3352D01*
X7975Y3338D01*
X7997Y3335D01*
Y3457D01*
D02*
G37*
G36*
X6954Y2927D02*
X6883D01*
Y2856D01*
X6892Y2857D01*
X6913Y2865D01*
X6931Y2879D01*
X6945Y2897D01*
X6953Y2918D01*
X6954Y2927D01*
D02*
G37*
G36*
X5083Y2804D02*
Y2733D01*
X5154D01*
X5153Y2742D01*
X5145Y2763D01*
X5131Y2781D01*
X5113Y2795D01*
X5092Y2803D01*
X5083Y2804D01*
D02*
G37*
G36*
X7997Y3605D02*
X7975Y3602D01*
X7942Y3588D01*
X7913Y3567D01*
X7892Y3538D01*
X7878Y3505D01*
X7875Y3483D01*
X7997D01*
Y3605D01*
D02*
G37*
G36*
X5863Y3484D02*
Y3413D01*
X5934D01*
X5933Y3422D01*
X5925Y3443D01*
X5911Y3461D01*
X5893Y3475D01*
X5872Y3483D01*
X5863Y3484D01*
D02*
G37*
G36*
X8145Y3457D02*
X8023D01*
Y3335D01*
X8045Y3338D01*
X8078Y3352D01*
X8107Y3373D01*
X8128Y3402D01*
X8142Y3435D01*
X8145Y3457D01*
D02*
G37*
G36*
X7894Y3227D02*
X7386D01*
X7370Y3224D01*
X7357Y3215D01*
X7348Y3202D01*
X7345Y3186D01*
Y2908D01*
X7348Y2892D01*
X7357Y2879D01*
X7370Y2870D01*
X7386Y2867D01*
X7512D01*
X7513Y2854D01*
X7461Y2846D01*
X7374Y2825D01*
X7290Y2794D01*
X7208Y2756D01*
X7131Y2710D01*
X7059Y2656D01*
X6993Y2596D01*
X6932Y2529D01*
X6879Y2457D01*
X6833Y2380D01*
X6794Y2299D01*
X6764Y2214D01*
X6742Y2127D01*
X6729Y2038D01*
X6725Y1961D01*
X7640D01*
X8555D01*
X8551Y2038D01*
X8538Y2127D01*
X8516Y2214D01*
X8486Y2299D01*
X8447Y2380D01*
X8401Y2457D01*
X8348Y2529D01*
X8287Y2596D01*
X8221Y2656D01*
X8149Y2710D01*
X8072Y2756D01*
X7990Y2794D01*
X7906Y2825D01*
X7819Y2846D01*
X7767Y2854D01*
X7768Y2867D01*
X7894D01*
X7910Y2870D01*
X7923Y2879D01*
X7932Y2892D01*
X7935Y2908D01*
Y3186D01*
X7932Y3202D01*
X7923Y3215D01*
X7910Y3224D01*
X7894Y3227D01*
D02*
G37*
G36*
X5823Y1554D02*
Y1483D01*
X5894D01*
X5893Y1492D01*
X5885Y1513D01*
X5871Y1531D01*
X5853Y1545D01*
X5832Y1553D01*
X5823Y1554D01*
D02*
G37*
G36*
X5797D02*
X5788Y1553D01*
X5767Y1545D01*
X5749Y1531D01*
X5735Y1513D01*
X5727Y1492D01*
X5726Y1483D01*
X5797D01*
Y1554D01*
D02*
G37*
G36*
X5057Y2804D02*
X5048Y2803D01*
X5027Y2795D01*
X5009Y2781D01*
X4995Y2763D01*
X4987Y2742D01*
X4986Y2733D01*
X5057D01*
Y2804D01*
D02*
G37*
G36*
X5154Y2707D02*
X5083D01*
Y2636D01*
X5092Y2637D01*
X5113Y2645D01*
X5131Y2659D01*
X5145Y2677D01*
X5153Y2698D01*
X5154Y2707D01*
D02*
G37*
G36*
X5057D02*
X4986D01*
X4987Y2698D01*
X4995Y2677D01*
X5009Y2659D01*
X5027Y2645D01*
X5048Y2637D01*
X5057Y2636D01*
Y2707D01*
D02*
G37*
G36*
X2647Y7014D02*
X2614Y7009D01*
X2584Y6997D01*
X2558Y6977D01*
X2538Y6951D01*
X2525Y6921D01*
X2521Y6888D01*
X2525Y6855D01*
X2538Y6825D01*
X2558Y6799D01*
X2584Y6779D01*
X2614Y6767D01*
X2647Y6762D01*
X2679Y6767D01*
X2709Y6779D01*
X2735Y6799D01*
X2755Y6825D01*
X2768Y6855D01*
X2772Y6888D01*
X2768Y6921D01*
X2755Y6951D01*
X2735Y6977D01*
X2709Y6997D01*
X2679Y7009D01*
X2647Y7014D01*
D02*
G37*
G36*
X2911Y6875D02*
X2814D01*
X2816Y6859D01*
X2828Y6833D01*
X2845Y6810D01*
X2868Y6792D01*
X2895Y6781D01*
X2911Y6779D01*
Y6875D01*
D02*
G37*
G36*
X4753Y6274D02*
Y6203D01*
X4824D01*
X4823Y6212D01*
X4815Y6233D01*
X4801Y6251D01*
X4783Y6265D01*
X4762Y6273D01*
X4753Y6274D01*
D02*
G37*
G36*
X3619Y7309D02*
X3575Y7305D01*
X3533Y7295D01*
X3492Y7278D01*
X3455Y7256D01*
X3422Y7227D01*
X3393Y7194D01*
X3371Y7157D01*
X3354Y7116D01*
X3344Y7074D01*
X3340Y7030D01*
X3344Y6986D01*
X3354Y6944D01*
X3371Y6903D01*
X3393Y6866D01*
X3422Y6833D01*
X3455Y6804D01*
X3492Y6782D01*
X3533Y6765D01*
X3575Y6755D01*
X3619Y6751D01*
X3663Y6755D01*
X3705Y6765D01*
X3746Y6782D01*
X3783Y6804D01*
X3816Y6833D01*
X3845Y6866D01*
X3867Y6903D01*
X3884Y6944D01*
X3894Y6986D01*
X3898Y7030D01*
X3894Y7074D01*
X3884Y7116D01*
X3867Y7157D01*
X3845Y7194D01*
X3816Y7227D01*
X3783Y7256D01*
X3746Y7278D01*
X3705Y7295D01*
X3663Y7305D01*
X3619Y7309D01*
D02*
G37*
G36*
X2479Y6875D02*
X2382D01*
Y6779D01*
X2398Y6781D01*
X2425Y6792D01*
X2448Y6810D01*
X2465Y6833D01*
X2477Y6859D01*
X2479Y6875D01*
D02*
G37*
G36*
X2911Y6997D02*
X2895Y6995D01*
X2868Y6984D01*
X2845Y6966D01*
X2828Y6943D01*
X2816Y6917D01*
X2814Y6901D01*
X2911D01*
Y6997D01*
D02*
G37*
G36*
X4163Y5844D02*
Y5773D01*
X4234D01*
X4233Y5782D01*
X4225Y5803D01*
X4211Y5821D01*
X4193Y5835D01*
X4172Y5843D01*
X4163Y5844D01*
D02*
G37*
G36*
X3033Y6875D02*
X2936D01*
Y6779D01*
X2952Y6781D01*
X2979Y6792D01*
X3002Y6810D01*
X3019Y6833D01*
X3031Y6859D01*
X3033Y6875D01*
D02*
G37*
G36*
X4047Y6887D02*
X3986D01*
X3987Y6880D01*
X3994Y6862D01*
X4006Y6846D01*
X4022Y6834D01*
X4040Y6827D01*
X4047Y6826D01*
Y6887D01*
D02*
G37*
G36*
X1237Y6037D02*
X1176D01*
X1177Y6030D01*
X1184Y6012D01*
X1196Y5996D01*
X1212Y5984D01*
X1230Y5977D01*
X1237Y5976D01*
Y6037D01*
D02*
G37*
G36*
X1263Y6124D02*
Y6063D01*
X1324D01*
X1323Y6070D01*
X1316Y6088D01*
X1304Y6104D01*
X1288Y6116D01*
X1270Y6123D01*
X1263Y6124D01*
D02*
G37*
G36*
X1237D02*
X1230Y6123D01*
X1212Y6116D01*
X1196Y6104D01*
X1184Y6088D01*
X1177Y6070D01*
X1176Y6063D01*
X1237D01*
Y6124D01*
D02*
G37*
G36*
X1324Y6037D02*
X1263D01*
Y5976D01*
X1270Y5977D01*
X1288Y5984D01*
X1304Y5996D01*
X1316Y6012D01*
X1323Y6030D01*
X1324Y6037D01*
D02*
G37*
G36*
X4727Y6177D02*
X4656D01*
X4657Y6168D01*
X4665Y6147D01*
X4679Y6129D01*
X4697Y6115D01*
X4718Y6107D01*
X4727Y6106D01*
Y6177D01*
D02*
G37*
G36*
X7700Y6266D02*
X7658D01*
Y6203D01*
X7726D01*
Y6240D01*
X7724Y6250D01*
X7718Y6258D01*
X7710Y6264D01*
X7700Y6266D01*
D02*
G37*
G36*
X4727Y6274D02*
X4718Y6273D01*
X4697Y6265D01*
X4679Y6251D01*
X4665Y6233D01*
X4657Y6212D01*
X4656Y6203D01*
X4727D01*
Y6274D01*
D02*
G37*
G36*
X4824Y6177D02*
X4753D01*
Y6106D01*
X4762Y6107D01*
X4783Y6115D01*
X4801Y6129D01*
X4815Y6147D01*
X4823Y6168D01*
X4824Y6177D01*
D02*
G37*
G36*
X7726Y6177D02*
X7658D01*
Y6114D01*
X7700D01*
X7710Y6116D01*
X7718Y6122D01*
X7724Y6130D01*
X7726Y6140D01*
Y6177D01*
D02*
G37*
G36*
X450Y7641D02*
X403Y7637D01*
X358Y7623D01*
X316Y7601D01*
X279Y7571D01*
X249Y7534D01*
X227Y7492D01*
X213Y7447D01*
X209Y7400D01*
X213Y7353D01*
X227Y7308D01*
X249Y7266D01*
X279Y7229D01*
X316Y7199D01*
X358Y7177D01*
X403Y7163D01*
X450Y7159D01*
X497Y7163D01*
X542Y7177D01*
X584Y7199D01*
X621Y7229D01*
X651Y7266D01*
X673Y7308D01*
X687Y7353D01*
X691Y7400D01*
X687Y7447D01*
X673Y7492D01*
X651Y7534D01*
X621Y7571D01*
X584Y7601D01*
X542Y7623D01*
X497Y7637D01*
X450Y7641D01*
D02*
G37*
G36*
X8150D02*
X8103Y7637D01*
X8058Y7623D01*
X8016Y7601D01*
X7979Y7571D01*
X7949Y7534D01*
X7927Y7492D01*
X7913Y7447D01*
X7909Y7400D01*
X7913Y7353D01*
X7927Y7308D01*
X7949Y7266D01*
X7979Y7229D01*
X8016Y7199D01*
X8058Y7177D01*
X8103Y7163D01*
X8150Y7159D01*
X8197Y7163D01*
X8242Y7177D01*
X8284Y7199D01*
X8321Y7229D01*
X8351Y7266D01*
X8373Y7308D01*
X8387Y7353D01*
X8391Y7400D01*
X8387Y7447D01*
X8373Y7492D01*
X8351Y7534D01*
X8321Y7571D01*
X8284Y7601D01*
X8242Y7623D01*
X8197Y7637D01*
X8150Y7641D01*
D02*
G37*
G36*
X2508Y7298D02*
X2475Y7293D01*
X2445Y7281D01*
X2419Y7261D01*
X2399Y7235D01*
X2387Y7205D01*
X2382Y7172D01*
X2387Y7139D01*
X2399Y7109D01*
X2419Y7083D01*
X2445Y7063D01*
X2475Y7051D01*
X2508Y7046D01*
X2541Y7051D01*
X2571Y7063D01*
X2597Y7083D01*
X2617Y7109D01*
X2629Y7139D01*
X2634Y7172D01*
X2629Y7205D01*
X2617Y7235D01*
X2597Y7261D01*
X2571Y7281D01*
X2541Y7293D01*
X2508Y7298D01*
D02*
G37*
G36*
X4047Y6974D02*
X4040Y6973D01*
X4022Y6966D01*
X4006Y6954D01*
X3994Y6938D01*
X3987Y6920D01*
X3986Y6913D01*
X4047D01*
Y6974D01*
D02*
G37*
G36*
X4234Y5747D02*
X4163D01*
Y5676D01*
X4172Y5677D01*
X4193Y5685D01*
X4211Y5699D01*
X4225Y5717D01*
X4233Y5738D01*
X4234Y5747D01*
D02*
G37*
G36*
X4610Y7592D02*
X4606Y7591D01*
X4602D01*
X4583Y7587D01*
X4568Y7581D01*
X4568Y7581D01*
X4551Y7570D01*
X4551Y7570D01*
X4540Y7559D01*
X4540Y7559D01*
X4529Y7542D01*
X4529Y7542D01*
X4523Y7527D01*
X4519Y7508D01*
Y7492D01*
X4523Y7473D01*
X4529Y7458D01*
X4529Y7458D01*
X4540Y7441D01*
X4540Y7441D01*
X4551Y7430D01*
X4551Y7430D01*
X4568Y7419D01*
X4568Y7419D01*
X4583Y7413D01*
X4602Y7409D01*
X4606D01*
X4610Y7408D01*
X4614Y7409D01*
X4618D01*
X4637Y7413D01*
X4652Y7419D01*
X4652Y7419D01*
X4669Y7430D01*
X4669Y7430D01*
X4680Y7441D01*
X4680Y7441D01*
X4691Y7458D01*
X4691Y7458D01*
X4697Y7473D01*
X4701Y7492D01*
Y7508D01*
X4697Y7527D01*
X4691Y7542D01*
X4691Y7542D01*
X4680Y7559D01*
X4680Y7559D01*
X4669Y7570D01*
X4669Y7570D01*
X4652Y7581D01*
X4652Y7581D01*
X4637Y7587D01*
X4618Y7591D01*
X4614D01*
X4610Y7592D01*
D02*
G37*
G36*
X2061Y7753D02*
X2025D01*
X2015Y7751D01*
X2006Y7746D01*
X2001Y7737D01*
X1999Y7728D01*
Y7675D01*
X2061D01*
Y7753D01*
D02*
G37*
G36*
X2124D02*
X2087D01*
Y7675D01*
X2149D01*
Y7728D01*
X2147Y7737D01*
X2142Y7746D01*
X2133Y7751D01*
X2124Y7753D01*
D02*
G37*
G36*
X4894Y7717D02*
X4833D01*
Y7656D01*
X4840Y7657D01*
X4858Y7664D01*
X4874Y7676D01*
X4886Y7692D01*
X4893Y7710D01*
X4894Y7717D01*
D02*
G37*
G36*
X7550Y7951D02*
X3780D01*
X3759Y7948D01*
X3740Y7940D01*
X3723Y7927D01*
X3049Y7253D01*
X2880D01*
X2874Y7261D01*
X2848Y7281D01*
X2818Y7293D01*
X2785Y7298D01*
X2752Y7293D01*
X2722Y7281D01*
X2696Y7261D01*
X2676Y7235D01*
X2664Y7205D01*
X2659Y7172D01*
X2664Y7139D01*
X2676Y7109D01*
X2696Y7083D01*
X2722Y7063D01*
X2752Y7051D01*
X2785Y7046D01*
X2818Y7051D01*
X2848Y7063D01*
X2874Y7083D01*
X2880Y7091D01*
X3082D01*
X3103Y7094D01*
X3122Y7102D01*
X3139Y7115D01*
X3813Y7789D01*
X4754D01*
X4761Y7777D01*
X4754Y7768D01*
X4747Y7750D01*
X4746Y7743D01*
X4894D01*
X4893Y7750D01*
X4886Y7768D01*
X4879Y7777D01*
X4886Y7789D01*
X5149D01*
Y7530D01*
X5137Y7527D01*
X5131Y7542D01*
X5131Y7542D01*
X5120Y7559D01*
X5120Y7559D01*
X5109Y7570D01*
X5109Y7570D01*
X5092Y7581D01*
X5092Y7581D01*
X5077Y7587D01*
X5058Y7591D01*
X5054D01*
X5050Y7592D01*
X5046Y7591D01*
X5042D01*
X5023Y7587D01*
X5008Y7581D01*
X5008Y7581D01*
X4991Y7570D01*
X4991Y7570D01*
X4980Y7559D01*
X4980Y7559D01*
X4969Y7542D01*
X4969Y7542D01*
X4963Y7527D01*
X4959Y7508D01*
Y7492D01*
X4963Y7473D01*
X4969Y7458D01*
X4969Y7458D01*
X4980Y7441D01*
X4980Y7441D01*
X4991Y7430D01*
X4991Y7430D01*
X5008Y7419D01*
X5008Y7419D01*
X5023Y7413D01*
X5042Y7409D01*
X5046D01*
X5050Y7408D01*
X5054Y7409D01*
X5058D01*
X5077Y7413D01*
X5092Y7419D01*
X5092Y7419D01*
X5109Y7430D01*
X5109Y7430D01*
X5120Y7441D01*
X5120Y7441D01*
X5123Y7445D01*
X5135Y7441D01*
Y7374D01*
X5138Y7358D01*
X5147Y7345D01*
X5160Y7336D01*
X5176Y7333D01*
X5284D01*
X5300Y7336D01*
X5313Y7345D01*
X5322Y7358D01*
X5325Y7374D01*
Y7431D01*
X5337Y7437D01*
X5345Y7431D01*
X5367Y7422D01*
X5390Y7419D01*
X5400Y7421D01*
X5674Y7147D01*
Y6807D01*
X5661Y6800D01*
X5643Y6808D01*
X5620Y6811D01*
X5597Y6808D01*
X5575Y6799D01*
X5556Y6784D01*
X5541Y6765D01*
X5532Y6743D01*
X5529Y6720D01*
X5532Y6697D01*
X5540Y6679D01*
X5507Y6646D01*
X5108D01*
X5104Y6659D01*
X5108Y6662D01*
X5114Y6670D01*
X5116Y6680D01*
Y6717D01*
X5035D01*
Y6743D01*
X5116D01*
Y6780D01*
X5114Y6790D01*
X5108Y6798D01*
X5100Y6804D01*
X5090Y6806D01*
X5047D01*
X5045Y6819D01*
X5058Y6824D01*
X5074Y6836D01*
X5086Y6852D01*
X5093Y6870D01*
X5094Y6877D01*
X4946D01*
X4947Y6870D01*
X4954Y6852D01*
X4966Y6836D01*
X4982Y6824D01*
X4995Y6819D01*
X4993Y6806D01*
X4980D01*
X4970Y6804D01*
X4968Y6803D01*
X4953Y6804D01*
X4951Y6805D01*
X4949Y6809D01*
X4936Y6818D01*
X4920Y6821D01*
X4886D01*
Y6879D01*
X4889Y6881D01*
X4898Y6894D01*
X4901Y6910D01*
Y7025D01*
X5144D01*
X5147Y7021D01*
X5160Y7012D01*
X5176Y7009D01*
X5284D01*
X5300Y7012D01*
X5313Y7021D01*
X5322Y7034D01*
X5325Y7050D01*
Y7161D01*
X5322Y7177D01*
X5313Y7190D01*
X5300Y7199D01*
X5284Y7202D01*
X5176D01*
X5160Y7199D01*
X5147Y7190D01*
X5144Y7186D01*
X4901D01*
Y7250D01*
X4898Y7266D01*
X4889Y7279D01*
X4876Y7288D01*
X4860Y7291D01*
X4670D01*
X4654Y7288D01*
X4641Y7279D01*
X4632Y7266D01*
X4629Y7250D01*
Y6910D01*
X4632Y6894D01*
X4641Y6881D01*
X4654Y6872D01*
X4670Y6869D01*
X4774D01*
Y6798D01*
X4772Y6796D01*
X4771Y6791D01*
X4758Y6789D01*
X4754Y6794D01*
X4735Y6809D01*
X4713Y6818D01*
X4690Y6821D01*
X4667Y6818D01*
X4645Y6809D01*
X4627Y6795D01*
X4623Y6794D01*
X4613Y6795D01*
X4609Y6805D01*
X4594Y6824D01*
X4575Y6839D01*
X4559Y6846D01*
X4508Y6896D01*
X4511Y6910D01*
Y7250D01*
X4508Y7266D01*
X4499Y7279D01*
X4486Y7288D01*
X4470Y7291D01*
X4280D01*
X4269Y7289D01*
X4256Y7296D01*
Y7387D01*
X4280Y7411D01*
X4293Y7412D01*
X4315Y7421D01*
X4334Y7436D01*
X4349Y7455D01*
X4358Y7477D01*
X4361Y7500D01*
X4358Y7523D01*
X4349Y7545D01*
X4334Y7564D01*
X4315Y7579D01*
X4293Y7588D01*
X4270Y7591D01*
X4247Y7588D01*
X4225Y7579D01*
X4206Y7564D01*
X4191Y7545D01*
X4182Y7523D01*
X4179Y7500D01*
X4182Y7477D01*
X4184Y7473D01*
X4160Y7450D01*
X4148Y7431D01*
X4144Y7410D01*
Y6928D01*
X4131Y6925D01*
X4126Y6938D01*
X4114Y6954D01*
X4098Y6966D01*
X4080Y6973D01*
X4073Y6974D01*
Y6900D01*
Y6826D01*
X4080Y6827D01*
X4098Y6834D01*
X4114Y6846D01*
X4126Y6862D01*
X4131Y6875D01*
X4144Y6872D01*
Y6620D01*
X4148Y6599D01*
X4160Y6580D01*
X4171Y6570D01*
X4169Y6560D01*
X4172Y6537D01*
X4180Y6519D01*
X4173Y6506D01*
X3670D01*
X3664Y6514D01*
X3645Y6529D01*
X3623Y6538D01*
X3600Y6541D01*
X3577Y6538D01*
X3555Y6529D01*
X3536Y6514D01*
X3521Y6495D01*
X3512Y6473D01*
X3509Y6450D01*
X3512Y6427D01*
X3521Y6405D01*
X3536Y6386D01*
X3555Y6371D01*
X3577Y6362D01*
X3600Y6359D01*
X3623Y6362D01*
X3645Y6371D01*
X3664Y6386D01*
X3670Y6394D01*
X4380D01*
X4401Y6398D01*
X4420Y6410D01*
X4543Y6534D01*
X5530D01*
X5551Y6538D01*
X5570Y6550D01*
X5651Y6631D01*
X5665Y6627D01*
X5665Y6624D01*
X4887Y5846D01*
X4680D01*
X4674Y5854D01*
X4655Y5869D01*
X4633Y5878D01*
X4610Y5881D01*
X4587Y5878D01*
X4565Y5869D01*
X4546Y5854D01*
X4531Y5835D01*
X4522Y5813D01*
X4519Y5790D01*
X4522Y5767D01*
X4527Y5754D01*
X4521Y5738D01*
X4520Y5737D01*
X4499Y5721D01*
X4483Y5700D01*
X4473Y5676D01*
X4470Y5657D01*
X4437Y5623D01*
X4424Y5608D01*
X4417Y5590D01*
X4414Y5570D01*
Y5326D01*
X4403Y5310D01*
X4393Y5286D01*
X4392Y5280D01*
X4380Y5276D01*
X4209Y5447D01*
X4211Y5460D01*
X4215Y5461D01*
X4234Y5476D01*
X4249Y5495D01*
X4258Y5517D01*
X4261Y5540D01*
X4258Y5563D01*
X4249Y5585D01*
X4234Y5604D01*
X4215Y5619D01*
X4193Y5628D01*
X4170Y5631D01*
X4157Y5629D01*
X4119Y5667D01*
X4126Y5677D01*
X4128Y5677D01*
X4137Y5676D01*
Y5747D01*
X4066D01*
X4067Y5738D01*
X4067Y5736D01*
X4057Y5729D01*
X3934Y5852D01*
Y6150D01*
X3929Y6170D01*
X3918Y6188D01*
X3838Y6268D01*
X3820Y6279D01*
X3800Y6284D01*
X3280D01*
X3021Y6542D01*
Y6645D01*
X3018Y6661D01*
X3009Y6674D01*
X2996Y6683D01*
X2980Y6686D01*
X2850D01*
X2834Y6683D01*
X2821Y6674D01*
X2819D01*
X2806Y6683D01*
X2790Y6686D01*
X2660D01*
X2644Y6683D01*
X2631Y6674D01*
X2622Y6661D01*
X2619Y6645D01*
Y6626D01*
X2486D01*
Y6639D01*
X2483Y6655D01*
X2474Y6668D01*
X2461Y6677D01*
X2445Y6680D01*
X2389D01*
X2373Y6677D01*
X2360Y6668D01*
X2360Y6667D01*
X2347D01*
X2347Y6668D01*
X2342Y6671D01*
X2342Y6673D01*
X2330Y6691D01*
X2311Y6709D01*
Y6779D01*
X2324Y6788D01*
X2341Y6781D01*
X2357Y6779D01*
Y6888D01*
Y6997D01*
X2341Y6995D01*
X2314Y6984D01*
X2300Y6973D01*
X2287Y6979D01*
Y7060D01*
X2294Y7063D01*
X2320Y7083D01*
X2340Y7109D01*
X2352Y7139D01*
X2357Y7172D01*
X2352Y7205D01*
X2340Y7235D01*
X2320Y7261D01*
X2294Y7281D01*
X2266Y7292D01*
Y7352D01*
X2275D01*
X2291Y7355D01*
X2304Y7364D01*
X2313Y7377D01*
X2316Y7393D01*
Y7522D01*
X2313Y7538D01*
X2304Y7551D01*
X2301Y7554D01*
Y7566D01*
X2304Y7569D01*
X2313Y7582D01*
X2316Y7597D01*
Y7728D01*
X2313Y7743D01*
X2304Y7756D01*
X2291Y7765D01*
X2275Y7768D01*
X2217D01*
X2201Y7765D01*
X2188Y7756D01*
X2179Y7743D01*
X2176Y7728D01*
Y7597D01*
X2179Y7582D01*
X2188Y7569D01*
X2191Y7566D01*
Y7554D01*
X2188Y7551D01*
X2179Y7538D01*
X2176Y7522D01*
Y7487D01*
X2170Y7481D01*
X2158Y7463D01*
X2154Y7442D01*
Y7430D01*
X2141Y7426D01*
X2135Y7436D01*
X2124Y7447D01*
Y7522D01*
X2121Y7538D01*
X2112Y7551D01*
X2101Y7559D01*
X2102Y7567D01*
X2103Y7572D01*
X2124D01*
X2133Y7574D01*
X2142Y7579D01*
X2147Y7588D01*
X2149Y7597D01*
Y7650D01*
X2074D01*
Y7662D01*
D01*
Y7650D01*
X1999D01*
Y7597D01*
X2001Y7588D01*
X2006Y7579D01*
X2014Y7574D01*
X2014Y7571D01*
X2013Y7561D01*
X2009Y7560D01*
X1996Y7551D01*
X1987Y7538D01*
X1984Y7522D01*
Y7393D01*
X1987Y7377D01*
X1996Y7364D01*
X2009Y7355D01*
X2025Y7352D01*
X2039D01*
Y7278D01*
X2028Y7273D01*
X2017Y7281D01*
X1987Y7293D01*
X1954Y7298D01*
X1921Y7293D01*
X1891Y7281D01*
X1865Y7261D01*
X1845Y7235D01*
X1833Y7205D01*
X1828Y7172D01*
X1833Y7139D01*
X1845Y7109D01*
X1865Y7083D01*
X1891Y7063D01*
X1921Y7051D01*
X1954Y7046D01*
X1987Y7051D01*
X2017Y7063D01*
X2028Y7071D01*
X2039Y7066D01*
Y7001D01*
X2030Y6997D01*
X2004Y6977D01*
X1984Y6951D01*
X1971Y6921D01*
X1967Y6888D01*
X1971Y6855D01*
X1984Y6825D01*
X2004Y6799D01*
X2030Y6779D01*
X2060Y6767D01*
X2092Y6762D01*
X2115Y6765D01*
X2144Y6737D01*
Y6712D01*
X2123Y6691D01*
X2111Y6673D01*
X2111Y6671D01*
X2107Y6669D01*
X2103Y6667D01*
X2093D01*
X2093Y6668D01*
X2080Y6677D01*
X2064Y6680D01*
X2008D01*
X1992Y6677D01*
X1979Y6668D01*
X1970Y6655D01*
X1967Y6639D01*
Y6446D01*
X1955Y6441D01*
X1884Y6512D01*
Y6603D01*
X1891Y6609D01*
X1905Y6627D01*
X1913Y6648D01*
X1914Y6657D01*
X1830D01*
Y6683D01*
X1914D01*
X1913Y6692D01*
X1905Y6713D01*
X1891Y6731D01*
X1873Y6745D01*
X1860Y6750D01*
X1863Y6763D01*
X1900D01*
X1916Y6766D01*
X1929Y6775D01*
X1938Y6788D01*
X1941Y6804D01*
Y6972D01*
X1938Y6988D01*
X1929Y7001D01*
X1916Y7010D01*
X1900Y7013D01*
X1731D01*
X1715Y7010D01*
X1702Y7001D01*
X1693Y6988D01*
X1690Y6972D01*
Y6891D01*
X1516Y6717D01*
X1501Y6698D01*
X1492Y6676D01*
X1489Y6653D01*
Y6292D01*
X1483Y6276D01*
X1479Y6250D01*
X1483Y6224D01*
X1493Y6200D01*
X1509Y6179D01*
X1530Y6163D01*
X1554Y6153D01*
X1580Y6149D01*
X1606Y6153D01*
X1630Y6163D01*
X1651Y6179D01*
X1652Y6179D01*
X1699D01*
X1702Y6164D01*
X1711Y6151D01*
X1715Y6149D01*
X1716Y6147D01*
X1717Y6132D01*
X1716Y6130D01*
X1714Y6120D01*
Y6068D01*
X1815D01*
Y6042D01*
X1714D01*
Y5990D01*
X1716Y5980D01*
X1717Y5979D01*
X1710Y5966D01*
X1470D01*
X1449Y5962D01*
X1430Y5950D01*
X897Y5416D01*
X882Y5419D01*
X880Y5422D01*
X862Y5446D01*
X861Y5447D01*
Y6593D01*
X881Y6609D01*
X897Y6630D01*
X907Y6654D01*
X911Y6680D01*
X907Y6706D01*
X897Y6730D01*
X881Y6751D01*
X860Y6767D01*
X836Y6777D01*
X810Y6781D01*
X784Y6777D01*
X760Y6767D01*
X739Y6751D01*
X723Y6730D01*
X713Y6706D01*
X711Y6691D01*
X710Y6690D01*
X702Y6671D01*
X699Y6650D01*
Y5447D01*
X698Y5446D01*
X680Y5422D01*
X668Y5394D01*
X664Y5364D01*
X668Y5334D01*
X680Y5306D01*
X698Y5282D01*
X722Y5264D01*
X750Y5252D01*
X780Y5248D01*
X809Y5252D01*
X810Y5252D01*
X819Y5244D01*
X819Y5231D01*
X815Y5227D01*
X807Y5222D01*
X780Y5226D01*
X750Y5222D01*
X722Y5210D01*
X698Y5192D01*
X680Y5168D01*
X668Y5140D01*
X664Y5110D01*
X668Y5080D01*
X680Y5052D01*
X698Y5028D01*
X722Y5010D01*
X750Y4998D01*
X780Y4994D01*
X810Y4998D01*
X838Y5010D01*
X840Y5011D01*
X854Y4997D01*
Y4959D01*
X843Y4953D01*
X838Y4956D01*
X810Y4968D01*
X780Y4972D01*
X750Y4968D01*
X722Y4956D01*
X718Y4954D01*
X704Y4959D01*
X702Y4971D01*
X690Y4990D01*
X631Y5048D01*
X632Y5050D01*
X636Y5080D01*
X632Y5110D01*
X620Y5138D01*
X602Y5162D01*
X578Y5180D01*
X550Y5192D01*
X520Y5196D01*
X490Y5192D01*
X462Y5180D01*
X438Y5162D01*
X420Y5138D01*
X408Y5110D01*
X404Y5080D01*
X408Y5050D01*
X420Y5022D01*
X438Y4998D01*
X462Y4980D01*
X490Y4968D01*
X520Y4964D01*
X550Y4968D01*
X552Y4969D01*
X567Y4954D01*
X562Y4942D01*
X445D01*
X429Y4939D01*
X416Y4930D01*
X407Y4917D01*
X404Y4901D01*
Y4818D01*
X392Y4814D01*
X382Y4824D01*
X382Y4826D01*
X378Y4856D01*
X366Y4884D01*
X348Y4908D01*
X324Y4926D01*
X296Y4938D01*
X266Y4942D01*
X236Y4938D01*
X213Y4929D01*
X201Y4936D01*
Y4970D01*
X213Y4977D01*
X236Y4968D01*
X266Y4964D01*
X296Y4968D01*
X324Y4980D01*
X348Y4998D01*
X366Y5022D01*
X378Y5050D01*
X382Y5080D01*
X378Y5110D01*
X366Y5138D01*
X348Y5162D01*
X324Y5180D01*
X296Y5192D01*
X266Y5196D01*
X236Y5192D01*
X213Y5183D01*
X201Y5190D01*
Y5243D01*
X212Y5249D01*
X215Y5246D01*
X240Y5236D01*
X253Y5234D01*
Y5334D01*
Y5434D01*
X240Y5432D01*
X215Y5422D01*
X212Y5419D01*
X201Y5425D01*
Y6361D01*
X799Y6959D01*
X851D01*
X855Y6944D01*
X872Y6903D01*
X894Y6866D01*
X923Y6833D01*
X956Y6804D01*
X993Y6782D01*
X1034Y6765D01*
X1076Y6755D01*
X1120Y6751D01*
X1164Y6755D01*
X1206Y6765D01*
X1247Y6782D01*
X1284Y6804D01*
X1317Y6833D01*
X1346Y6866D01*
X1368Y6903D01*
X1385Y6944D01*
X1395Y6986D01*
X1399Y7030D01*
X1395Y7074D01*
X1385Y7116D01*
X1368Y7157D01*
X1346Y7194D01*
X1317Y7227D01*
X1284Y7256D01*
X1247Y7278D01*
X1206Y7295D01*
X1164Y7305D01*
X1120Y7309D01*
X1076Y7305D01*
X1034Y7295D01*
X993Y7278D01*
X956Y7256D01*
X923Y7227D01*
X894Y7194D01*
X872Y7157D01*
X855Y7116D01*
X851Y7101D01*
X770D01*
X752Y7098D01*
X735Y7091D01*
X720Y7080D01*
X80Y6440D01*
X69Y6425D01*
X62Y6408D01*
X59Y6390D01*
Y4690D01*
X62Y4672D01*
X69Y4655D01*
X80Y4640D01*
X122Y4598D01*
X122Y4597D01*
X131Y4575D01*
X146Y4556D01*
X165Y4541D01*
X187Y4532D01*
X199Y4531D01*
X203Y4517D01*
X133Y4447D01*
X120Y4430D01*
X112Y4411D01*
X109Y4390D01*
Y4350D01*
Y3690D01*
X112Y3669D01*
X120Y3650D01*
X133Y3633D01*
X136Y3630D01*
X133Y3627D01*
X120Y3610D01*
X112Y3591D01*
X109Y3570D01*
Y3490D01*
X109Y3490D01*
Y3390D01*
X109Y3390D01*
Y2100D01*
Y1691D01*
X94Y1688D01*
X81Y1679D01*
X72Y1666D01*
X69Y1650D01*
Y1540D01*
X72Y1524D01*
X81Y1511D01*
X85Y1509D01*
X86Y1507D01*
X87Y1492D01*
X86Y1490D01*
X84Y1480D01*
Y1438D01*
X160D01*
X236D01*
Y1480D01*
X234Y1490D01*
X233Y1492D01*
X234Y1507D01*
X235Y1509D01*
X239Y1511D01*
X244Y1519D01*
X313D01*
X327Y1508D01*
X332Y1506D01*
Y1494D01*
X327Y1492D01*
X305Y1475D01*
X288Y1453D01*
X278Y1427D01*
X274Y1400D01*
X278Y1373D01*
X288Y1347D01*
X305Y1325D01*
X327Y1308D01*
X350Y1299D01*
X351Y1289D01*
X350Y1286D01*
X334Y1279D01*
X316Y1264D01*
X301Y1246D01*
X292Y1224D01*
X290Y1213D01*
X380D01*
X470D01*
X468Y1224D01*
X459Y1246D01*
X444Y1264D01*
X426Y1279D01*
X410Y1286D01*
X409Y1289D01*
X410Y1299D01*
X433Y1308D01*
X455Y1325D01*
X462Y1334D01*
X498D01*
X505Y1325D01*
X527Y1308D01*
X550Y1299D01*
X551Y1289D01*
X550Y1286D01*
X534Y1279D01*
X516Y1264D01*
X501Y1246D01*
X492Y1224D01*
X490Y1213D01*
X580D01*
Y1200D01*
X593D01*
Y1110D01*
X604Y1112D01*
X626Y1121D01*
X642Y1133D01*
X654Y1129D01*
Y880D01*
X657Y863D01*
X663Y847D01*
X674Y834D01*
X934Y574D01*
X947Y563D01*
X963Y557D01*
X980Y554D01*
X1380D01*
X1397Y557D01*
X1413Y563D01*
X1426Y574D01*
X1615Y762D01*
X1847D01*
X1865Y739D01*
X1891Y719D01*
X1921Y707D01*
X1954Y702D01*
X1987Y707D01*
X2017Y719D01*
X2023Y724D01*
X2034Y718D01*
Y700D01*
X2038Y679D01*
X2050Y660D01*
X2440Y270D01*
X2459Y258D01*
X2480Y254D01*
X3907D01*
X3960Y200D01*
X3979Y188D01*
X4000Y184D01*
X4249D01*
X4270Y188D01*
X4288Y200D01*
X4296Y208D01*
X4309Y203D01*
X4317Y182D01*
X4332Y162D01*
X4352Y147D01*
X4375Y137D01*
X4400Y134D01*
X4425Y137D01*
X4448Y147D01*
X4468Y162D01*
X4483Y182D01*
X4493Y205D01*
X4496Y230D01*
X4493Y255D01*
X4483Y278D01*
X4468Y298D01*
X4448Y313D01*
X4427Y321D01*
X4422Y334D01*
X4492Y404D01*
X4757D01*
X4762Y391D01*
X4689Y318D01*
X4679Y323D01*
X4654Y326D01*
X4629Y323D01*
X4606Y313D01*
X4586Y298D01*
X4571Y278D01*
X4561Y255D01*
X4558Y230D01*
X4561Y205D01*
X4571Y182D01*
X4586Y162D01*
X4606Y147D01*
X4629Y137D01*
X4654Y134D01*
X4679Y137D01*
X4702Y147D01*
X4722Y162D01*
X4737Y182D01*
X4747Y205D01*
X4748Y219D01*
X5221Y692D01*
X5234Y687D01*
Y334D01*
X5233Y333D01*
X5221Y324D01*
X5204Y326D01*
X5179Y323D01*
X5156Y313D01*
X5136Y298D01*
X5121Y278D01*
X5111Y255D01*
X5108Y230D01*
X5111Y205D01*
X5121Y182D01*
X5136Y162D01*
X5156Y147D01*
X5179Y137D01*
X5204Y134D01*
X5229Y137D01*
X5252Y147D01*
X5272Y162D01*
X5287Y182D01*
X5297Y205D01*
X5300Y230D01*
X5300Y230D01*
X5330Y260D01*
X5342Y279D01*
X5346Y300D01*
Y549D01*
X5359Y553D01*
X5360Y550D01*
X5661Y250D01*
X5658Y230D01*
X5661Y205D01*
X5671Y182D01*
X5686Y162D01*
X5706Y147D01*
X5729Y137D01*
X5754Y134D01*
X5779Y137D01*
X5802Y147D01*
X5822Y162D01*
X5837Y182D01*
X5847Y205D01*
X5850Y230D01*
X5847Y255D01*
X5837Y278D01*
X5822Y298D01*
X5802Y313D01*
X5779Y323D01*
X5754Y326D01*
X5745Y325D01*
X5456Y613D01*
Y1820D01*
X5452Y1841D01*
X5440Y1860D01*
X4698Y2602D01*
X4703Y2614D01*
X4813D01*
X6424Y1003D01*
Y480D01*
X6427Y463D01*
X6433Y447D01*
X6444Y434D01*
X6544Y334D01*
X6557Y323D01*
X6562Y321D01*
X6563Y313D01*
X6561Y308D01*
X6543Y300D01*
X6527Y287D01*
X6514Y271D01*
X6506Y251D01*
X6505Y243D01*
X6663D01*
X6662Y251D01*
X6654Y271D01*
X6641Y287D01*
X6625Y300D01*
X6621Y302D01*
X6623Y314D01*
X7030D01*
X7047Y317D01*
X7063Y323D01*
X7076Y334D01*
X7412Y670D01*
X7894D01*
X7908Y672D01*
X7914Y669D01*
X7918Y663D01*
X7913Y647D01*
X7909Y600D01*
X7913Y553D01*
X7927Y508D01*
X7949Y466D01*
X7979Y429D01*
X8016Y399D01*
X8058Y377D01*
X8103Y363D01*
X8150Y359D01*
X8197Y363D01*
X8242Y377D01*
X8284Y399D01*
X8321Y429D01*
X8351Y466D01*
X8373Y508D01*
X8387Y553D01*
X8391Y600D01*
X8387Y647D01*
X8373Y692D01*
X8351Y734D01*
X8321Y771D01*
X8284Y801D01*
X8242Y823D01*
X8197Y837D01*
X8150Y841D01*
X8103Y837D01*
X8058Y823D01*
X8016Y801D01*
X7979Y771D01*
X7949Y734D01*
X7947Y730D01*
X7935Y733D01*
Y990D01*
X7932Y1005D01*
X7923Y1018D01*
X7910Y1027D01*
X7894Y1030D01*
X7768D01*
X7767Y1043D01*
X7819Y1051D01*
X7906Y1072D01*
X7990Y1103D01*
X8072Y1141D01*
X8149Y1187D01*
X8221Y1241D01*
X8287Y1301D01*
X8348Y1368D01*
X8401Y1440D01*
X8447Y1517D01*
X8486Y1598D01*
X8516Y1683D01*
X8538Y1770D01*
X8551Y1859D01*
X8555Y1936D01*
X7640D01*
X6725D01*
X6729Y1859D01*
X6742Y1770D01*
X6764Y1683D01*
X6794Y1598D01*
X6833Y1517D01*
X6879Y1440D01*
X6932Y1368D01*
X6993Y1301D01*
X7059Y1241D01*
X7131Y1187D01*
X7208Y1141D01*
X7290Y1103D01*
X7374Y1072D01*
X7461Y1051D01*
X7513Y1043D01*
X7512Y1030D01*
X7386D01*
X7370Y1027D01*
X7357Y1018D01*
X7348Y1005D01*
X7345Y990D01*
Y788D01*
X7003Y446D01*
X6617D01*
X6556Y507D01*
Y1030D01*
X6553Y1047D01*
X6547Y1063D01*
X6536Y1076D01*
X4886Y2726D01*
X4873Y2737D01*
X4857Y2743D01*
X4840Y2746D01*
X4506D01*
X4501Y2751D01*
X4480Y2767D01*
X4456Y2777D01*
X4430Y2781D01*
X4404Y2777D01*
X4380Y2767D01*
X4359Y2751D01*
X4343Y2730D01*
X4333Y2706D01*
X4329Y2680D01*
X4333Y2654D01*
X4339Y2639D01*
X4330Y2626D01*
X4283D01*
X4187Y2722D01*
X4192Y2735D01*
X4200Y2737D01*
X4218Y2744D01*
X4234Y2756D01*
X4246Y2772D01*
X4253Y2790D01*
X4254Y2797D01*
X4180D01*
Y2823D01*
X4254D01*
X4253Y2830D01*
X4246Y2848D01*
X4234Y2864D01*
X4230Y2867D01*
X4235Y2879D01*
X4282D01*
X4306Y2856D01*
X4325Y2841D01*
X4347Y2832D01*
X4370Y2829D01*
X4438D01*
X4454Y2823D01*
X4480Y2819D01*
X4506Y2823D01*
X4530Y2833D01*
X4551Y2849D01*
X4567Y2870D01*
X4577Y2894D01*
X4581Y2920D01*
X4577Y2946D01*
X4567Y2970D01*
X4551Y2991D01*
X4530Y3007D01*
X4506Y3017D01*
X4480Y3021D01*
X4454Y3017D01*
X4438Y3011D01*
X4408D01*
X4384Y3034D01*
X4365Y3049D01*
X4343Y3058D01*
X4320Y3061D01*
X4110D01*
X4093Y3068D01*
X4090Y3068D01*
X3744Y3414D01*
X3725Y3429D01*
X3703Y3438D01*
X3680Y3441D01*
X3460D01*
X3437Y3438D01*
X3415Y3429D01*
X3396Y3414D01*
X3342Y3361D01*
X3246D01*
Y3537D01*
X3278Y3569D01*
X3290Y3563D01*
X3289Y3560D01*
X3292Y3537D01*
X3301Y3515D01*
X3316Y3496D01*
X3335Y3481D01*
X3357Y3472D01*
X3380Y3469D01*
X3403Y3472D01*
X3425Y3481D01*
X3444Y3496D01*
X3459Y3515D01*
X3468Y3537D01*
X3471Y3560D01*
X3468Y3583D01*
X3465Y3589D01*
X3607Y3732D01*
X3620Y3726D01*
X3623Y3704D01*
X3633Y3680D01*
X3649Y3659D01*
X3670Y3643D01*
X3694Y3633D01*
X3720Y3629D01*
X3746Y3633D01*
X3766Y3641D01*
X4074Y3334D01*
X4087Y3323D01*
X4103Y3317D01*
X4120Y3314D01*
X4353D01*
X4544Y3124D01*
X4557Y3113D01*
X4573Y3107D01*
X4590Y3104D01*
X5771D01*
X5780Y3095D01*
X5779Y3090D01*
X5783Y3064D01*
X5793Y3040D01*
X5809Y3019D01*
X5830Y3003D01*
X5854Y2993D01*
X5880Y2989D01*
X5906Y2993D01*
X5930Y3003D01*
X5951Y3019D01*
X5967Y3040D01*
X5977Y3064D01*
X5981Y3090D01*
X5977Y3116D01*
X5967Y3140D01*
X5951Y3161D01*
X5930Y3177D01*
X5920Y3182D01*
X5922Y3194D01*
X5934Y3194D01*
X5939Y3189D01*
X5960Y3173D01*
X5984Y3163D01*
X6010Y3159D01*
X6036Y3163D01*
X6060Y3173D01*
X6081Y3189D01*
X6097Y3210D01*
X6107Y3234D01*
X6111Y3260D01*
X6107Y3286D01*
X6097Y3310D01*
X6081Y3331D01*
X6060Y3347D01*
X6036Y3357D01*
X6010Y3361D01*
X5984Y3357D01*
X5960Y3347D01*
X5939Y3331D01*
X5934Y3326D01*
X5913D01*
X5909Y3338D01*
X5911Y3339D01*
X5925Y3357D01*
X5933Y3378D01*
X5934Y3387D01*
X5766D01*
X5767Y3378D01*
X5775Y3357D01*
X5789Y3339D01*
X5791Y3338D01*
X5787Y3326D01*
X4647D01*
X4550Y3423D01*
X4556Y3435D01*
X4560Y3434D01*
X5620D01*
X5626Y3426D01*
X5645Y3411D01*
X5667Y3402D01*
X5690Y3399D01*
X5713Y3402D01*
X5735Y3411D01*
X5754Y3426D01*
X5766Y3422D01*
X5767Y3421D01*
X5766Y3413D01*
X5837D01*
Y3484D01*
X5828Y3483D01*
X5807Y3475D01*
X5789Y3461D01*
X5778Y3467D01*
X5781Y3490D01*
X5778Y3513D01*
X5773Y3524D01*
X5782Y3536D01*
X6420D01*
X6440Y3541D01*
X6458Y3552D01*
X6607Y3701D01*
X6620Y3699D01*
X6643Y3702D01*
X6665Y3711D01*
X6684Y3726D01*
X6699Y3745D01*
X6708Y3767D01*
X6711Y3790D01*
X6708Y3813D01*
X6699Y3835D01*
X6684Y3854D01*
X6665Y3869D01*
X6643Y3878D01*
X6620Y3881D01*
X6597Y3878D01*
X6583Y3872D01*
X6571Y3880D01*
X6568Y3903D01*
X6559Y3925D01*
X6544Y3944D01*
X6525Y3959D01*
X6503Y3968D01*
X6480Y3971D01*
X6457Y3968D01*
X6435Y3959D01*
X6416Y3944D01*
X6401Y3925D01*
X6392Y3903D01*
X6389Y3880D01*
X6391Y3867D01*
X6213Y3689D01*
X6071D01*
X6066Y3700D01*
X6186Y3820D01*
X6190Y3819D01*
X6213Y3822D01*
X6235Y3831D01*
X6254Y3846D01*
X6269Y3865D01*
X6278Y3887D01*
X6281Y3910D01*
X6278Y3933D01*
X6269Y3955D01*
X6254Y3974D01*
X6235Y3989D01*
X6213Y3998D01*
X6190Y4001D01*
X6167Y3998D01*
X6145Y3989D01*
X6126Y3974D01*
X6111Y3955D01*
X6102Y3933D01*
X6099Y3910D01*
X6102Y3888D01*
X5948Y3734D01*
X4573D01*
X4567Y3746D01*
X4577Y3760D01*
X4587Y3784D01*
X4591Y3810D01*
X4587Y3836D01*
X4577Y3860D01*
X4571Y3869D01*
Y4110D01*
X4568Y4131D01*
X4560Y4150D01*
X4547Y4167D01*
X4267Y4447D01*
X4250Y4460D01*
X4231Y4468D01*
X4210Y4471D01*
X4209D01*
X4200Y4477D01*
X4176Y4487D01*
X4150Y4491D01*
X4124Y4487D01*
X4100Y4477D01*
X4079Y4461D01*
X4063Y4440D01*
X4053Y4416D01*
X4049Y4390D01*
X4053Y4364D01*
X4063Y4340D01*
X4079Y4319D01*
X4100Y4303D01*
X4124Y4293D01*
X4150Y4289D01*
X4176Y4293D01*
X4188Y4298D01*
X4409Y4077D01*
Y3919D01*
X4397Y3915D01*
X4388Y3928D01*
X3669Y4647D01*
X3672Y4662D01*
X3678Y4664D01*
X3694Y4676D01*
X3706Y4692D01*
X3713Y4710D01*
X3714Y4717D01*
X3640D01*
Y4730D01*
X3627D01*
Y4804D01*
X3620Y4803D01*
X3602Y4796D01*
X3586Y4784D01*
X3574Y4768D01*
X3572Y4762D01*
X3557Y4759D01*
X3534Y4782D01*
Y4848D01*
X3544Y4856D01*
X3559Y4875D01*
X3568Y4897D01*
X3571Y4920D01*
X3568Y4938D01*
X3580Y4944D01*
X3612Y4912D01*
X3630Y4901D01*
X3650Y4896D01*
X4118D01*
X4126Y4886D01*
X4145Y4871D01*
X4167Y4862D01*
X4190Y4859D01*
X4213Y4862D01*
X4235Y4871D01*
X4254Y4886D01*
X4269Y4905D01*
X4278Y4927D01*
X4281Y4950D01*
X4278Y4973D01*
X4269Y4995D01*
X4254Y5014D01*
X4235Y5029D01*
X4213Y5038D01*
X4190Y5041D01*
X4167Y5038D01*
X4145Y5029D01*
X4126Y5014D01*
X4118Y5004D01*
X3672D01*
X3628Y5048D01*
X3610Y5059D01*
X3590Y5064D01*
X3270D01*
X3261Y5062D01*
X3251Y5060D01*
X3250Y5060D01*
X3250Y5059D01*
X3242Y5054D01*
X3233Y5049D01*
X3034Y4859D01*
X3031Y4857D01*
X3021Y4847D01*
X2647Y4464D01*
X2632D01*
X2624Y4474D01*
X2605Y4489D01*
X2583Y4498D01*
X2560Y4501D01*
X2537Y4498D01*
X2515Y4489D01*
X2496Y4474D01*
X2481Y4455D01*
X2472Y4433D01*
X2469Y4410D01*
X2472Y4387D01*
X2481Y4365D01*
X2496Y4346D01*
X2515Y4331D01*
X2537Y4322D01*
X2560Y4319D01*
X2583Y4322D01*
X2605Y4331D01*
X2624Y4346D01*
X2632Y4356D01*
X2647D01*
X2732Y4272D01*
X2749Y4261D01*
X2770Y4256D01*
X2970D01*
X2972Y4237D01*
X2981Y4215D01*
X2996Y4196D01*
X3006Y4188D01*
Y4029D01*
X2998Y4024D01*
X2989Y4011D01*
X2986Y3995D01*
Y3843D01*
X2989Y3827D01*
X2998Y3814D01*
X3011Y3805D01*
X3027Y3802D01*
X3069D01*
X3073Y3789D01*
X3072Y3788D01*
X3066Y3780D01*
X3064Y3770D01*
Y3733D01*
X3145D01*
Y3720D01*
X3158D01*
Y3644D01*
X3178D01*
X3183Y3632D01*
X3150Y3600D01*
X3138Y3581D01*
X3134Y3560D01*
Y3361D01*
X2870D01*
X2849Y3358D01*
X2841Y3361D01*
X2836Y3365D01*
Y3387D01*
X2760D01*
Y3413D01*
X2836D01*
Y3455D01*
X2834Y3465D01*
X2828Y3473D01*
X2826Y3475D01*
X2826Y3475D01*
X2827Y3489D01*
X2831Y3492D01*
X2836Y3500D01*
X2838Y3510D01*
Y3552D01*
X2763D01*
Y3578D01*
X2838D01*
Y3618D01*
X2844Y3622D01*
X2850Y3625D01*
X2855Y3621D01*
X2877Y3612D01*
X2900Y3609D01*
X2923Y3612D01*
X2945Y3621D01*
X2964Y3636D01*
X2979Y3655D01*
X2988Y3677D01*
X2991Y3700D01*
X2988Y3723D01*
X2979Y3745D01*
X2964Y3764D01*
X2945Y3779D01*
X2923Y3788D01*
X2900Y3791D01*
X2877Y3788D01*
X2866Y3783D01*
X2855Y3789D01*
X2853Y3792D01*
X2850Y3806D01*
X2841Y3819D01*
X2828Y3828D01*
X2813Y3831D01*
X2713D01*
X2711Y3830D01*
X2701Y3838D01*
Y3981D01*
X2701Y3981D01*
X2701Y3982D01*
X2699Y3993D01*
X2698Y4004D01*
X2698Y4005D01*
X2698Y4005D01*
X2693Y4016D01*
X2689Y4026D01*
X2688Y4027D01*
X2688Y4027D01*
X2681Y4036D01*
X2674Y4045D01*
X2674Y4045D01*
X2674Y4046D01*
X2243Y4471D01*
X2243Y4484D01*
X2649Y4891D01*
X2664Y4910D01*
X2673Y4932D01*
X2676Y4955D01*
Y5157D01*
X2684Y5166D01*
X2700Y5173D01*
X2721Y5189D01*
X2737Y5210D01*
X2747Y5234D01*
X2751Y5260D01*
X2750Y5263D01*
X2762Y5269D01*
X2914Y5117D01*
Y5063D01*
X2680Y4829D01*
X2670Y4831D01*
X2647Y4828D01*
X2625Y4819D01*
X2606Y4804D01*
X2591Y4785D01*
X2582Y4763D01*
X2579Y4740D01*
X2582Y4717D01*
X2591Y4695D01*
X2606Y4676D01*
X2625Y4661D01*
X2647Y4652D01*
X2670Y4649D01*
X2693Y4652D01*
X2715Y4661D01*
X2734Y4676D01*
X2749Y4695D01*
X2758Y4717D01*
X2761Y4740D01*
X2759Y4750D01*
X3010Y5000D01*
X3022Y5019D01*
X3026Y5040D01*
Y5140D01*
X3022Y5161D01*
X3010Y5180D01*
X2760Y5430D01*
X2741Y5442D01*
X2720Y5446D01*
X2610D01*
X2589Y5442D01*
X2570Y5430D01*
X2556Y5434D01*
X2555Y5439D01*
X2612Y5496D01*
X3848D01*
X4416Y4928D01*
Y4740D01*
X4421Y4720D01*
X4432Y4702D01*
X5032Y4102D01*
X5050Y4091D01*
X5070Y4086D01*
X7250D01*
X7270Y4091D01*
X7288Y4102D01*
X7358Y4172D01*
X7361Y4177D01*
X7374Y4174D01*
X7375Y4169D01*
X5685Y2479D01*
X5674Y2477D01*
X5650Y2467D01*
X5629Y2451D01*
X5613Y2430D01*
X5603Y2406D01*
X5599Y2380D01*
X5603Y2354D01*
X5613Y2330D01*
X5629Y2309D01*
X5650Y2293D01*
X5674Y2283D01*
X5700Y2279D01*
X5726Y2283D01*
X5750Y2293D01*
X5771Y2309D01*
X5787Y2330D01*
X5797Y2354D01*
X5799Y2365D01*
X7517Y4083D01*
X7530Y4100D01*
X7538Y4119D01*
X7541Y4140D01*
Y4652D01*
X7550Y4659D01*
X7599D01*
Y4520D01*
Y4124D01*
X6377Y2903D01*
X6356Y2876D01*
X6343Y2844D01*
X6339Y2810D01*
Y1480D01*
X6343Y1446D01*
X6356Y1414D01*
X6377Y1387D01*
X6636Y1128D01*
Y882D01*
X6631Y879D01*
X6622Y866D01*
X6619Y850D01*
Y510D01*
X6622Y494D01*
X6631Y481D01*
X6644Y472D01*
X6660Y469D01*
X6875D01*
X6891Y472D01*
X6904Y481D01*
X6913Y494D01*
X6916Y510D01*
Y850D01*
X6913Y866D01*
X6904Y879D01*
X6899Y882D01*
Y1182D01*
X6894Y1216D01*
X6881Y1248D01*
X6860Y1275D01*
X6601Y1534D01*
Y2756D01*
X6774Y2928D01*
X6786Y2924D01*
X6787Y2918D01*
X6795Y2897D01*
X6809Y2879D01*
X6827Y2865D01*
X6848Y2857D01*
X6857Y2856D01*
Y2940D01*
X6870D01*
Y2953D01*
X6954D01*
X6953Y2962D01*
X6945Y2983D01*
X6931Y3001D01*
X6913Y3015D01*
X6892Y3023D01*
X6886Y3024D01*
X6882Y3036D01*
X7823Y3977D01*
X7844Y4004D01*
X7857Y4036D01*
X7861Y4070D01*
Y4520D01*
Y4788D01*
X7857Y4821D01*
X7844Y4853D01*
X7823Y4880D01*
X7811Y4892D01*
Y5015D01*
X7808Y5031D01*
X7799Y5044D01*
X7786Y5053D01*
X7770Y5056D01*
X7550D01*
X7541Y5063D01*
Y5346D01*
X7550Y5354D01*
X7647D01*
Y5537D01*
Y5721D01*
X7550D01*
X7541Y5729D01*
Y6101D01*
X7546Y6102D01*
X7559Y6111D01*
X7561Y6115D01*
X7563Y6116D01*
X7578Y6117D01*
X7580Y6116D01*
X7590Y6114D01*
X7632D01*
Y6190D01*
Y6266D01*
X7590D01*
X7580Y6264D01*
X7578Y6263D01*
X7563Y6264D01*
X7561Y6265D01*
X7559Y6269D01*
X7546Y6278D01*
X7541Y6279D01*
Y6517D01*
X7789Y6764D01*
X7810D01*
X7814Y6752D01*
X7805Y6745D01*
X7788Y6723D01*
X7778Y6697D01*
X7774Y6670D01*
X7778Y6643D01*
X7788Y6617D01*
X7805Y6595D01*
X7827Y6578D01*
X7853Y6568D01*
X7880Y6564D01*
X7907Y6568D01*
X7933Y6578D01*
X7955Y6595D01*
X7972Y6617D01*
X7982Y6643D01*
X7986Y6670D01*
X7982Y6697D01*
X7972Y6723D01*
X7955Y6745D01*
X7946Y6752D01*
X7950Y6764D01*
X8163D01*
X8195Y6732D01*
X8188Y6723D01*
X8178Y6697D01*
X8174Y6670D01*
X8178Y6643D01*
X8188Y6617D01*
X8205Y6595D01*
X8227Y6578D01*
X8253Y6568D01*
X8280Y6564D01*
X8307Y6568D01*
X8333Y6578D01*
X8355Y6595D01*
X8372Y6617D01*
X8382Y6643D01*
X8386Y6670D01*
X8382Y6697D01*
X8372Y6723D01*
X8355Y6745D01*
X8344Y6753D01*
X8343Y6757D01*
X8337Y6773D01*
X8326Y6786D01*
X8236Y6876D01*
X8223Y6887D01*
X8207Y6893D01*
X8190Y6896D01*
X7821D01*
Y7680D01*
X7818Y7701D01*
X7810Y7720D01*
X7797Y7737D01*
X7607Y7927D01*
X7590Y7940D01*
X7571Y7948D01*
X7550Y7951D01*
D02*
G37*
G36*
X4807Y7717D02*
X4746D01*
X4747Y7710D01*
X4754Y7692D01*
X4766Y7676D01*
X4782Y7664D01*
X4800Y7657D01*
X4807Y7656D01*
Y7717D01*
D02*
G37*
G36*
X2382Y6997D02*
Y6901D01*
X2479D01*
X2477Y6917D01*
X2465Y6943D01*
X2448Y6966D01*
X2425Y6984D01*
X2398Y6995D01*
X2382Y6997D01*
D02*
G37*
G36*
X5007Y6964D02*
X5000Y6963D01*
X4982Y6956D01*
X4966Y6944D01*
X4954Y6928D01*
X4947Y6910D01*
X4946Y6903D01*
X5007D01*
Y6964D01*
D02*
G37*
G36*
X4137Y5844D02*
X4128Y5843D01*
X4107Y5835D01*
X4089Y5821D01*
X4075Y5803D01*
X4067Y5782D01*
X4066Y5773D01*
X4137D01*
Y5844D01*
D02*
G37*
G36*
X2936Y6997D02*
Y6901D01*
X3033D01*
X3031Y6917D01*
X3019Y6943D01*
X3002Y6966D01*
X2979Y6984D01*
X2952Y6995D01*
X2936Y6997D01*
D02*
G37*
G36*
X5033Y6964D02*
Y6903D01*
X5094D01*
X5093Y6910D01*
X5086Y6928D01*
X5074Y6944D01*
X5058Y6956D01*
X5040Y6963D01*
X5033Y6964D01*
D02*
G37*
%LPD*%
G36*
X1064Y3787D02*
Y3670D01*
X1056Y3664D01*
X1041Y3645D01*
X1032Y3623D01*
X1029Y3600D01*
X1032Y3577D01*
X1037Y3565D01*
X1030Y3558D01*
X1027Y3556D01*
X1010Y3563D01*
X1003Y3564D01*
Y3490D01*
X990D01*
Y3477D01*
X916D01*
X917Y3470D01*
X924Y3452D01*
X936Y3436D01*
X952Y3424D01*
X970Y3417D01*
X987Y3414D01*
X993Y3403D01*
X858Y3268D01*
X854Y3269D01*
X846Y3273D01*
Y3307D01*
X778D01*
Y3244D01*
X820D01*
X822Y3244D01*
X829Y3233D01*
X828Y3231D01*
X824Y3210D01*
Y3050D01*
X811Y3047D01*
X805Y3063D01*
X791Y3081D01*
X773Y3095D01*
X752Y3103D01*
X743Y3104D01*
Y3020D01*
Y2936D01*
X752Y2937D01*
X773Y2945D01*
X791Y2959D01*
X805Y2977D01*
X811Y2993D01*
X824Y2990D01*
Y2690D01*
X816Y2684D01*
X807Y2672D01*
X793Y2675D01*
X792Y2681D01*
X780Y2700D01*
X656Y2823D01*
Y2956D01*
X668Y2960D01*
X669Y2959D01*
X687Y2945D01*
X708Y2937D01*
X717Y2936D01*
Y3020D01*
Y3104D01*
X708Y3103D01*
X687Y3095D01*
X669Y3081D01*
X668Y3080D01*
X656Y3084D01*
Y3230D01*
X666Y3232D01*
X679Y3241D01*
X681Y3245D01*
X683Y3246D01*
X698Y3247D01*
X700Y3246D01*
X710Y3244D01*
X752D01*
Y3320D01*
Y3396D01*
X710D01*
X700Y3394D01*
X698Y3393D01*
X683Y3394D01*
X681Y3395D01*
X679Y3399D01*
X666Y3408D01*
X659Y3409D01*
X657Y3417D01*
X657Y3422D01*
X674Y3436D01*
X689Y3455D01*
X698Y3477D01*
X701Y3500D01*
X698Y3523D01*
X690Y3541D01*
X785Y3635D01*
X797Y3654D01*
X801Y3675D01*
Y4033D01*
X813Y4038D01*
X1064Y3787D01*
D02*
G37*
G36*
X739Y2040D02*
X742Y2024D01*
X751Y2011D01*
X764Y2002D01*
X780Y1999D01*
X880D01*
X896Y2002D01*
X909Y2011D01*
X918Y2024D01*
X919Y2031D01*
X923Y2040D01*
X933Y2041D01*
X940Y2039D01*
X959D01*
X963Y2027D01*
X950Y2017D01*
X932Y1993D01*
X920Y1965D01*
X917Y1935D01*
X920Y1905D01*
X932Y1877D01*
X950Y1853D01*
X975Y1834D01*
X1002Y1823D01*
X1032Y1819D01*
X1063Y1823D01*
X1090Y1834D01*
X1096Y1839D01*
X1111Y1834D01*
X1120Y1820D01*
X1170Y1770D01*
X1186Y1760D01*
X1192Y1746D01*
X1186Y1739D01*
X1174Y1711D01*
X1171Y1681D01*
X1174Y1651D01*
X1186Y1623D01*
X1204Y1599D01*
X1229Y1580D01*
X1256Y1569D01*
X1286Y1565D01*
X1317Y1569D01*
X1344Y1580D01*
X1369Y1599D01*
X1387Y1623D01*
X1399Y1651D01*
X1402Y1681D01*
X1399Y1711D01*
X1396Y1717D01*
X1407Y1724D01*
X1427Y1703D01*
X1425Y1681D01*
X1428Y1651D01*
X1440Y1623D01*
X1458Y1599D01*
X1483Y1580D01*
X1510Y1569D01*
X1540Y1565D01*
X1571Y1569D01*
X1598Y1580D01*
X1623Y1599D01*
X1641Y1623D01*
X1653Y1651D01*
X1656Y1681D01*
X1654Y1699D01*
X1666Y1705D01*
X1680Y1691D01*
X1679Y1681D01*
X1682Y1651D01*
X1694Y1623D01*
X1712Y1599D01*
X1737Y1580D01*
X1764Y1569D01*
X1794Y1565D01*
X1825Y1569D01*
X1852Y1580D01*
X1877Y1599D01*
X1895Y1623D01*
X1907Y1651D01*
X1910Y1680D01*
X1914Y1683D01*
X1922Y1686D01*
X2120Y1488D01*
X2121Y1485D01*
X2128Y1476D01*
X2122Y1464D01*
X1152D01*
X1046Y1570D01*
X1050Y1582D01*
X1059Y1583D01*
X1083Y1593D01*
X1104Y1609D01*
X1120Y1630D01*
X1130Y1655D01*
X1132Y1668D01*
X1032D01*
Y1681D01*
X1020D01*
Y1780D01*
X1006Y1779D01*
X982Y1768D01*
X961Y1752D01*
X945Y1731D01*
X935Y1707D01*
X934Y1698D01*
X922Y1694D01*
X678Y1938D01*
X668Y1945D01*
X661Y1952D01*
X662Y1962D01*
X668Y1976D01*
X670Y1987D01*
X580D01*
Y2013D01*
X670D01*
X668Y2024D01*
X664Y2033D01*
X671Y2044D01*
X739D01*
Y2040D01*
D02*
G37*
G36*
X1925Y1235D02*
X1910Y1220D01*
X1899Y1203D01*
X1897Y1201D01*
X1884Y1198D01*
X1871Y1208D01*
X1844Y1219D01*
X1828Y1221D01*
Y1112D01*
Y1003D01*
X1844Y1005D01*
X1871Y1016D01*
X1884Y1026D01*
X1898Y1021D01*
X1898Y1019D01*
X1910Y1000D01*
X1945Y965D01*
X1941Y952D01*
X1921Y949D01*
X1891Y937D01*
X1865Y917D01*
X1847Y894D01*
X1588D01*
X1571Y891D01*
X1555Y885D01*
X1542Y874D01*
X1353Y686D01*
X1180D01*
X1179Y698D01*
X1206Y705D01*
X1247Y722D01*
X1284Y744D01*
X1317Y773D01*
X1346Y806D01*
X1368Y843D01*
X1385Y884D01*
X1395Y926D01*
X1399Y970D01*
X1395Y1014D01*
X1385Y1056D01*
X1368Y1097D01*
X1346Y1134D01*
X1317Y1167D01*
X1284Y1196D01*
X1247Y1218D01*
X1210Y1234D01*
X1213Y1246D01*
X1920D01*
X1925Y1235D01*
D02*
G37*
G36*
X4729Y1687D02*
Y1313D01*
X4627Y1211D01*
X4610D01*
X4594Y1208D01*
X4581Y1199D01*
X4579D01*
X4566Y1208D01*
X4550Y1211D01*
X4496D01*
Y1480D01*
X4513Y1497D01*
X4525Y1515D01*
X4530Y1536D01*
Y1562D01*
X4532Y1565D01*
X4534Y1567D01*
X4547Y1559D01*
Y1540D01*
X4551Y1519D01*
X4555Y1513D01*
X4714D01*
X4713Y1520D01*
X4706Y1538D01*
X4694Y1554D01*
X4678Y1566D01*
X4660Y1573D01*
X4654Y1574D01*
Y1588D01*
X4657Y1593D01*
X4659Y1603D01*
Y1666D01*
X4600D01*
Y1692D01*
X4659D01*
Y1739D01*
X4672Y1744D01*
X4729Y1687D01*
D02*
G37*
G36*
X4290Y1560D02*
Y1544D01*
X4295Y1522D01*
X4307Y1504D01*
X4324Y1487D01*
Y1211D01*
X4270D01*
X4254Y1208D01*
X4241Y1199D01*
X4239Y1195D01*
X4237Y1194D01*
X4222Y1193D01*
X4220Y1194D01*
X4210Y1196D01*
X4168D01*
Y1120D01*
Y1044D01*
X4197D01*
X4202Y1031D01*
X4100Y930D01*
X4100Y930D01*
X3951Y781D01*
X3870D01*
X3854Y778D01*
X3841Y769D01*
X3832Y756D01*
X3829Y740D01*
Y696D01*
X3717D01*
X3715Y709D01*
X3746Y722D01*
X3783Y744D01*
X3816Y773D01*
X3845Y806D01*
X3867Y843D01*
X3884Y884D01*
X3886Y891D01*
X3900Y894D01*
X3912Y884D01*
X3930Y877D01*
X3937Y876D01*
Y950D01*
X3950D01*
Y963D01*
X4024D01*
X4023Y970D01*
X4016Y988D01*
X4004Y1004D01*
X3988Y1016D01*
X3975Y1021D01*
X3977Y1034D01*
X3997D01*
Y1102D01*
X3934D01*
Y1060D01*
X3936Y1050D01*
X3942Y1042D01*
X3947Y1038D01*
X3944Y1025D01*
X3930Y1023D01*
X3912Y1016D01*
X3907Y1012D01*
X3903Y1013D01*
X3893Y1018D01*
X3884Y1056D01*
X3867Y1097D01*
X3845Y1134D01*
X3816Y1167D01*
X3783Y1196D01*
X3772Y1202D01*
X3776Y1214D01*
X3922D01*
X3931Y1201D01*
X3935Y1199D01*
X3936Y1197D01*
X3937Y1182D01*
X3936Y1180D01*
X3934Y1170D01*
Y1128D01*
X4010D01*
Y1115D01*
X4023D01*
Y1034D01*
X4060D01*
X4070Y1036D01*
X4078Y1042D01*
X4090Y1046D01*
X4100Y1044D01*
X4142D01*
Y1120D01*
Y1196D01*
X4107D01*
X4100Y1208D01*
X4104Y1214D01*
X4130D01*
X4151Y1217D01*
X4170Y1225D01*
X4187Y1238D01*
X4200Y1255D01*
X4208Y1274D01*
X4211Y1295D01*
Y1497D01*
X4277Y1562D01*
X4278Y1564D01*
X4290Y1560D01*
D02*
G37*
G36*
X3972Y2449D02*
X3971Y2439D01*
X3969Y2435D01*
X3967Y2434D01*
X3952Y2433D01*
X3950Y2434D01*
X3940Y2436D01*
X3898D01*
Y2360D01*
Y2284D01*
X3940D01*
X3950Y2286D01*
X3952Y2287D01*
X3967Y2286D01*
X3969Y2285D01*
X3971Y2281D01*
X3984Y2272D01*
X4000Y2269D01*
X4110D01*
X4126Y2272D01*
X4134Y2278D01*
X4146Y2271D01*
Y2176D01*
X3987Y2016D01*
X3970D01*
X3967Y2029D01*
X3983Y2035D01*
X4001Y2049D01*
X4015Y2067D01*
X4023Y2088D01*
X4024Y2097D01*
X3856D01*
X3857Y2088D01*
X3865Y2067D01*
X3879Y2049D01*
X3897Y2035D01*
X3913Y2029D01*
X3910Y2016D01*
X3838D01*
X3796Y2058D01*
Y2292D01*
X3809Y2296D01*
X3812Y2292D01*
X3820Y2286D01*
X3830Y2284D01*
X3872D01*
Y2360D01*
Y2436D01*
X3830D01*
X3820Y2434D01*
X3812Y2428D01*
X3809Y2424D01*
X3796Y2428D01*
Y2608D01*
X3808Y2613D01*
X3972Y2449D01*
D02*
G37*
G36*
X3700Y1995D02*
X3769Y1926D01*
Y1860D01*
X3772Y1844D01*
X3781Y1831D01*
Y1829D01*
X3772Y1816D01*
X3769Y1800D01*
Y1693D01*
X3763Y1686D01*
X3758Y1684D01*
X3753Y1684D01*
Y1610D01*
X3727D01*
Y1684D01*
X3720Y1683D01*
X3702Y1676D01*
X3693Y1669D01*
X3681Y1676D01*
Y1820D01*
X3678Y1836D01*
X3669Y1849D01*
X3664Y1852D01*
Y1868D01*
X3669Y1871D01*
X3678Y1884D01*
X3681Y1900D01*
Y2002D01*
X3693Y2006D01*
X3700Y1995D01*
D02*
G37*
G36*
X2213Y2614D02*
X2272D01*
X2279Y2601D01*
X2270Y2590D01*
X2262Y2571D01*
X2259Y2550D01*
X2262Y2529D01*
X2269Y2512D01*
Y2430D01*
X2262Y2413D01*
X2259Y2390D01*
X2262Y2367D01*
X2271Y2345D01*
X2286Y2326D01*
X2305Y2311D01*
X2327Y2302D01*
X2350Y2299D01*
X2373Y2302D01*
X2395Y2311D01*
X2414Y2326D01*
X2429Y2345D01*
X2438Y2367D01*
X2441Y2390D01*
X2440Y2397D01*
X2452Y2404D01*
X2454Y2402D01*
X2470Y2399D01*
X2544D01*
Y2380D01*
X2524D01*
X2508Y2377D01*
X2495Y2368D01*
X2486Y2355D01*
X2483Y2339D01*
Y2279D01*
X2486Y2263D01*
X2495Y2250D01*
X2503Y2244D01*
X2505Y2234D01*
X2505Y2230D01*
X2504Y2229D01*
X2500Y2222D01*
X2498Y2212D01*
Y2195D01*
X2600D01*
X2702D01*
Y2212D01*
X2700Y2222D01*
X2696Y2229D01*
X2695Y2230D01*
X2695Y2234D01*
X2697Y2244D01*
X2705Y2250D01*
X2714Y2263D01*
X2717Y2279D01*
Y2339D01*
X2714Y2355D01*
X2705Y2368D01*
X2692Y2377D01*
X2676Y2380D01*
X2656D01*
Y2399D01*
X2670D01*
X2686Y2402D01*
X2699Y2411D01*
X2702Y2416D01*
X2718D01*
X2721Y2411D01*
X2734Y2402D01*
X2750Y2399D01*
X2764D01*
Y2320D01*
X2768Y2299D01*
X2780Y2280D01*
X2918Y2142D01*
X2937Y2130D01*
X2958Y2126D01*
X3032D01*
X3039Y2115D01*
X3038Y2110D01*
X3032Y2101D01*
X3029Y2085D01*
Y2025D01*
X3032Y2009D01*
X3038Y2000D01*
X3040Y1992D01*
X3038Y1983D01*
X3032Y1974D01*
X3029Y1958D01*
Y1898D01*
X3032Y1882D01*
X3038Y1873D01*
X3040Y1865D01*
X3038Y1856D01*
X3032Y1847D01*
X3029Y1831D01*
Y1771D01*
X3032Y1755D01*
X3038Y1746D01*
X3040Y1738D01*
X3038Y1729D01*
X3032Y1720D01*
X3029Y1704D01*
Y1644D01*
X3032Y1628D01*
X3038Y1619D01*
X3040Y1610D01*
X3038Y1602D01*
X3032Y1593D01*
X3029Y1577D01*
Y1517D01*
X3032Y1501D01*
X3038Y1492D01*
X3040Y1484D01*
X3038Y1475D01*
X3032Y1466D01*
X3029Y1450D01*
Y1390D01*
X3032Y1374D01*
X3041Y1361D01*
X3054Y1352D01*
X3070Y1349D01*
X3222D01*
X3238Y1352D01*
X3251Y1361D01*
X3260Y1374D01*
X3263Y1390D01*
Y1450D01*
X3260Y1466D01*
X3254Y1475D01*
X3252Y1484D01*
X3254Y1492D01*
X3260Y1501D01*
X3263Y1517D01*
Y1560D01*
X3276Y1565D01*
X3420Y1420D01*
X3439Y1408D01*
X3449Y1406D01*
Y1400D01*
X3452Y1388D01*
X3444Y1376D01*
X3345D01*
X3324Y1373D01*
X3305Y1365D01*
X3288Y1352D01*
X3129Y1193D01*
X3049D01*
Y1197D01*
X3046Y1212D01*
X3037Y1225D01*
X3024Y1234D01*
X3008Y1237D01*
X2893D01*
X2888Y1249D01*
X2960Y1320D01*
X2972Y1339D01*
X2976Y1360D01*
Y1800D01*
X2972Y1821D01*
X2960Y1840D01*
X2717Y2082D01*
Y2085D01*
X2714Y2101D01*
X2705Y2114D01*
X2697Y2120D01*
X2695Y2130D01*
X2695Y2134D01*
X2696Y2135D01*
X2700Y2142D01*
X2702Y2152D01*
Y2169D01*
X2600D01*
X2498D01*
Y2152D01*
X2500Y2142D01*
X2504Y2135D01*
X2505Y2134D01*
X2505Y2130D01*
X2503Y2120D01*
X2495Y2114D01*
X2486Y2101D01*
X2483Y2085D01*
Y2025D01*
X2486Y2009D01*
X2492Y2000D01*
X2494Y1992D01*
X2492Y1983D01*
X2489Y1978D01*
X2474Y1975D01*
X1819Y2630D01*
X1853Y2664D01*
X1910D01*
X1915Y2651D01*
X1907Y2632D01*
X1906Y2623D01*
X1990D01*
Y2610D01*
X2003D01*
Y2526D01*
X2012Y2527D01*
X2033Y2535D01*
X2051Y2549D01*
X2065Y2567D01*
X2073Y2588D01*
X2076Y2610D01*
X2076Y2610D01*
X2088Y2617D01*
X2090Y2616D01*
X2100Y2614D01*
X2187D01*
Y2700D01*
X2213D01*
Y2614D01*
D02*
G37*
G36*
X2494Y5178D02*
Y4993D01*
X2052Y4551D01*
X1832D01*
X1809Y4548D01*
X1796Y4543D01*
X1789Y4547D01*
X1773Y4550D01*
X1758Y4547D01*
X1745Y4539D01*
X1639Y4432D01*
X1630Y4419D01*
X1627Y4404D01*
X1630Y4388D01*
X1631Y4387D01*
X1378Y4134D01*
X1362Y4127D01*
X1341Y4111D01*
X1325Y4090D01*
X1315Y4066D01*
X1311Y4040D01*
X1315Y4014D01*
X1325Y3990D01*
X1341Y3969D01*
X1362Y3953D01*
X1386Y3943D01*
X1412Y3939D01*
X1438Y3943D01*
X1463Y3953D01*
X1484Y3969D01*
X1500Y3990D01*
X1506Y4006D01*
X1764Y4263D01*
X1778Y4259D01*
X1783Y4251D01*
X1820Y4214D01*
X1892Y4285D01*
X1963Y4357D01*
X1962Y4357D01*
X1967Y4369D01*
X2088D01*
X2452Y4010D01*
X2448Y3998D01*
X2447Y3998D01*
X2425Y3989D01*
X2406Y3974D01*
X2391Y3955D01*
X2382Y3933D01*
X2379Y3910D01*
X2381Y3897D01*
X2312Y3828D01*
X2301Y3810D01*
X2296Y3790D01*
Y3572D01*
X2095Y3371D01*
X2090Y3368D01*
X2078Y3369D01*
X2065Y3379D01*
X2043Y3388D01*
X2020Y3391D01*
X1997Y3388D01*
X1975Y3379D01*
X1956Y3364D01*
X1943Y3348D01*
X1931Y3351D01*
X1931Y3351D01*
Y3455D01*
X1928Y3471D01*
X1919Y3484D01*
X1906Y3493D01*
X1896Y3495D01*
Y3550D01*
X1892Y3571D01*
X1880Y3590D01*
X1590Y3880D01*
X1571Y3892D01*
X1550Y3896D01*
X1393D01*
X1296Y3993D01*
Y4200D01*
X1304Y4206D01*
X1319Y4225D01*
X1328Y4247D01*
X1331Y4270D01*
X1328Y4293D01*
X1319Y4315D01*
X1304Y4334D01*
X1285Y4349D01*
X1263Y4358D01*
X1240Y4361D01*
X1217Y4358D01*
X1195Y4349D01*
X1187Y4343D01*
X1176Y4349D01*
Y4387D01*
X1283Y4494D01*
X1287Y4492D01*
X1310Y4489D01*
X1333Y4492D01*
X1355Y4501D01*
X1374Y4516D01*
X1389Y4535D01*
X1398Y4557D01*
X1401Y4580D01*
X1398Y4603D01*
X1389Y4625D01*
X1384Y4632D01*
X1389Y4646D01*
X1401Y4648D01*
X1420Y4660D01*
X1536Y4777D01*
X1547Y4772D01*
X1570Y4769D01*
X1593Y4772D01*
X1615Y4781D01*
X1634Y4796D01*
X1649Y4815D01*
X1658Y4837D01*
X1661Y4860D01*
X1658Y4883D01*
X1649Y4905D01*
X1634Y4924D01*
X1615Y4939D01*
X1593Y4948D01*
X1571Y4951D01*
X1567Y4952D01*
X1559Y4960D01*
X1561Y4970D01*
X1558Y4993D01*
X1549Y5015D01*
X1548Y5016D01*
X1554Y5030D01*
X1560Y5030D01*
X1713Y4878D01*
X1731Y4866D01*
X1752Y4861D01*
X1779D01*
Y4842D01*
X1782Y4827D01*
X1791Y4814D01*
X1804Y4805D01*
X1820Y4802D01*
X1950D01*
X1966Y4805D01*
X1979Y4814D01*
X1981D01*
X1994Y4805D01*
X2010Y4802D01*
X2140D01*
X2156Y4805D01*
X2169Y4814D01*
X2178Y4827D01*
X2181Y4842D01*
Y4883D01*
X2185Y4885D01*
X2482Y5183D01*
X2494Y5178D01*
D02*
G37*
G36*
X6494Y7401D02*
Y7300D01*
X6497Y7284D01*
X6506Y7271D01*
Y7269D01*
X6497Y7256D01*
X6494Y7240D01*
Y7110D01*
X6497Y7094D01*
X6506Y7081D01*
X6519Y7072D01*
X6535Y7069D01*
X6581D01*
Y6686D01*
X6566Y6674D01*
X6548Y6651D01*
X6537Y6624D01*
X6533Y6595D01*
X6537Y6566D01*
X6548Y6539D01*
X6566Y6516D01*
X6589Y6498D01*
X6616Y6487D01*
X6645Y6483D01*
X6674Y6487D01*
X6701Y6498D01*
X6724Y6516D01*
X6742Y6539D01*
X6753Y6566D01*
X6757Y6595D01*
X6753Y6624D01*
X6742Y6651D01*
X6724Y6674D01*
X6712Y6684D01*
Y7080D01*
X6714Y7081D01*
X6723Y7094D01*
X6724Y7099D01*
X6736D01*
X6737Y7094D01*
X6746Y7081D01*
X6759Y7072D01*
X6775Y7069D01*
X6925D01*
X6941Y7072D01*
X6954Y7081D01*
X6963Y7094D01*
X6966Y7110D01*
Y7240D01*
X6963Y7256D01*
X6954Y7269D01*
Y7271D01*
X6963Y7284D01*
X6966Y7300D01*
Y7311D01*
X7065D01*
X7081Y7315D01*
X7083Y7313D01*
X7090Y7305D01*
X7090Y7305D01*
X7090Y7304D01*
X7081Y7274D01*
X7080Y7270D01*
X7079Y7266D01*
X7076Y7234D01*
X7076Y7230D01*
X7076Y7226D01*
X7079Y7194D01*
X7080Y7190D01*
X7081Y7186D01*
X7090Y7156D01*
X7092Y7152D01*
X7093Y7148D01*
X7108Y7120D01*
X7111Y7117D01*
X7113Y7113D01*
X7133Y7089D01*
X7136Y7086D01*
X7139Y7083D01*
X7163Y7063D01*
X7167Y7061D01*
X7170Y7058D01*
X7198Y7043D01*
X7202Y7042D01*
X7206Y7040D01*
X7236Y7031D01*
X7240Y7030D01*
X7244Y7029D01*
X7276Y7026D01*
X7278Y7026D01*
X7280Y7026D01*
X7282Y7026D01*
X7284Y7026D01*
X7316Y7029D01*
X7320Y7030D01*
X7324Y7031D01*
X7354Y7040D01*
X7358Y7042D01*
X7362Y7043D01*
X7371Y7048D01*
X7379Y7038D01*
X7361Y7016D01*
X7346Y6987D01*
X7336Y6957D01*
X7333Y6925D01*
X7336Y6893D01*
X7346Y6863D01*
X7361Y6835D01*
X7381Y6810D01*
X7406Y6790D01*
X7434Y6775D01*
X7464Y6766D01*
X7496Y6762D01*
X7528Y6766D01*
X7550Y6773D01*
X7557Y6761D01*
X7403Y6607D01*
X7390Y6590D01*
X7382Y6571D01*
X7379Y6550D01*
Y6240D01*
X7379Y6240D01*
Y6140D01*
X7379Y6140D01*
Y4602D01*
X7368Y4597D01*
X7365Y4599D01*
X7343Y4608D01*
X7320Y4611D01*
X7297Y4608D01*
X7275Y4599D01*
X7266Y4592D01*
X7254Y4598D01*
Y4668D01*
X7264Y4676D01*
X7279Y4695D01*
X7288Y4717D01*
X7291Y4740D01*
X7288Y4763D01*
X7279Y4785D01*
X7264Y4804D01*
X7245Y4819D01*
X7223Y4828D01*
X7200Y4831D01*
X7177Y4828D01*
X7155Y4819D01*
X7136Y4804D01*
X7121Y4785D01*
X7112Y4763D01*
X7109Y4740D01*
X7112Y4717D01*
X7121Y4695D01*
X7136Y4676D01*
X7146Y4668D01*
Y4434D01*
X7134Y4429D01*
X7113Y4438D01*
X7090Y4441D01*
X7067Y4438D01*
X7045Y4429D01*
X7026Y4414D01*
X7011Y4395D01*
X7002Y4373D01*
X6999Y4350D01*
X7002Y4327D01*
X7008Y4313D01*
X6988Y4294D01*
X6919D01*
X6918Y4306D01*
X6922Y4307D01*
X6943Y4315D01*
X6961Y4329D01*
X6975Y4347D01*
X6983Y4368D01*
X6984Y4377D01*
X6816D01*
X6817Y4368D01*
X6825Y4347D01*
X6839Y4329D01*
X6857Y4315D01*
X6878Y4307D01*
X6882Y4306D01*
X6881Y4294D01*
X5973D01*
X5966Y4306D01*
X5975Y4317D01*
X5983Y4338D01*
X5984Y4347D01*
X5816D01*
X5817Y4338D01*
X5825Y4317D01*
X5834Y4306D01*
X5827Y4294D01*
X5427D01*
X5425Y4306D01*
X5440Y4313D01*
X5461Y4329D01*
X5477Y4350D01*
X5487Y4374D01*
X5491Y4400D01*
X5487Y4426D01*
X5477Y4450D01*
X5461Y4471D01*
X5440Y4487D01*
X5419Y4496D01*
X5418Y4507D01*
X5419Y4509D01*
X5433Y4515D01*
X5451Y4529D01*
X5465Y4547D01*
X5473Y4568D01*
X5474Y4577D01*
X5306D01*
X5307Y4568D01*
X5315Y4547D01*
X5329Y4529D01*
X5347Y4515D01*
X5361Y4509D01*
X5362Y4507D01*
X5361Y4496D01*
X5340Y4487D01*
X5324Y4476D01*
X5181D01*
X5086Y4571D01*
Y4900D01*
X5083Y4920D01*
X5076Y4938D01*
X5065Y4952D01*
X5297Y5184D01*
X5958D01*
X5975Y5171D01*
X5997Y5162D01*
X6020Y5159D01*
X6043Y5162D01*
X6065Y5171D01*
X6084Y5186D01*
X6099Y5205D01*
X6108Y5227D01*
X6111Y5250D01*
X6108Y5273D01*
X6099Y5295D01*
X6084Y5314D01*
X6065Y5329D01*
X6043Y5338D01*
X6020Y5341D01*
X5997Y5338D01*
X5975Y5329D01*
X5958Y5316D01*
X5270D01*
X5253Y5313D01*
X5237Y5307D01*
X5224Y5296D01*
X5049Y5122D01*
X5043Y5125D01*
X5038Y5129D01*
X5041Y5150D01*
X5038Y5173D01*
X5029Y5195D01*
X5014Y5214D01*
X5006Y5220D01*
Y5470D01*
X5876Y6340D01*
X5876Y6340D01*
X6408Y6872D01*
X6419Y6890D01*
X6424Y6910D01*
Y7360D01*
X6419Y7380D01*
X6408Y7398D01*
X6354Y7452D01*
X6358Y7464D01*
X6432D01*
X6494Y7401D01*
D02*
G37*
G36*
X610Y4710D02*
X630Y4690D01*
X649Y4678D01*
X670Y4674D01*
X679D01*
Y4615D01*
X780D01*
Y4602D01*
X793D01*
Y4501D01*
X855D01*
X865Y4503D01*
X868Y4505D01*
X876Y4495D01*
X750Y4369D01*
X629Y4491D01*
X629Y4491D01*
X638Y4504D01*
X641Y4520D01*
Y4620D01*
X638Y4636D01*
X629Y4649D01*
X616Y4658D01*
X600Y4661D01*
X490D01*
X474Y4658D01*
X468Y4654D01*
X456Y4660D01*
Y4710D01*
X595D01*
X609Y4713D01*
X610Y4710D01*
D02*
G37*
%LPC*%
G36*
X977Y3564D02*
X970Y3563D01*
X952Y3556D01*
X936Y3544D01*
X924Y3528D01*
X917Y3510D01*
X916Y3503D01*
X977D01*
Y3564D01*
D02*
G37*
G36*
X820Y3396D02*
X778D01*
Y3333D01*
X846D01*
Y3370D01*
X844Y3380D01*
X838Y3388D01*
X830Y3394D01*
X820Y3396D01*
D02*
G37*
G36*
X1045Y1780D02*
Y1694D01*
X1132D01*
X1130Y1707D01*
X1120Y1731D01*
X1104Y1752D01*
X1083Y1768D01*
X1059Y1779D01*
X1045Y1780D01*
D02*
G37*
G36*
X1803Y1221D02*
X1787Y1219D01*
X1760Y1208D01*
X1737Y1190D01*
X1720Y1167D01*
X1708Y1141D01*
X1706Y1125D01*
X1803D01*
Y1221D01*
D02*
G37*
G36*
Y1099D02*
X1706D01*
X1708Y1083D01*
X1720Y1057D01*
X1737Y1034D01*
X1760Y1016D01*
X1787Y1005D01*
X1803Y1003D01*
Y1099D01*
D02*
G37*
G36*
X4627Y1487D02*
X4566D01*
X4567Y1480D01*
X4574Y1462D01*
X4586Y1446D01*
X4602Y1434D01*
X4620Y1427D01*
X4627Y1426D01*
Y1487D01*
D02*
G37*
G36*
X4714D02*
X4653D01*
Y1426D01*
X4660Y1427D01*
X4678Y1434D01*
X4694Y1446D01*
X4706Y1462D01*
X4713Y1480D01*
X4714Y1487D01*
D02*
G37*
G36*
X4024Y937D02*
X3963D01*
Y876D01*
X3970Y877D01*
X3988Y884D01*
X4004Y896D01*
X4016Y912D01*
X4023Y930D01*
X4024Y937D01*
D02*
G37*
G36*
X3927Y2194D02*
X3918Y2193D01*
X3897Y2185D01*
X3879Y2171D01*
X3865Y2153D01*
X3857Y2132D01*
X3856Y2123D01*
X3927D01*
Y2194D01*
D02*
G37*
G36*
X3953D02*
Y2123D01*
X4024D01*
X4023Y2132D01*
X4015Y2153D01*
X4001Y2171D01*
X3983Y2185D01*
X3962Y2193D01*
X3953Y2194D01*
D02*
G37*
G36*
X2927Y1987D02*
X2866D01*
X2867Y1980D01*
X2874Y1962D01*
X2886Y1946D01*
X2902Y1934D01*
X2920Y1927D01*
X2927Y1926D01*
Y1987D01*
D02*
G37*
G36*
X2953Y2074D02*
Y2013D01*
X3014D01*
X3013Y2020D01*
X3006Y2038D01*
X2994Y2054D01*
X2978Y2066D01*
X2960Y2073D01*
X2953Y2074D01*
D02*
G37*
G36*
X3014Y1987D02*
X2953D01*
Y1926D01*
X2960Y1927D01*
X2978Y1934D01*
X2994Y1946D01*
X3006Y1962D01*
X3013Y1980D01*
X3014Y1987D01*
D02*
G37*
G36*
X2927Y2074D02*
X2920Y2073D01*
X2902Y2066D01*
X2886Y2054D01*
X2874Y2038D01*
X2867Y2020D01*
X2866Y2013D01*
X2927D01*
Y2074D01*
D02*
G37*
G36*
X1977Y2597D02*
X1906D01*
X1907Y2588D01*
X1915Y2567D01*
X1929Y2549D01*
X1947Y2535D01*
X1968Y2527D01*
X1977Y2526D01*
Y2597D01*
D02*
G37*
G36*
X1997Y4194D02*
X1988Y4193D01*
X1967Y4185D01*
X1949Y4171D01*
X1935Y4153D01*
X1927Y4132D01*
X1926Y4123D01*
X1997D01*
Y4194D01*
D02*
G37*
G36*
X2094Y4097D02*
X2023D01*
Y4026D01*
X2032Y4027D01*
X2053Y4035D01*
X2071Y4049D01*
X2085Y4067D01*
X2093Y4088D01*
X2094Y4097D01*
D02*
G37*
G36*
X1997D02*
X1926D01*
X1927Y4088D01*
X1935Y4067D01*
X1949Y4049D01*
X1967Y4035D01*
X1988Y4027D01*
X1997Y4026D01*
Y4097D01*
D02*
G37*
G36*
X2023Y4194D02*
Y4123D01*
X2094D01*
X2093Y4132D01*
X2085Y4153D01*
X2071Y4171D01*
X2053Y4185D01*
X2032Y4193D01*
X2023Y4194D01*
D02*
G37*
G36*
X1981Y4339D02*
X1919Y4276D01*
X1974Y4221D01*
X2018Y4265D01*
X2024Y4274D01*
X2026Y4283D01*
X2024Y4293D01*
X2018Y4302D01*
X1981Y4339D01*
D02*
G37*
G36*
X1901Y4258D02*
X1838Y4196D01*
X1875Y4159D01*
X1884Y4153D01*
X1894Y4151D01*
X1904Y4153D01*
X1912Y4159D01*
X1956Y4203D01*
X1901Y4258D01*
D02*
G37*
G36*
X6517Y5777D02*
X6456D01*
X6457Y5770D01*
X6464Y5752D01*
X6476Y5736D01*
X6492Y5724D01*
X6510Y5717D01*
X6517Y5716D01*
Y5777D01*
D02*
G37*
G36*
X6604D02*
X6543D01*
Y5716D01*
X6550Y5717D01*
X6568Y5724D01*
X6584Y5736D01*
X6596Y5752D01*
X6603Y5770D01*
X6604Y5777D01*
D02*
G37*
G36*
X7017Y5327D02*
X6946D01*
X6947Y5318D01*
X6955Y5297D01*
X6969Y5279D01*
X6987Y5265D01*
X7008Y5257D01*
X7017Y5256D01*
Y5327D01*
D02*
G37*
G36*
X7057Y5767D02*
X6996D01*
X6997Y5760D01*
X7004Y5742D01*
X7016Y5726D01*
X7032Y5714D01*
X7050Y5707D01*
X7057Y5706D01*
Y5767D01*
D02*
G37*
G36*
X7144D02*
X7083D01*
Y5706D01*
X7090Y5707D01*
X7108Y5714D01*
X7124Y5726D01*
X7136Y5742D01*
X7143Y5760D01*
X7144Y5767D01*
D02*
G37*
G36*
X7057Y5854D02*
X7050Y5853D01*
X7032Y5846D01*
X7016Y5834D01*
X7004Y5818D01*
X6997Y5800D01*
X6996Y5793D01*
X7057D01*
Y5854D01*
D02*
G37*
G36*
X6517Y5864D02*
X6510Y5863D01*
X6492Y5856D01*
X6476Y5844D01*
X6464Y5828D01*
X6457Y5810D01*
X6456Y5803D01*
X6517D01*
Y5864D01*
D02*
G37*
G36*
X7083Y5854D02*
Y5793D01*
X7144D01*
X7143Y5800D01*
X7136Y5818D01*
X7124Y5834D01*
X7108Y5846D01*
X7090Y5853D01*
X7083Y5854D01*
D02*
G37*
G36*
X5427Y5734D02*
X5418Y5733D01*
X5397Y5725D01*
X5379Y5711D01*
X5365Y5693D01*
X5357Y5672D01*
X5356Y5663D01*
X5427D01*
Y5734D01*
D02*
G37*
G36*
X5453D02*
Y5663D01*
X5524D01*
X5523Y5672D01*
X5515Y5693D01*
X5501Y5711D01*
X5483Y5725D01*
X5462Y5733D01*
X5453Y5734D01*
D02*
G37*
G36*
X7043Y5424D02*
Y5353D01*
X7114D01*
X7113Y5362D01*
X7105Y5383D01*
X7091Y5401D01*
X7073Y5415D01*
X7052Y5423D01*
X7043Y5424D01*
D02*
G37*
G36*
X5427Y5637D02*
X5356D01*
X5357Y5628D01*
X5365Y5607D01*
X5379Y5589D01*
X5397Y5575D01*
X5418Y5567D01*
X5427Y5566D01*
Y5637D01*
D02*
G37*
G36*
X6114D02*
X6053D01*
Y5576D01*
X6060Y5577D01*
X6078Y5584D01*
X6094Y5596D01*
X6106Y5612D01*
X6113Y5630D01*
X6114Y5637D01*
D02*
G37*
G36*
X6027D02*
X5966D01*
X5967Y5630D01*
X5974Y5612D01*
X5986Y5596D01*
X6002Y5584D01*
X6020Y5577D01*
X6027Y5576D01*
Y5637D01*
D02*
G37*
G36*
X5524D02*
X5453D01*
Y5566D01*
X5462Y5567D01*
X5483Y5575D01*
X5501Y5589D01*
X5515Y5607D01*
X5523Y5628D01*
X5524Y5637D01*
D02*
G37*
G36*
X6053Y5724D02*
Y5663D01*
X6114D01*
X6113Y5670D01*
X6106Y5688D01*
X6094Y5704D01*
X6078Y5716D01*
X6060Y5723D01*
X6053Y5724D01*
D02*
G37*
G36*
X7114Y5327D02*
X7043D01*
Y5256D01*
X7052Y5257D01*
X7073Y5265D01*
X7091Y5279D01*
X7105Y5297D01*
X7113Y5318D01*
X7114Y5327D01*
D02*
G37*
G36*
X6027Y5724D02*
X6020Y5723D01*
X6002Y5716D01*
X5986Y5704D01*
X5974Y5688D01*
X5967Y5670D01*
X5966Y5663D01*
X6027D01*
Y5724D01*
D02*
G37*
G36*
X7017Y5424D02*
X7008Y5423D01*
X6987Y5415D01*
X6969Y5401D01*
X6955Y5383D01*
X6947Y5362D01*
X6946Y5353D01*
X7017D01*
Y5424D01*
D02*
G37*
G36*
X6360Y6328D02*
X6277D01*
Y6245D01*
X6289Y6247D01*
X6313Y6257D01*
X6333Y6272D01*
X6348Y6292D01*
X6358Y6316D01*
X6360Y6328D01*
D02*
G37*
G36*
X6251D02*
X6168D01*
X6170Y6316D01*
X6180Y6292D01*
X6195Y6272D01*
X6215Y6257D01*
X6239Y6247D01*
X6251Y6245D01*
Y6328D01*
D02*
G37*
G36*
Y6437D02*
X6239Y6435D01*
X6215Y6425D01*
X6195Y6410D01*
X6180Y6390D01*
X6170Y6366D01*
X6168Y6354D01*
X6251D01*
Y6437D01*
D02*
G37*
G36*
X6899Y6707D02*
X6870Y6703D01*
X6843Y6692D01*
X6820Y6674D01*
X6802Y6651D01*
X6791Y6624D01*
X6787Y6595D01*
X6791Y6566D01*
X6802Y6539D01*
X6820Y6516D01*
X6843Y6498D01*
X6845Y6497D01*
Y6439D01*
X6834Y6433D01*
X6828Y6438D01*
X6801Y6449D01*
X6772Y6453D01*
X6743Y6449D01*
X6716Y6438D01*
X6693Y6420D01*
X6675Y6397D01*
X6664Y6370D01*
X6660Y6341D01*
X6661Y6333D01*
X6649Y6327D01*
X6629Y6346D01*
X6626Y6370D01*
X6615Y6397D01*
X6597Y6420D01*
X6574Y6438D01*
X6547Y6449D01*
X6518Y6453D01*
X6489Y6449D01*
X6462Y6438D01*
X6439Y6420D01*
X6421Y6397D01*
X6410Y6370D01*
X6406Y6341D01*
X6410Y6312D01*
X6421Y6285D01*
X6439Y6262D01*
X6462Y6244D01*
X6489Y6233D01*
X6518Y6229D01*
X6547Y6233D01*
X6574Y6244D01*
X6578Y6247D01*
X6699Y6125D01*
Y6110D01*
X6702Y6094D01*
X6711Y6081D01*
X6724Y6072D01*
X6740Y6069D01*
X6840D01*
X6845Y6065D01*
Y6025D01*
X6840Y6021D01*
X6740D01*
X6724Y6018D01*
X6711Y6009D01*
X6702Y5996D01*
X6699Y5980D01*
Y5920D01*
X6702Y5904D01*
X6711Y5891D01*
X6724Y5882D01*
X6740Y5879D01*
X6840D01*
X6856Y5882D01*
X6869Y5891D01*
X6873Y5897D01*
X6890Y5901D01*
X6908Y5912D01*
X6925Y5929D01*
X6942Y5912D01*
X6960Y5901D01*
X6966Y5899D01*
X6971Y5891D01*
X6984Y5882D01*
X7000Y5879D01*
X7100D01*
X7116Y5882D01*
X7129Y5891D01*
X7138Y5904D01*
X7141Y5920D01*
Y5980D01*
X7138Y5996D01*
X7129Y6009D01*
X7125Y6011D01*
X7126Y6015D01*
Y6032D01*
X7050D01*
Y6058D01*
X7126D01*
Y6075D01*
X7125Y6079D01*
X7129Y6081D01*
X7138Y6094D01*
X7141Y6110D01*
Y6155D01*
X7191Y6205D01*
X7202Y6223D01*
X7207Y6243D01*
Y6483D01*
X7224D01*
X7240Y6486D01*
X7253Y6495D01*
X7262Y6508D01*
X7265Y6524D01*
Y6666D01*
X7262Y6682D01*
X7253Y6695D01*
X7240Y6704D01*
X7224Y6707D01*
X7082D01*
X7066Y6704D01*
X7053Y6695D01*
X7044Y6682D01*
X7041Y6666D01*
Y6524D01*
X7044Y6508D01*
X7053Y6495D01*
X7066Y6486D01*
X7082Y6483D01*
X7099D01*
Y6439D01*
X7088Y6433D01*
X7082Y6438D01*
X7055Y6449D01*
X7026Y6453D01*
X6997Y6449D01*
X6970Y6438D01*
X6964Y6433D01*
X6953Y6439D01*
Y6497D01*
X6955Y6498D01*
X6978Y6516D01*
X6996Y6539D01*
X7007Y6566D01*
X7011Y6595D01*
X7007Y6624D01*
X6996Y6651D01*
X6978Y6674D01*
X6955Y6692D01*
X6928Y6703D01*
X6899Y6707D01*
D02*
G37*
G36*
X6277Y6437D02*
Y6354D01*
X6360D01*
X6358Y6366D01*
X6348Y6390D01*
X6333Y6410D01*
X6313Y6425D01*
X6289Y6435D01*
X6277Y6437D01*
D02*
G37*
G36*
X6543Y5864D02*
Y5803D01*
X6604D01*
X6603Y5810D01*
X6596Y5828D01*
X6584Y5844D01*
X6568Y5856D01*
X6550Y5863D01*
X6543Y5864D01*
D02*
G37*
G36*
X5377Y4674D02*
X5368Y4673D01*
X5347Y4665D01*
X5329Y4651D01*
X5315Y4633D01*
X5307Y4612D01*
X5306Y4603D01*
X5377D01*
Y4674D01*
D02*
G37*
G36*
X5403D02*
Y4603D01*
X5474D01*
X5473Y4612D01*
X5465Y4633D01*
X5451Y4651D01*
X5433Y4665D01*
X5412Y4673D01*
X5403Y4674D01*
D02*
G37*
G36*
X5913Y4444D02*
Y4373D01*
X5984D01*
X5983Y4382D01*
X5975Y4403D01*
X5961Y4421D01*
X5943Y4435D01*
X5922Y4443D01*
X5913Y4444D01*
D02*
G37*
G36*
X5887D02*
X5878Y4443D01*
X5857Y4435D01*
X5839Y4421D01*
X5825Y4403D01*
X5817Y4382D01*
X5816Y4373D01*
X5887D01*
Y4444D01*
D02*
G37*
G36*
X6391Y6707D02*
X6362Y6703D01*
X6335Y6692D01*
X6312Y6674D01*
X6294Y6651D01*
X6283Y6624D01*
X6279Y6595D01*
X6283Y6566D01*
X6294Y6539D01*
X6312Y6516D01*
X6335Y6498D01*
X6362Y6487D01*
X6391Y6483D01*
X6420Y6487D01*
X6447Y6498D01*
X6470Y6516D01*
X6488Y6539D01*
X6499Y6566D01*
X6503Y6595D01*
X6499Y6624D01*
X6488Y6651D01*
X6470Y6674D01*
X6447Y6692D01*
X6420Y6703D01*
X6391Y6707D01*
D02*
G37*
G36*
X6887Y4474D02*
X6878Y4473D01*
X6857Y4465D01*
X6839Y4451D01*
X6825Y4433D01*
X6817Y4412D01*
X6816Y4403D01*
X6887D01*
Y4474D01*
D02*
G37*
G36*
X6913D02*
Y4403D01*
X6984D01*
X6983Y4412D01*
X6975Y4433D01*
X6961Y4451D01*
X6943Y4465D01*
X6922Y4473D01*
X6913Y4474D01*
D02*
G37*
G36*
X767Y4589D02*
X679D01*
Y4527D01*
X681Y4517D01*
X687Y4509D01*
X695Y4503D01*
X705Y4501D01*
X767D01*
Y4589D01*
D02*
G37*
%LPD*%
D10*
X375Y3440D02*
D03*
X205D02*
D03*
X405Y2870D02*
D03*
X235D02*
D03*
X385Y3820D02*
D03*
X215D02*
D03*
X385Y4350D02*
D03*
X215D02*
D03*
X405Y3020D02*
D03*
X235D02*
D03*
X545Y4570D02*
D03*
X375D02*
D03*
X4055Y2360D02*
D03*
X3885D02*
D03*
X4155Y1120D02*
D03*
X4325D02*
D03*
X4495D02*
D03*
X4665D02*
D03*
X4865Y6730D02*
D03*
X5035D02*
D03*
X595Y3320D02*
D03*
X765D02*
D03*
X7645Y6190D02*
D03*
X7475D02*
D03*
X3315Y3720D02*
D03*
X3145D02*
D03*
D11*
X1840Y3400D02*
D03*
Y3230D02*
D03*
X990Y2305D02*
D03*
Y2135D02*
D03*
X2760Y3400D02*
D03*
Y3230D02*
D03*
X4010Y1115D02*
D03*
Y1285D02*
D03*
X3860Y1745D02*
D03*
Y1915D02*
D03*
X2763Y3735D02*
D03*
Y3565D02*
D03*
X3920Y685D02*
D03*
Y515D02*
D03*
X160Y1425D02*
D03*
Y1595D02*
D03*
X830Y2265D02*
D03*
Y2095D02*
D03*
X3570Y4040D02*
D03*
Y4210D02*
D03*
D14*
X1815Y6055D02*
D03*
Y6245D02*
D03*
X6850Y7365D02*
D03*
Y7175D02*
D03*
X6610Y7365D02*
D03*
Y7175D02*
D03*
X2600Y6235D02*
D03*
Y6045D02*
D03*
D30*
X8360Y5538D02*
D03*
X7660D02*
D03*
X8360Y4858D02*
D03*
X7660D02*
D03*
D34*
X1885Y4917D02*
D03*
X2075D02*
D03*
X2725Y6570D02*
D03*
X2915D02*
D03*
D36*
X2850Y2500D02*
D03*
X2570D02*
D03*
X2200Y2700D02*
D03*
X2480D02*
D03*
X3590Y1460D02*
D03*
X3870D02*
D03*
D37*
X3580Y2290D02*
D03*
Y2570D02*
D03*
Y1720D02*
D03*
Y2000D02*
D03*
D39*
X2054Y7457D02*
D03*
X2246D02*
D03*
Y7662D02*
D03*
D40*
X2074D02*
D03*
D43*
X4219Y1679D02*
D03*
X4347D02*
D03*
X4474D02*
D03*
X4601D02*
D03*
Y2221D02*
D03*
X4474D02*
D03*
X4347D02*
D03*
X4219D02*
D03*
X3059Y4461D02*
D03*
X3186D02*
D03*
X3313D02*
D03*
X3440D02*
D03*
Y3919D02*
D03*
X3313D02*
D03*
X3186D02*
D03*
X3059D02*
D03*
D44*
X1901Y4276D02*
D03*
X1766Y4411D02*
D03*
D50*
X3324Y3869D02*
X3514D01*
X3324D02*
Y4411D01*
X2620Y3720D02*
X2880D01*
X2540Y2540D02*
Y2700D01*
Y2540D02*
X2600Y2480D01*
X570Y2380D02*
X600Y2410D01*
X940D02*
X1000Y2350D01*
X600Y2410D02*
X940D01*
X405Y2840D02*
X445Y2880D01*
X490D01*
X530Y2920D01*
Y3120D01*
X4440Y1050D02*
Y1503D01*
X3840Y400D02*
X4220D01*
X4350Y530D01*
X3660Y580D02*
X3840Y400D01*
X4380Y1120D02*
Y1510D01*
X4347Y1098D02*
X4370Y1120D01*
X4240Y990D02*
X4347Y1098D01*
X2760Y640D02*
X3945D01*
X2400Y1112D02*
Y1150D01*
X3930Y310D02*
X4000Y240D01*
X2480Y310D02*
X3930D01*
X2090Y700D02*
X2480Y310D01*
X4249Y240D02*
X4469Y460D01*
X4000Y240D02*
X4249D01*
X4180Y637D02*
X4200Y657D01*
X4058Y515D02*
X4180Y637D01*
X3920Y515D02*
X4058D01*
X5390Y7510D02*
X5730Y7170D01*
Y6610D02*
Y7170D01*
X4910Y5790D02*
X5730Y6610D01*
X5620Y6680D02*
Y6720D01*
X5530Y6590D02*
X5620Y6680D01*
X5730Y200D02*
Y260D01*
X3040Y3110D02*
X3050Y3120D01*
X3030Y3100D02*
X3040Y3110D01*
X3815Y1960D02*
X4010D01*
X5197Y237D02*
X5227D01*
X4650Y200D02*
X5190Y740D01*
X340Y3455D02*
X395Y3510D01*
Y3655D01*
X3700Y2800D02*
X4126Y2374D01*
X500Y3400D02*
X600Y3300D01*
X2042Y4925D02*
X2145D01*
X990Y2590D02*
X1460Y2120D01*
X345Y3785D02*
Y3960D01*
X360Y4190D02*
Y4360D01*
X1550Y3840D02*
X1840Y3550D01*
Y3400D02*
Y3550D01*
X1810Y3200D02*
X1840Y3230D01*
X1810Y3030D02*
Y3200D01*
X4190Y3670D02*
Y3800D01*
X3740Y4250D02*
X4190Y3800D01*
X3710Y4250D02*
X3740D01*
X4330Y3530D02*
X4520D01*
X4190Y3670D02*
X4330Y3530D01*
X4520D02*
X4560Y3490D01*
X5690D01*
X2900Y4500D02*
X3020Y4620D01*
X2900Y4410D02*
Y4500D01*
X3020Y4620D02*
X3380D01*
X3440Y4560D01*
Y4461D02*
Y4560D01*
X3315Y3685D02*
Y3720D01*
X3190Y3560D02*
X3315Y3685D01*
X3190Y3270D02*
Y3560D01*
X3440Y4360D02*
Y4461D01*
X3186Y3762D02*
Y3919D01*
X3313Y3722D02*
Y3919D01*
X1091Y4730D02*
X1451Y5090D01*
X670Y4730D02*
X1091D01*
X3570Y3925D02*
Y4040D01*
X3440Y4360D02*
X3550Y4250D01*
X3514Y3869D02*
X3570Y3925D01*
X3313Y3722D02*
X3315Y3720D01*
X4370Y1120D02*
X4380D01*
X4140Y890D02*
X4240Y990D01*
X3960Y710D02*
X4140Y890D01*
X3930Y710D02*
X3960D01*
X4770Y460D02*
X5100Y790D01*
X4435Y1045D02*
X4440Y1050D01*
X4435Y1037D02*
Y1045D01*
X4440Y1503D02*
X4474Y1536D01*
X1980Y2720D02*
X2080Y2820D01*
X1830Y2720D02*
X1980D01*
X1740Y2630D02*
X1830Y2720D01*
X395Y3655D02*
X410D01*
X880Y3210D02*
X1230Y3560D01*
X880Y2620D02*
Y3210D01*
X4620Y2500D02*
X5290Y1830D01*
X4230Y2500D02*
X4620D01*
X3760Y2970D02*
X4230Y2500D01*
X4650Y2570D02*
X5400Y1820D01*
X4260Y2570D02*
X4650D01*
X3715Y3115D02*
X4260Y2570D01*
X4580Y2440D02*
X5190Y1830D01*
X4170Y2440D02*
X4580D01*
X3750Y2860D02*
X4170Y2440D01*
X4010Y1960D02*
X4219Y2169D01*
X3740Y2035D02*
X3815Y1960D01*
X4219Y2169D02*
Y2221D01*
X5100Y790D02*
Y1790D01*
X4669Y2221D02*
X5100Y1790D01*
X4601Y2221D02*
X4669D01*
X5190Y740D02*
Y1830D01*
X1540Y4860D02*
X1570D01*
X1250Y5180D02*
X1740Y5670D01*
X1089Y4870D02*
X1479Y5260D01*
X1100Y4810D02*
X1455Y5165D01*
X1451Y5090D02*
X1580D01*
X970Y4870D02*
X1089D01*
X806Y4810D02*
X1100D01*
X930Y5370D02*
X1470Y5910D01*
X930Y5250D02*
Y5370D01*
X910Y5230D02*
X930Y5250D01*
X1455Y5165D02*
X2205D01*
X1580Y5090D02*
X1752Y4917D01*
X1885D01*
X1479Y5260D02*
X2100D01*
X790Y4826D02*
X806Y4810D01*
X910Y4930D02*
X970Y4870D01*
X910Y4930D02*
Y5020D01*
X850Y5080D02*
X910Y5020D01*
X790Y5080D02*
X850D01*
X1010Y4980D02*
Y5360D01*
X1500Y5850D01*
X2360Y750D02*
Y920D01*
X2650Y750D02*
Y890D01*
X2428Y1112D02*
X2650Y890D01*
X2400Y1112D02*
X2428D01*
X2369D02*
X2400D01*
X2520Y1270D02*
X2740D01*
X2400Y1150D02*
X2520Y1270D01*
X2168Y1112D02*
X2360Y920D01*
X2092Y1112D02*
X2168D01*
X1530Y1680D02*
X1540D01*
X1770D02*
X1794D01*
X1540Y2120D02*
X1660Y2000D01*
X1120Y5270D02*
Y5290D01*
X1620Y5790D01*
X3290D01*
X1400Y1810D02*
X1530Y1680D01*
X1210Y1810D02*
X1400D01*
X1160Y1860D02*
X1210Y1810D01*
X1740Y5670D02*
X3540D01*
X1470Y5910D02*
X1970D01*
X1500Y5850D02*
X2350D01*
X3540Y5670D02*
X3750Y5880D01*
X3290Y5790D02*
X3410Y5910D01*
X2350Y5850D02*
X2417Y5917D01*
X1970Y5910D02*
X2036Y5976D01*
X2958Y2182D02*
X3146D01*
X2820Y2320D02*
X2958Y2182D01*
X2600Y2309D02*
Y2480D01*
X4610Y5790D02*
X4910D01*
X2600Y2055D02*
X2665D01*
X2255Y6686D02*
X2290Y6652D01*
X2205Y5165D02*
X2210Y5170D01*
X3460Y1460D02*
X3570D01*
Y1710D02*
X3580Y1720D01*
X3319Y2309D02*
X3580Y2570D01*
X2599Y1800D02*
X2600Y1801D01*
X1660Y1790D02*
Y2000D01*
Y1790D02*
X1770Y1680D01*
X3246Y1674D02*
X3460Y1460D01*
X3508Y1928D02*
X3580Y2000D01*
X3345Y2055D02*
X3580Y2290D01*
X3430Y1710D02*
X3570D01*
X3339Y1801D02*
X3430Y1710D01*
X2594Y1680D02*
X2600Y1674D01*
X3146D02*
X3246D01*
X3146Y1928D02*
X3508D01*
X3146Y1801D02*
X3339D01*
X3146Y2309D02*
X3319D01*
X3146Y2055D02*
X3345D01*
X6133Y7520D02*
X6455D01*
X6610Y7365D01*
X2163Y6652D02*
X2200Y6689D01*
X2163Y6540D02*
Y6652D01*
X2290Y6540D02*
Y6652D01*
X2210Y7193D02*
X2231Y7172D01*
X2210Y7193D02*
Y7442D01*
X2226Y7457D01*
X2036Y5976D02*
Y6068D01*
X2417Y5917D02*
Y6068D01*
X2290Y6460D02*
Y6540D01*
Y6460D02*
X2350Y6400D01*
X2784D01*
X2820Y6364D01*
X2095Y6975D02*
Y7396D01*
X2163Y6417D02*
Y6540D01*
Y6417D02*
X2350Y6230D01*
X2575D01*
X2657Y1056D02*
Y1097D01*
X2500Y1800D02*
X2599D01*
X2500Y1680D02*
X2594D01*
X2450Y1850D02*
X2500Y1800D01*
X2390Y1790D02*
X2500Y1680D01*
X2670Y4740D02*
X2970Y5040D01*
Y5140D01*
X2720Y5390D02*
X2970Y5140D01*
X2145Y4925D02*
X2610Y5390D01*
X2720D01*
X2390Y1790D02*
Y1900D01*
X2450Y1850D02*
Y1920D01*
X940Y4098D02*
X1230Y3808D01*
X3600Y6450D02*
X4380D01*
X3750Y5880D02*
Y6120D01*
X2092Y6868D02*
X2200Y6760D01*
Y6689D02*
Y6760D01*
X2231Y6829D02*
Y7172D01*
Y6829D02*
X2255Y6805D01*
Y6686D02*
Y6805D01*
X2092Y6868D02*
Y6888D01*
Y6943D01*
X1290Y3520D02*
Y3819D01*
X1230Y3560D02*
Y3808D01*
X3050Y3120D02*
X3050Y3120D01*
X3030Y3120D02*
X3050D01*
X3040Y3110D02*
X3045Y3115D01*
X4347Y2221D02*
Y2374D01*
X4474Y2221D02*
Y2326D01*
X4426Y2374D02*
X4474Y2326D01*
X4347Y2374D02*
X4426D01*
X4474Y1536D02*
Y1679D01*
X2600Y1928D02*
X2682D01*
X4126Y2374D02*
X4347D01*
X2740Y2910D02*
X2850Y2800D01*
X2890Y2950D02*
X2980Y2860D01*
X2740Y2740D02*
X3660D01*
X3740Y2035D02*
Y2660D01*
X3660Y2740D02*
X3740Y2660D01*
X1740Y2630D02*
X2450Y1920D01*
X2660Y2820D02*
X2740Y2740D01*
X2080Y2820D02*
X2660D01*
X2850Y2800D02*
X3700D01*
X2980Y2860D02*
X3750D01*
X3040Y2970D02*
X3760D01*
X3045Y3115D02*
X3715D01*
X2920Y1360D02*
Y1800D01*
X2665Y2055D02*
X2920Y1800D01*
X2682Y1928D02*
X2850Y1760D01*
X2740Y1270D02*
X2850Y1380D01*
Y1760D01*
X2600Y1674D02*
X2726D01*
X2760Y1640D01*
Y1391D02*
Y1640D01*
X2709Y1340D02*
X2760Y1391D01*
X1950Y1040D02*
Y1180D01*
Y1040D02*
X2090Y900D01*
Y700D02*
Y900D01*
X1950Y1180D02*
X2012Y1243D01*
X2320D01*
X2417Y1340D01*
X2709D01*
X520Y5080D02*
X650Y4950D01*
Y4750D02*
Y4950D01*
Y4750D02*
X670Y4730D01*
X4375Y6915D02*
Y7080D01*
X4380Y6450D02*
X4520Y6590D01*
X5530D01*
X4830Y6765D02*
Y7015D01*
X4765Y7080D02*
X4830Y7015D01*
X4690Y6730D02*
X4865D01*
X4830Y6765D02*
X4865Y6730D01*
X4347Y1544D02*
Y1679D01*
Y1544D02*
X4380Y1510D01*
X2360Y750D02*
X2530Y580D01*
X3660D01*
X2650Y750D02*
X2760Y640D01*
X4469Y460D02*
X4770D01*
X4350Y530D02*
Y952D01*
X4435Y1037D01*
X6075Y7578D02*
X6133Y7520D01*
X2044Y7447D02*
X2095Y7396D01*
X2575Y6230D02*
X2595Y6250D01*
X2412Y6570D02*
X2725D01*
X2880Y3720D02*
X2900Y3700D01*
X2657Y1097D02*
X2920Y1360D01*
X3570Y1460D02*
X3580Y1450D01*
X2820Y2320D02*
Y2540D01*
X4200Y6620D02*
X4260Y6560D01*
X740Y2540D02*
X800Y2480D01*
X740Y2540D02*
Y2660D01*
X990Y3220D02*
X1290Y3520D01*
X990Y2590D02*
Y3220D01*
X1460Y2120D02*
X1540D01*
X800Y2480D02*
X1000D01*
X1160Y2320D01*
Y1860D02*
Y2320D01*
X1000Y2315D02*
Y2350D01*
X1410Y2880D02*
X2390Y1900D01*
X1410Y2880D02*
Y3210D01*
X1520Y2850D02*
X1740Y2630D01*
X1520Y2850D02*
Y3350D01*
X930Y4470D02*
X1430Y4970D01*
X1470D01*
X745Y4285D02*
X1045Y4585D01*
X820Y4110D02*
Y4270D01*
X1250Y4700D01*
X1380D01*
X1540Y4860D01*
X1290Y4580D02*
X1310D01*
X940Y4098D02*
Y4180D01*
X5227Y237D02*
X5290Y300D01*
Y1830D01*
X5400Y590D02*
Y1820D01*
Y590D02*
X5730Y260D01*
X600Y2800D02*
X740Y2660D01*
X600Y2800D02*
Y3300D01*
X340Y3090D02*
Y3280D01*
Y3090D02*
X400Y3030D01*
X480Y3170D02*
X530Y3120D01*
X610Y3540D02*
X745Y3675D01*
X610Y3500D02*
Y3540D01*
X500Y3400D02*
Y3590D01*
X590Y3680D01*
X1120Y3989D02*
X1290Y3819D01*
X1120Y3989D02*
Y4410D01*
X1290Y4580D01*
X1240Y3970D02*
X1370Y3840D01*
X1550D01*
X1240Y3970D02*
Y4270D01*
X345Y4375D02*
X360Y4360D01*
X540Y4575D02*
X545Y4570D01*
X505Y4575D02*
X540D01*
X545Y4495D02*
Y4570D01*
Y4495D02*
X745Y4295D01*
Y3675D02*
Y4285D01*
Y4295D01*
X590Y3680D02*
Y4230D01*
X440Y4110D02*
X440D01*
X360Y4190D02*
X440Y4110D01*
X4200Y6620D02*
Y7410D01*
X4270Y7480D01*
Y7500D01*
X1120Y3600D02*
Y3810D01*
X820Y4110D02*
X1120Y3810D01*
D51*
X985Y2120D02*
X1000Y2135D01*
X192Y2098D02*
X830D01*
X190Y2100D02*
X192Y2098D01*
X830Y2095D02*
Y2098D01*
X650Y1700D02*
X1050Y1300D01*
X480Y1700D02*
X650D01*
X380Y1800D02*
X480Y1700D01*
X1050Y1300D02*
X2300D01*
X1090Y1350D02*
X2270D01*
X640Y1800D02*
X1090Y1350D01*
X580Y1800D02*
X640D01*
Y1900D02*
X1130Y1410D01*
X380Y2000D02*
X480Y1900D01*
X640D01*
X1130Y1410D02*
X2260D01*
X815Y2240D02*
X840Y2265D01*
X380Y2200D02*
Y2230D01*
X450Y2300D01*
X795D01*
X830Y2265D01*
X855Y2120D02*
X985D01*
X830Y2095D02*
X855Y2120D01*
X2915Y6572D02*
X3258Y6230D01*
X5970Y3680D02*
X6217Y3927D01*
X7010Y4240D02*
X7110Y4340D01*
X3320Y4800D02*
X3340Y4780D01*
X2330Y1770D02*
Y1870D01*
X2275Y1741D02*
Y1845D01*
X2210Y1730D02*
Y1820D01*
X2200Y3040D02*
Y3180D01*
X1950Y2790D02*
X2200Y3040D01*
X1670Y2790D02*
X1950D01*
X1920Y2850D02*
X2130Y3060D01*
X1710Y2850D02*
X1920D01*
X1630Y2930D02*
X1710Y2850D01*
X2130Y3060D02*
Y3330D01*
X2020Y3050D02*
Y3300D01*
X1870Y2900D02*
X2020Y3050D01*
X1760Y2900D02*
X1870D01*
X1690Y2970D02*
X1760Y2900D01*
X1690Y2970D02*
Y3090D01*
X1630Y3100D02*
X1680Y3150D01*
X1630Y2930D02*
Y3100D01*
X1690Y3090D02*
X1730Y3130D01*
X6212Y3932D02*
X6217Y3927D01*
X6201Y3944D02*
X6212Y3932D01*
X4457Y3680D02*
X5970D01*
X6190Y3910D02*
Y3910D01*
X6212Y3933D01*
X6480Y3880D02*
X6500Y3900D01*
X6235Y3635D02*
X6480Y3880D01*
X4439Y3635D02*
X6235D01*
X6201Y3944D02*
X6212Y3933D01*
X3905Y5595D02*
X4530Y4970D01*
Y4770D02*
Y4970D01*
Y4770D02*
X5110Y4190D01*
X5070Y4140D02*
X7250D01*
X4470Y4740D02*
X5070Y4140D01*
X4470Y4740D02*
Y4950D01*
X5110Y4190D02*
X7140D01*
X7250Y4140D02*
X7320Y4210D01*
X7140Y4190D02*
X7200Y4250D01*
Y4740D01*
X7200Y4740D01*
X2970Y4310D02*
X3059Y4399D01*
X2770Y4310D02*
X2970D01*
X2670Y4410D02*
X2770Y4310D01*
X3059Y4399D02*
Y4461D01*
X3870Y5550D02*
X4470Y4950D01*
X2545Y5595D02*
X3905D01*
X3650Y4950D02*
X4190D01*
X3590Y5010D02*
X3650Y4950D01*
X3270Y5010D02*
X3590D01*
X3059Y4810D02*
X3270Y5010D01*
X3059Y4810D02*
X3069Y4820D01*
X2670Y4410D02*
X3059Y4810D01*
X2560Y4410D02*
X2670D01*
X3180Y4160D02*
Y4395D01*
X3197Y4411D01*
X3059Y3919D02*
X3060Y3919D01*
Y4260D01*
X3375Y4728D02*
X4260Y3843D01*
X3420Y4750D02*
X4305Y3865D01*
X4260Y3750D02*
Y3843D01*
X4305Y3769D02*
Y3865D01*
X2350Y3790D02*
X2470Y3910D01*
X2350Y3550D02*
Y3790D01*
X2470Y3450D02*
Y3710D01*
X2130Y3330D02*
X2350Y3550D01*
X2200Y3180D02*
X2470Y3450D01*
X3145Y3720D02*
X3186Y3762D01*
X2300Y1300D02*
X2440Y1440D01*
Y1660D01*
X2330Y1770D02*
X2440Y1660D01*
X2275Y1741D02*
X2380Y1636D01*
Y1460D02*
Y1636D01*
X2270Y1350D02*
X2380Y1460D01*
X2320Y1470D02*
Y1620D01*
X2260Y1410D02*
X2320Y1470D01*
X2210Y1730D02*
X2320Y1620D01*
X3870Y1460D02*
Y1480D01*
X4601Y1540D02*
Y1679D01*
Y1540D02*
X4640Y1500D01*
X3880Y5830D02*
X4170Y5540D01*
X3880Y5830D02*
Y6150D01*
X4142Y5438D02*
X4590Y4990D01*
X4136Y5438D02*
X4142D01*
X4088Y5486D02*
X4136Y5438D01*
X4088Y5486D02*
Y5492D01*
X3880Y5700D02*
X4088Y5492D01*
X3750Y5700D02*
X3880D01*
X2470Y5430D02*
X2590Y5550D01*
X2470Y5390D02*
Y5430D01*
X2590Y5550D02*
X3870D01*
X2330Y5380D02*
X2545Y5595D01*
X2140Y6350D02*
X2290Y6200D01*
Y6068D02*
Y6200D01*
X6850Y7365D02*
X7065D01*
X2600Y6045D02*
X2755D01*
X3420Y4750D02*
Y4820D01*
X4350Y3787D02*
X4457Y3680D01*
X4350Y3787D02*
Y3890D01*
X4305Y3769D02*
X4439Y3635D01*
X4420Y3590D02*
X6420D01*
X4260Y3750D02*
X4420Y3590D01*
X3375Y4728D02*
Y4745D01*
X3480Y4760D02*
X4350Y3890D01*
X3480Y4760D02*
Y4920D01*
X3330Y4910D02*
X3420Y4820D01*
X3350Y4770D02*
X3375Y4745D01*
X3320Y4770D02*
X3350D01*
X7090Y4350D02*
X7100D01*
X7110Y4340D01*
X5142Y4240D02*
X7010D01*
X7320Y4210D02*
Y4520D01*
X7065Y7365D02*
X7342Y7642D01*
X3320Y4770D02*
Y4800D01*
X4950Y5150D02*
X4952Y5152D01*
X7065Y7590D02*
X7087Y7568D01*
X6270Y7590D02*
X7065D01*
X6160Y7700D02*
X6270Y7590D01*
X6303Y7745D02*
X6327Y7720D01*
X5940Y7630D02*
X6010Y7700D01*
X6160D01*
X5885Y7195D02*
X6130Y6950D01*
X5885Y7195D02*
Y7645D01*
X5985Y7745D01*
X6303D01*
X5940Y7490D02*
Y7630D01*
Y7490D02*
X5990Y7440D01*
X6290D01*
X6370Y7360D01*
X4952Y5152D02*
Y5492D01*
X5838Y6378D01*
X6370Y6910D01*
Y7360D01*
X4860Y5480D02*
X4880Y5500D01*
X5720Y6340D01*
X6130Y6760D01*
Y6950D01*
X2330Y5280D02*
Y5380D01*
X4590Y4792D02*
X5142Y4240D01*
X4590Y4792D02*
Y4990D01*
X3770Y3970D02*
Y4050D01*
X6420Y3590D02*
X6620Y3790D01*
X7026Y6144D02*
X7030Y6140D01*
X6518Y6341D02*
X6559D01*
X6760Y6140D01*
X6790D01*
X6800D01*
X6770Y5950D02*
X6790D01*
X6950Y6265D02*
X7026Y6341D01*
X6950Y5980D02*
Y6265D01*
Y5980D02*
X6980Y5950D01*
Y5950D02*
Y5950D01*
Y5950D02*
X7050D01*
X7153Y6243D02*
Y6595D01*
X7050Y6140D02*
X7153Y6243D01*
X6790Y5950D02*
X6870D01*
X6899Y5979D01*
Y6595D01*
X3258Y6230D02*
X3800D01*
X3880Y6150D01*
X3380Y3560D02*
Y3580D01*
X3770Y3970D01*
X3740Y1610D02*
X3870Y1480D01*
X1970Y6350D02*
X2140D01*
X1830Y6490D02*
Y6670D01*
Y6490D02*
X1970Y6350D01*
X7342Y7642D02*
Y7730D01*
X2755Y6045D02*
X2820Y6110D01*
X1440Y3600D02*
X1590D01*
X1730Y3460D01*
Y3130D02*
Y3460D01*
X1470Y3540D02*
X1570D01*
X1680Y3430D01*
Y3150D02*
Y3430D01*
X1570Y3470D02*
X1630Y3410D01*
Y3180D02*
Y3410D01*
X1480Y3470D02*
X1570D01*
X1300Y2900D02*
X2330Y1870D01*
X1300Y2900D02*
Y3290D01*
X1480Y3470D01*
X1240Y2880D02*
X2275Y1845D01*
X1240Y2880D02*
Y3310D01*
X1470Y3540D01*
X1180Y2850D02*
X2210Y1820D01*
X1180Y2850D02*
Y3340D01*
X1440Y3600D01*
X1570Y2890D02*
X1670Y2790D01*
X1570Y2890D02*
Y3120D01*
X1630Y3180D01*
D52*
X1815Y6250D02*
X2130D01*
X1810Y6245D02*
X1815Y6250D01*
X380Y1400D02*
X580D01*
X650D01*
X720Y1330D01*
Y880D02*
Y1330D01*
X7740Y6830D02*
X8190D01*
X7501Y852D02*
X7670D01*
X8280Y6670D02*
Y6740D01*
Y6630D02*
Y6670D01*
X8190Y6830D02*
X8280Y6740D01*
X6646Y6605D02*
Y7139D01*
X4620Y3260D02*
X6010D01*
X4420Y3460D02*
X4620Y3260D01*
X4220Y3460D02*
X4420D01*
X4130Y3550D02*
X4220Y3460D01*
X4590Y3170D02*
X5800D01*
X4380Y3380D02*
X4590Y3170D01*
X4120Y3380D02*
X4380D01*
X5800Y3170D02*
X5880Y3090D01*
X3770Y3730D02*
X4120Y3380D01*
X3720Y3730D02*
X3770D01*
X4840Y2680D02*
X6490Y1030D01*
X4430Y2680D02*
X4840D01*
X6590Y380D02*
X7030D01*
X6490Y480D02*
X6590Y380D01*
X6490Y480D02*
Y1030D01*
X1380Y620D02*
X1588Y828D01*
X1954D01*
X6610Y7175D02*
X6850D01*
X1585Y6245D02*
X1810D01*
X4975Y4955D02*
X5270Y5250D01*
X6020D01*
X1580Y6250D02*
X1585Y6245D01*
X2130Y6250D02*
X2163Y6217D01*
Y6068D02*
Y6217D01*
X6610Y7175D02*
X6646Y7139D01*
X7030Y380D02*
X7501Y852D01*
X720Y880D02*
X980Y620D01*
X1380D01*
D53*
X4660Y1130D02*
X4760D01*
X190Y4390D02*
X375Y4575D01*
X190Y4350D02*
Y4390D01*
Y3690D02*
Y4350D01*
X3345Y1295D02*
X4130D01*
X1215Y2635D02*
X1794Y2056D01*
X190Y2100D02*
Y3440D01*
X1794Y1928D02*
Y2056D01*
X190Y1585D02*
Y2100D01*
X7460Y4140D02*
Y6550D01*
X190Y1585D02*
X205Y1600D01*
X380D01*
X580D01*
X7740Y6830D02*
Y7680D01*
X7460Y6550D02*
X7740Y6830D01*
X1794Y1928D02*
X2192Y1530D01*
X2200D01*
X4760Y1130D02*
X4960Y930D01*
X4660Y1130D02*
X4810Y1280D01*
X780Y6650D02*
X810Y6680D01*
X780Y5364D02*
Y6650D01*
X3082Y7172D02*
X3780Y7870D01*
X2785Y7172D02*
X3082D01*
X7550Y7870D02*
X7740Y7680D01*
X2340Y2550D02*
X2480Y2690D01*
X4640Y1890D02*
X4810Y1720D01*
Y1280D02*
Y1720D01*
X4219Y1679D02*
Y1809D01*
X4300Y1890D01*
X4219Y1619D02*
Y1679D01*
X4130Y1530D02*
X4219Y1619D01*
X4300Y1890D02*
X4640D01*
X4130Y1475D02*
Y1530D01*
Y1295D02*
Y1475D01*
X4490Y3810D02*
Y4110D01*
X4210Y4390D02*
X4490Y4110D01*
X4150Y4390D02*
X4210D01*
X3860Y1745D02*
X4130Y1475D01*
X2924Y1112D02*
X3162D01*
X3345Y1295D01*
X2480Y2690D02*
Y2700D01*
X2340Y2550D02*
X2350Y2540D01*
Y2390D02*
Y2540D01*
X5700Y2380D02*
X7460Y4140D01*
X4375Y6915D02*
X4530Y6760D01*
X4765Y7080D02*
X4790Y7106D01*
X5230D01*
Y7430D02*
Y7870D01*
X3780D02*
X5230D01*
X7550D01*
X1115Y2635D02*
X1215D01*
X190Y3465D02*
Y3570D01*
X250Y3630D01*
X190Y3690D02*
X250Y3630D01*
X266Y4826D02*
X375Y4717D01*
Y4575D02*
Y4717D01*
D54*
X4490Y5570D02*
X4570Y5650D01*
X4490Y5260D02*
Y5570D01*
Y5260D02*
X4490Y5260D01*
X5010Y4540D02*
X5150Y4400D01*
X5390D01*
X4490Y5260D02*
X4650D01*
X5010Y4900D01*
Y4540D02*
Y4900D01*
D55*
X4060Y2970D02*
X4320D01*
X1412Y4040D02*
X1832Y4460D01*
X3680Y3350D02*
X4060Y2970D01*
X2540Y2940D02*
X2870Y3270D01*
X3190D02*
X3380D01*
X2870D02*
X3190D01*
X2142Y4443D02*
X2610Y3981D01*
Y3380D02*
Y3981D01*
X2340Y3110D02*
X2610Y3380D01*
X3560Y3350D02*
X3680D01*
X3460D02*
X3560D01*
X3380Y3270D02*
X3460Y3350D01*
X4320Y2970D02*
X4370Y2920D01*
X4480D01*
X1580Y6653D02*
X1816Y6888D01*
X1580Y6250D02*
Y6653D01*
X2340Y2940D02*
X2540D01*
X2340D02*
Y3110D01*
X2585Y5195D02*
X2650Y5260D01*
X2585Y4955D02*
Y5195D01*
X1832Y4460D02*
X2090D01*
X2585Y4955D01*
D57*
X6212Y680D02*
Y720D01*
Y347D02*
Y680D01*
Y347D02*
X6330Y230D01*
D58*
X770Y7030D02*
X1120D01*
X200Y4620D02*
X210D01*
X130Y4690D02*
X200Y4620D01*
X130Y4690D02*
Y6390D01*
X770Y7030D01*
D59*
X7660Y4858D02*
X7730Y4788D01*
Y4520D02*
Y4788D01*
X6470Y2810D02*
X7730Y4070D01*
Y4520D01*
X6768Y720D02*
Y1182D01*
X6470Y1480D02*
X6768Y1182D01*
X6470Y1480D02*
Y2810D01*
D60*
X8350Y4858D02*
Y6090D01*
D62*
X2830Y6093D02*
D03*
X780Y4602D02*
D03*
X520Y4826D02*
D03*
X4180Y637D02*
D03*
D63*
X2830Y6347D02*
D03*
X780Y5364D02*
D03*
Y5110D02*
D03*
Y4856D02*
D03*
X266Y5334D02*
D03*
X520D02*
D03*
X266Y5080D02*
D03*
X520D02*
D03*
X266Y4826D02*
D03*
X1032Y1681D02*
D03*
Y1935D02*
D03*
X1286Y1681D02*
D03*
Y1935D02*
D03*
X1540Y1681D02*
D03*
Y1935D02*
D03*
X1794Y1681D02*
D03*
X4180Y383D02*
D03*
D64*
X6330Y230D02*
D03*
X6584D02*
D03*
X5500D02*
D03*
X5754D02*
D03*
X4950D02*
D03*
X5204D02*
D03*
X4400D02*
D03*
X4654D02*
D03*
D65*
X8010Y3470D02*
D03*
Y3970D02*
D03*
D66*
X7153Y6595D02*
D03*
D67*
X7026Y6341D02*
D03*
X6899Y6595D02*
D03*
X6772Y6341D02*
D03*
X6645Y6595D02*
D03*
X6518Y6341D02*
D03*
X6391Y6595D02*
D03*
X6264Y6341D02*
D03*
D68*
X7341Y7720D02*
D03*
X7087Y7568D02*
D03*
X6327Y7720D02*
D03*
X6073Y7568D02*
D03*
D69*
X5921Y6925D02*
D03*
X7496D02*
D03*
D70*
X6137Y7230D02*
D03*
X7280D02*
D03*
D71*
X8150Y600D02*
D03*
X450Y7400D02*
D03*
Y600D02*
D03*
X8150Y7400D02*
D03*
D72*
X1794Y1935D02*
D03*
D73*
X8335Y6090D02*
D03*
Y4340D02*
D03*
D74*
X5050Y7500D02*
D03*
X4610D02*
D03*
X5620Y6720D02*
D03*
X6190Y3910D02*
D03*
X6480Y3880D02*
D03*
X7200Y4740D02*
D03*
X5690Y3490D02*
D03*
X2900Y4410D02*
D03*
X2880Y3920D02*
D03*
X4190Y4950D02*
D03*
X3180Y4160D02*
D03*
X3060Y4260D02*
D03*
X3710Y4250D02*
D03*
X2560Y4410D02*
D03*
X2470Y3910D02*
D03*
Y3710D02*
D03*
X3560Y3350D02*
D03*
X2200Y1530D02*
D03*
X410Y3655D02*
D03*
X2940Y2000D02*
D03*
X1570Y4860D02*
D03*
X1250Y5180D02*
D03*
X1470Y4970D02*
D03*
X1010Y4980D02*
D03*
X4180Y2810D02*
D03*
X1250Y6050D02*
D03*
X3950Y950D02*
D03*
X4640Y1500D02*
D03*
X1120Y5270D02*
D03*
X910Y5230D02*
D03*
X4170Y5540D02*
D03*
X3750Y5700D02*
D03*
X2470Y5390D02*
D03*
X2340Y2940D02*
D03*
X3410Y5910D02*
D03*
X4070Y2980D02*
D03*
X3600Y6450D02*
D03*
X4610Y5790D02*
D03*
X4060Y6900D02*
D03*
X3640Y4730D02*
D03*
X2100Y5260D02*
D03*
X2210Y5170D02*
D03*
X7090Y4350D02*
D03*
X7070Y5780D02*
D03*
X7320Y4520D02*
D03*
X6530Y5790D02*
D03*
X6040Y5650D02*
D03*
X6620Y3790D02*
D03*
X3320Y4770D02*
D03*
X3330Y4910D02*
D03*
X3480Y4920D02*
D03*
X4950Y5150D02*
D03*
X4860Y5480D02*
D03*
X6020Y5250D02*
D03*
X2330Y5280D02*
D03*
X3770Y4050D02*
D03*
X2670Y4740D02*
D03*
X2020Y3300D02*
D03*
X880Y2620D02*
D03*
X1810Y3030D02*
D03*
X4820Y7730D02*
D03*
X3750Y6120D02*
D03*
X3380Y3560D02*
D03*
X3030Y3120D02*
D03*
X2740Y2910D02*
D03*
X2890Y2950D02*
D03*
X3040Y2970D02*
D03*
X3740Y1610D02*
D03*
X2350Y2390D02*
D03*
X4530Y6760D02*
D03*
X4690Y6730D02*
D03*
X250Y3630D02*
D03*
X2900Y3700D02*
D03*
X4260Y6560D02*
D03*
X1520Y3350D02*
D03*
X1410Y3210D02*
D03*
X1310Y4580D02*
D03*
X940Y4180D02*
D03*
X340Y3280D02*
D03*
X480Y3170D02*
D03*
X610Y3500D02*
D03*
X345Y3960D02*
D03*
X1240Y4270D02*
D03*
X210Y4620D02*
D03*
X590Y4230D02*
D03*
X440Y4110D02*
D03*
X5020Y6890D02*
D03*
X4270Y7500D02*
D03*
X5390Y7510D02*
D03*
X990Y3490D02*
D03*
X1120Y3600D02*
D03*
D75*
Y970D02*
D03*
X3619D02*
D03*
Y7030D02*
D03*
X1120D02*
D03*
D76*
X2924Y1112D02*
D03*
X1816Y6888D02*
D03*
D77*
X2785Y828D02*
D03*
X2647Y1112D02*
D03*
X2508Y828D02*
D03*
X2369Y1112D02*
D03*
X2231Y828D02*
D03*
X2092Y1112D02*
D03*
X1954Y828D02*
D03*
X1816Y1112D02*
D03*
X1954Y7172D02*
D03*
X2092Y6888D02*
D03*
X2231Y7172D02*
D03*
X2369Y6888D02*
D03*
X2508Y7172D02*
D03*
X2647Y6888D02*
D03*
X2785Y7172D02*
D03*
X2924Y6888D02*
D03*
D78*
X580Y1200D02*
D03*
X380D02*
D03*
X580Y1400D02*
D03*
X380D02*
D03*
X580Y1600D02*
D03*
X380D02*
D03*
X580Y1800D02*
D03*
X380D02*
D03*
X580Y2000D02*
D03*
X380D02*
D03*
X580Y2200D02*
D03*
X380D02*
D03*
X580Y2400D02*
D03*
X380D02*
D03*
X580Y2600D02*
D03*
X380D02*
D03*
X7880Y6670D02*
D03*
X8280D02*
D03*
D79*
X7730Y4520D02*
D03*
D80*
X6010Y3260D02*
D03*
X4480Y2920D02*
D03*
X810Y6680D02*
D03*
X4430Y2680D02*
D03*
X4960Y930D02*
D03*
X6870Y2940D02*
D03*
X5070Y2720D02*
D03*
X5810Y1470D02*
D03*
X2010Y4110D02*
D03*
X730Y3020D02*
D03*
X4570Y5650D02*
D03*
X1412Y4040D02*
D03*
X1990Y2610D02*
D03*
X2650Y5260D02*
D03*
X4150Y5760D02*
D03*
X4130Y3550D02*
D03*
X6900Y4390D02*
D03*
X4490Y3810D02*
D03*
X3720Y3730D02*
D03*
X5390Y4400D02*
D03*
X4740Y6190D02*
D03*
X4150Y4390D02*
D03*
X3670Y5200D02*
D03*
X4490Y5260D02*
D03*
X5440Y5650D02*
D03*
X3940Y2110D02*
D03*
X7030Y5340D02*
D03*
X4970Y3840D02*
D03*
X1580Y6250D02*
D03*
X5900Y4360D02*
D03*
X5390Y4590D02*
D03*
X5700Y2380D02*
D03*
X5850Y3400D02*
D03*
X5880Y3090D02*
D03*
X1830Y6670D02*
D03*
X1115Y2635D02*
D03*
D81*
X6768Y680D02*
D03*
X6212D02*
D03*
D82*
X2417Y6068D02*
D03*
X2290D02*
D03*
X2163D02*
D03*
X2036D02*
D03*
Y6540D02*
D03*
X2163D02*
D03*
X2290D02*
D03*
X2417D02*
D03*
D83*
X7050Y5950D02*
D03*
Y6045D02*
D03*
Y6140D02*
D03*
X6790Y5950D02*
D03*
Y6140D02*
D03*
D84*
X2600Y1420D02*
D03*
X3146D02*
D03*
X2600Y1547D02*
D03*
Y1674D02*
D03*
X3146Y1547D02*
D03*
Y1674D02*
D03*
X2600Y1801D02*
D03*
X3146D02*
D03*
X2600Y1928D02*
D03*
X3146D02*
D03*
X2600Y2055D02*
D03*
Y2182D02*
D03*
X3146Y2055D02*
D03*
Y2182D02*
D03*
X2600Y2309D02*
D03*
X3146D02*
D03*
D85*
X1330Y2270D02*
D03*
X1450Y2390D02*
D03*
D86*
X4375Y7080D02*
D03*
X4765D02*
D03*
D87*
X7640Y1949D02*
D03*
D88*
Y850D02*
D03*
Y3047D02*
D03*
D89*
X5230Y7106D02*
D03*
Y7430D02*
D03*
M02*
