G04 Layer_Color=32896*
%FSLAX42Y42*%
%MOMM*%
G71*
G01*
G75*
%ADD93C,0.25*%
%ADD94C,0.15*%
D93*
X5Y9111D02*
X3795D01*
X4815D02*
X8605D01*
X5D02*
X157Y9162D01*
X5Y9111D02*
X157Y9061D01*
X8453Y9162D02*
X8605Y9111D01*
X8453Y9061D02*
X8605Y9111D01*
X5Y9086D02*
Y9137D01*
X8605Y9086D02*
Y9137D01*
X9259Y5D02*
Y3495D01*
Y4515D02*
Y8005D01*
X9208Y157D02*
X9259Y5D01*
X9309Y157D01*
X9208Y7853D02*
X9259Y8005D01*
X9309Y7853D01*
X9233Y5D02*
X9284D01*
X9233Y8005D02*
X9284D01*
D94*
X3820Y9147D02*
X3845Y9172D01*
X3896D01*
X3922Y9147D01*
Y9122D01*
X3896Y9096D01*
X3922Y9071D01*
Y9045D01*
X3896Y9020D01*
X3845D01*
X3820Y9045D01*
Y9071D01*
X3845Y9096D01*
X3820Y9122D01*
Y9147D01*
X3845Y9096D02*
X3896D01*
X4074Y9172D02*
X4023Y9147D01*
X3972Y9096D01*
Y9045D01*
X3998Y9020D01*
X4049D01*
X4074Y9045D01*
Y9071D01*
X4049Y9096D01*
X3972D01*
X4328Y9020D02*
X4277Y9071D01*
Y9122D01*
X4328Y9172D01*
X4404Y9020D02*
Y9122D01*
X4429D01*
X4455Y9096D01*
Y9020D01*
Y9096D01*
X4480Y9122D01*
X4506Y9096D01*
Y9020D01*
X4556D02*
Y9122D01*
X4582D01*
X4607Y9096D01*
Y9020D01*
Y9096D01*
X4633Y9122D01*
X4658Y9096D01*
Y9020D01*
X4709D02*
X4759Y9071D01*
Y9122D01*
X4709Y9172D01*
X9223Y3520D02*
X9198Y3545D01*
Y3596D01*
X9223Y3622D01*
X9248D01*
X9274Y3596D01*
X9299Y3622D01*
X9325D01*
X9350Y3596D01*
Y3545D01*
X9325Y3520D01*
X9299D01*
X9274Y3545D01*
X9248Y3520D01*
X9223D01*
X9274Y3545D02*
Y3596D01*
X9223Y3672D02*
X9198Y3698D01*
Y3749D01*
X9223Y3774D01*
X9325D01*
X9350Y3749D01*
Y3698D01*
X9325Y3672D01*
X9223D01*
X9350Y4028D02*
X9299Y3977D01*
X9248D01*
X9198Y4028D01*
X9350Y4104D02*
X9248D01*
Y4129D01*
X9274Y4155D01*
X9350D01*
X9274D01*
X9248Y4180D01*
X9274Y4206D01*
X9350D01*
Y4256D02*
X9248D01*
Y4282D01*
X9274Y4307D01*
X9350D01*
X9274D01*
X9248Y4333D01*
X9274Y4358D01*
X9350D01*
Y4409D02*
X9299Y4459D01*
X9248D01*
X9198Y4409D01*
M02*
