G04 Layer_Color=32896*
%FSLAX42Y42*%
%MOMM*%
G71*
G01*
G75*
%ADD52C,0.25*%
%ADD53C,0.30*%
%ADD54C,0.50*%
%ADD91C,0.20*%
%ADD93C,0.25*%
%ADD94C,0.15*%
%ADD95C,0.13*%
%ADD96C,0.15*%
%ADD98C,0.10*%
%ADD168C,0.24*%
%ADD169C,0.00*%
%ADD170C,0.20*%
%ADD171C,0.08*%
D52*
X8532Y4858D02*
G03*
X8532Y4858I-12J0D01*
G01*
Y5538D02*
G03*
X8532Y5538I-12J0D01*
G01*
X3480Y470D02*
Y340D01*
X3415D01*
X3393Y362D01*
Y448D01*
X3415Y470D01*
X3480D01*
X3285Y340D02*
X3328D01*
X3350Y362D01*
Y405D01*
X3328Y427D01*
X3285D01*
X3263Y405D01*
Y383D01*
X3350D01*
X3220Y340D02*
X3155D01*
X3133Y362D01*
X3155Y383D01*
X3198D01*
X3220Y405D01*
X3198Y427D01*
X3133D01*
X3090Y340D02*
X3047D01*
X3068D01*
Y427D01*
X3090D01*
X2939Y297D02*
X2917D01*
X2895Y318D01*
Y427D01*
X2960D01*
X2982Y405D01*
Y362D01*
X2960Y340D01*
X2895D01*
X2852D02*
Y427D01*
X2787D01*
X2765Y405D01*
Y340D01*
X2592Y470D02*
Y340D01*
X2527D01*
X2505Y362D01*
Y383D01*
Y405D01*
X2527Y427D01*
X2592D01*
X2462D02*
Y362D01*
X2440Y340D01*
X2375D01*
Y318D01*
X2397Y297D01*
X2419D01*
X2375Y340D02*
Y427D01*
X2115Y448D02*
X2137Y470D01*
X2180D01*
X2202Y448D01*
Y362D01*
X2180Y340D01*
X2137D01*
X2115Y362D01*
X2072Y340D02*
X2029D01*
X2050D01*
Y470D01*
X2072D01*
X1942Y340D02*
X1899D01*
X1877Y362D01*
Y405D01*
X1899Y427D01*
X1942D01*
X1964Y405D01*
Y362D01*
X1942Y340D01*
X1834Y427D02*
Y362D01*
X1812Y340D01*
X1791Y362D01*
X1769Y340D01*
X1747Y362D01*
Y427D01*
X1704Y340D02*
Y427D01*
X1639D01*
X1617Y405D01*
Y340D01*
X1574D02*
Y470D01*
X1531Y427D01*
X1487Y470D01*
Y340D01*
X1444D02*
X1401D01*
X1422D01*
Y427D01*
X1444D01*
X1336Y340D02*
Y470D01*
Y383D02*
X1271Y427D01*
X1336Y383D02*
X1271Y340D01*
D53*
X6253Y3713D02*
X6280Y3740D01*
X6333D01*
X6360Y3713D01*
Y3687D01*
X6333Y3660D01*
X6280D01*
X6253Y3633D01*
Y3607D01*
X6280Y3580D01*
X6333D01*
X6360Y3607D01*
X6173Y3580D02*
X6120D01*
X6093Y3607D01*
Y3660D01*
X6120Y3687D01*
X6173D01*
X6200Y3660D01*
Y3607D01*
X6173Y3580D01*
X5933Y3687D02*
X6013D01*
X6040Y3660D01*
Y3607D01*
X6013Y3580D01*
X5933D01*
X5880D02*
X5827D01*
X5853D01*
Y3687D01*
X5880D01*
X5720D02*
X5667D01*
X5640Y3660D01*
Y3580D01*
X5720D01*
X5747Y3607D01*
X5720Y3633D01*
X5640D01*
X5587Y3580D02*
X5534D01*
X5560D01*
Y3740D01*
X5587D01*
X5187Y3713D02*
X5214Y3740D01*
X5267D01*
X5294Y3713D01*
Y3687D01*
X5267Y3660D01*
X5214D01*
X5187Y3633D01*
Y3607D01*
X5214Y3580D01*
X5267D01*
X5294Y3607D01*
X5134Y3687D02*
Y3607D01*
X5107Y3580D01*
X5027D01*
Y3553D01*
X5054Y3527D01*
X5080D01*
X5027Y3580D02*
Y3687D01*
X4974Y3580D02*
X4894D01*
X4867Y3607D01*
X4894Y3633D01*
X4947D01*
X4974Y3660D01*
X4947Y3687D01*
X4867D01*
X4787Y3713D02*
Y3687D01*
X4814D01*
X4761D01*
X4787D01*
Y3607D01*
X4761Y3580D01*
X4601D02*
X4654D01*
X4681Y3607D01*
Y3660D01*
X4654Y3687D01*
X4601D01*
X4574Y3660D01*
Y3633D01*
X4681D01*
X4521Y3580D02*
Y3687D01*
X4494D01*
X4467Y3660D01*
Y3580D01*
Y3660D01*
X4441Y3687D01*
X4414Y3660D01*
Y3580D01*
X4361D02*
X4281D01*
X4254Y3607D01*
X4281Y3633D01*
X4334D01*
X4361Y3660D01*
X4334Y3687D01*
X4254D01*
X8210Y6880D02*
X8343D01*
X8277Y6947D02*
Y6813D01*
D54*
X7960Y4390D02*
X8120D01*
X8040Y4470D02*
Y4310D01*
D91*
X7644Y3294D02*
G03*
X7644Y3294I-14J0D01*
G01*
X6900Y6160D02*
G03*
X6940Y6160I20J0D01*
G01*
X3560Y1550D02*
X3900D01*
X3560Y1370D02*
X3900D01*
X3560Y1545D02*
Y1550D01*
X3770Y1545D02*
X3900D01*
X3560Y1370D02*
Y1375D01*
X3770D02*
X3900D01*
X3947Y1552D02*
Y1577D01*
X3930Y1565D02*
X3965D01*
X3490Y1690D02*
Y2030D01*
X3670Y1690D02*
Y2030D01*
X3490Y1690D02*
X3495D01*
Y1900D02*
Y2030D01*
X3665Y1690D02*
X3670D01*
X3665Y1900D02*
Y2030D01*
X3463Y2077D02*
X3488D01*
X3475Y2060D02*
Y2095D01*
X3490Y2260D02*
Y2600D01*
X3670Y2260D02*
Y2600D01*
X3490Y2260D02*
X3495D01*
Y2470D02*
Y2600D01*
X3665Y2260D02*
X3670D01*
X3665Y2470D02*
Y2600D01*
X3463Y2648D02*
X3488D01*
X3475Y2630D02*
Y2665D01*
X2170Y2790D02*
X2510D01*
X2170Y2610D02*
X2510D01*
X2170Y2785D02*
Y2790D01*
X2380Y2785D02*
X2510D01*
X2170Y2610D02*
Y2615D01*
X2380D02*
X2510D01*
X2558Y2792D02*
Y2817D01*
X2540Y2805D02*
X2575D01*
X6940Y6160D02*
X6965D01*
X6875D02*
X6900D01*
X6965Y5930D02*
Y6160D01*
X6875Y5930D02*
X6965D01*
X6875D02*
Y6160D01*
X2910Y2605D02*
X2945D01*
X2927Y2592D02*
Y2617D01*
X2750Y2415D02*
X2880D01*
X2540Y2410D02*
Y2415D01*
X2750Y2585D02*
X2880D01*
X2540D02*
Y2590D01*
Y2410D02*
X2880D01*
X2540Y2590D02*
X2880D01*
X7615Y4562D02*
Y4662D01*
Y4562D02*
X8405D01*
Y4662D01*
X7615Y5053D02*
Y5153D01*
X8405D01*
Y5053D02*
Y5153D01*
X7615Y5242D02*
Y5342D01*
Y5242D02*
X8405D01*
Y5342D01*
X7615Y5733D02*
Y5833D01*
X8405D01*
Y5733D02*
Y5833D01*
X6072Y480D02*
Y880D01*
X6253D01*
X6072Y480D02*
X6253D01*
X6728Y880D02*
X6907D01*
X6728Y480D02*
X6907D01*
Y880D01*
X6350Y520D02*
X6630D01*
X6350Y840D02*
X6630D01*
X4165Y1790D02*
Y2110D01*
Y1790D02*
X4655D01*
Y2110D01*
X4165D02*
X4655D01*
X4152Y2145D02*
Y2298D01*
X3001Y3850D02*
Y4349D01*
Y3850D02*
X3492D01*
Y4349D01*
X3001D02*
X3492D01*
X2989Y4384D02*
Y4536D01*
X3520Y3710D02*
X3640D01*
Y3770D01*
X3620Y3790D01*
X3580D01*
X3560Y3770D01*
Y3710D01*
Y3750D02*
X3520Y3790D01*
Y3910D02*
Y3830D01*
X3600Y3910D01*
X3620D01*
X3640Y3890D01*
Y3850D01*
X3620Y3830D01*
X3060Y3340D02*
X3080Y3360D01*
X3120D01*
X3140Y3340D01*
Y3260D01*
X3120Y3240D01*
X3080D01*
X3060Y3260D01*
X2940Y3240D02*
X3020D01*
X2940Y3320D01*
Y3340D01*
X2960Y3360D01*
X3000D01*
X3020Y3340D01*
X3536Y4770D02*
Y4650D01*
X3476D01*
X3456Y4670D01*
Y4750D01*
X3476Y4770D01*
X3536D01*
X3416Y4650D02*
X3376D01*
X3396D01*
Y4770D01*
X3416Y4750D01*
X5530Y7110D02*
X5450D01*
X5410Y7150D01*
X5450Y7190D01*
X5530D01*
Y7230D02*
X5410D01*
Y7290D01*
X5430Y7310D01*
X5510D01*
X5530Y7290D01*
Y7230D01*
X5410Y7410D02*
X5530D01*
X5470Y7350D01*
Y7430D01*
X4580Y7410D02*
X4660D01*
Y7350D01*
X4620D01*
X4660D01*
Y7290D01*
X4460D02*
X4540D01*
X4460Y7370D01*
Y7390D01*
X4480Y7410D01*
X4520D01*
X4540Y7390D01*
X4810Y880D02*
Y1000D01*
X4750D01*
X4730Y980D01*
Y940D01*
X4750Y920D01*
X4810D01*
X4770D02*
X4730Y880D01*
X4610D02*
X4690D01*
X4610Y960D01*
Y980D01*
X4630Y1000D01*
X4670D01*
X4690Y980D01*
X4490Y880D02*
X4570D01*
X4490Y960D01*
Y980D01*
X4510Y1000D01*
X4550D01*
X4570Y980D01*
X3810Y670D02*
X3690D01*
Y610D01*
X3710Y590D01*
X3750D01*
X3770Y610D01*
Y670D01*
Y630D02*
X3810Y590D01*
Y470D02*
Y550D01*
X3730Y470D01*
X3710D01*
X3690Y490D01*
Y530D01*
X3710Y550D01*
X3810Y430D02*
Y390D01*
Y410D01*
X3690D01*
X3710Y430D01*
X4400Y880D02*
Y1000D01*
X4340D01*
X4320Y980D01*
Y940D01*
X4340Y920D01*
X4400D01*
X4360D02*
X4320Y880D01*
X4200D02*
X4280D01*
X4200Y960D01*
Y980D01*
X4220Y1000D01*
X4260D01*
X4280Y980D01*
X4160D02*
X4140Y1000D01*
X4100D01*
X4080Y980D01*
Y900D01*
X4100Y880D01*
X4140D01*
X4160Y900D01*
Y980D01*
X4130Y2480D02*
Y2600D01*
X4070D01*
X4050Y2580D01*
Y2540D01*
X4070Y2520D01*
X4130D01*
X4090D02*
X4050Y2480D01*
X4010D02*
X3970D01*
X3990D01*
Y2600D01*
X4010Y2580D01*
X3910Y2480D02*
X3870D01*
X3890D01*
Y2600D01*
X3910Y2580D01*
X3980Y1690D02*
X4100D01*
Y1750D01*
X4080Y1770D01*
X4040D01*
X4020Y1750D01*
Y1690D01*
Y1730D02*
X3980Y1770D01*
Y1810D02*
Y1850D01*
Y1830D01*
X4100D01*
X4080Y1810D01*
Y1910D02*
X4100Y1930D01*
Y1970D01*
X4080Y1990D01*
X4000D01*
X3980Y1970D01*
Y1930D01*
X4000Y1910D01*
X4080D01*
X4950Y2010D02*
Y1890D01*
X4890D01*
X4870Y1910D01*
Y1990D01*
X4890Y2010D01*
X4950D01*
X4750D02*
X4790Y1990D01*
X4830Y1950D01*
Y1910D01*
X4810Y1890D01*
X4770D01*
X4750Y1910D01*
Y1930D01*
X4770Y1950D01*
X4830D01*
X4120Y1450D02*
X4100Y1470D01*
Y1510D01*
X4120Y1530D01*
X4200D01*
X4220Y1510D01*
Y1470D01*
X4200Y1450D01*
X4220Y1410D02*
Y1370D01*
Y1390D01*
X4100D01*
X4120Y1410D01*
Y1310D02*
X4100Y1290D01*
Y1250D01*
X4120Y1230D01*
X4200D01*
X4220Y1250D01*
Y1290D01*
X4200Y1310D01*
X4120D01*
X6670Y6100D02*
Y6020D01*
X6630Y5980D01*
X6590Y6020D01*
Y6100D01*
X6550D02*
Y5980D01*
X6490D01*
X6470Y6000D01*
Y6080D01*
X6490Y6100D01*
X6550D01*
X6430Y6080D02*
X6410Y6100D01*
X6370D01*
X6350Y6080D01*
Y6060D01*
X6370Y6040D01*
X6350Y6020D01*
Y6000D01*
X6370Y5980D01*
X6410D01*
X6430Y6000D01*
Y6020D01*
X6410Y6040D01*
X6430Y6060D01*
Y6080D01*
X6410Y6040D02*
X6370D01*
X3350Y2480D02*
X3330Y2500D01*
Y2540D01*
X3350Y2560D01*
X3430D01*
X3450Y2540D01*
Y2500D01*
X3430Y2480D01*
X3450Y2440D02*
Y2400D01*
Y2420D01*
X3330D01*
X3350Y2440D01*
X3330Y2340D02*
Y2260D01*
X3350D01*
X3430Y2340D01*
X3450D01*
X3330Y1930D02*
X3310Y1950D01*
Y1990D01*
X3330Y2010D01*
X3410D01*
X3430Y1990D01*
Y1950D01*
X3410Y1930D01*
X3430Y1890D02*
Y1850D01*
Y1870D01*
X3310D01*
X3330Y1890D01*
Y1790D02*
X3310Y1770D01*
Y1730D01*
X3330Y1710D01*
X3350D01*
X3370Y1730D01*
X3390Y1710D01*
X3410D01*
X3430Y1730D01*
Y1770D01*
X3410Y1790D01*
X3390D01*
X3370Y1770D01*
X3350Y1790D01*
X3330D01*
X3370Y1770D02*
Y1730D01*
X3480Y1350D02*
X3500Y1370D01*
X3540D01*
X3560Y1350D01*
Y1270D01*
X3540Y1250D01*
X3500D01*
X3480Y1270D01*
X3440Y1350D02*
X3420Y1370D01*
X3380D01*
X3360Y1350D01*
Y1330D01*
X3380Y1310D01*
X3400D01*
X3380D01*
X3360Y1290D01*
Y1270D01*
X3380Y1250D01*
X3420D01*
X3440Y1270D01*
X3320Y1250D02*
X3280D01*
X3300D01*
Y1370D01*
X3320Y1350D01*
X820Y3110D02*
Y3230D01*
X760D01*
X740Y3210D01*
Y3170D01*
X760Y3150D01*
X820D01*
X780D02*
X740Y3110D01*
X640D02*
Y3230D01*
X700Y3170D01*
X620D01*
X580Y3110D02*
X540D01*
X560D01*
Y3230D01*
X580Y3210D01*
X2550Y5680D02*
X2670D01*
Y5740D01*
X2650Y5760D01*
X2610D01*
X2590Y5740D01*
Y5680D01*
Y5720D02*
X2550Y5760D01*
X2570Y5800D02*
X2550Y5820D01*
Y5860D01*
X2570Y5880D01*
X2650D01*
X2670Y5860D01*
Y5820D01*
X2650Y5800D01*
X2630D01*
X2610Y5820D01*
Y5880D01*
X3260Y6510D02*
Y6630D01*
X3200D01*
X3180Y6610D01*
Y6570D01*
X3200Y6550D01*
X3260D01*
X3220D02*
X3180Y6510D01*
X3140Y6610D02*
X3120Y6630D01*
X3080D01*
X3060Y6610D01*
Y6590D01*
X3080Y6570D01*
X3100D01*
X3080D01*
X3060Y6550D01*
Y6530D01*
X3080Y6510D01*
X3120D01*
X3140Y6530D01*
X2220Y3470D02*
X2100D01*
Y3410D01*
X2120Y3390D01*
X2160D01*
X2180Y3410D01*
Y3470D01*
Y3430D02*
X2220Y3390D01*
Y3270D02*
Y3350D01*
X2140Y3270D01*
X2120D01*
X2100Y3290D01*
Y3330D01*
X2120Y3350D01*
X2200Y3230D02*
X2220Y3210D01*
Y3170D01*
X2200Y3150D01*
X2120D01*
X2100Y3170D01*
Y3210D01*
X2120Y3230D01*
X2140D01*
X2160Y3210D01*
Y3150D01*
X2310Y5890D02*
Y5770D01*
X2250D01*
X2230Y5790D01*
Y5870D01*
X2250Y5890D01*
X2310D01*
X2190Y5870D02*
X2170Y5890D01*
X2130D01*
X2110Y5870D01*
Y5850D01*
X2130Y5830D01*
X2150D01*
X2130D01*
X2110Y5810D01*
Y5790D01*
X2130Y5770D01*
X2170D01*
X2190Y5790D01*
X1840Y5760D02*
X1860Y5740D01*
Y5700D01*
X1840Y5680D01*
X1760D01*
X1740Y5700D01*
Y5740D01*
X1760Y5760D01*
X1840Y5800D02*
X1860Y5820D01*
Y5860D01*
X1840Y5880D01*
X1820D01*
X1800Y5860D01*
X1780Y5880D01*
X1760D01*
X1740Y5860D01*
Y5820D01*
X1760Y5800D01*
X1780D01*
X1800Y5820D01*
X1820Y5800D01*
X1840D01*
X1800Y5820D02*
Y5860D01*
X2870Y2740D02*
X2890Y2760D01*
X2930D01*
X2950Y2740D01*
Y2660D01*
X2930Y2640D01*
X2890D01*
X2870Y2660D01*
X2750Y2640D02*
X2830D01*
X2750Y2720D01*
Y2740D01*
X2770Y2760D01*
X2810D01*
X2830Y2740D01*
X2710D02*
X2690Y2760D01*
X2650D01*
X2630Y2740D01*
Y2720D01*
X2650Y2700D01*
X2670D01*
X2650D01*
X2630Y2680D01*
Y2660D01*
X2650Y2640D01*
X2690D01*
X2710Y2660D01*
X3210Y2550D02*
X3230Y2570D01*
X3270D01*
X3290Y2550D01*
Y2470D01*
X3270Y2450D01*
X3230D01*
X3210Y2470D01*
X3090Y2450D02*
X3170D01*
X3090Y2530D01*
Y2550D01*
X3110Y2570D01*
X3150D01*
X3170Y2550D01*
X3050D02*
X3030Y2570D01*
X2990D01*
X2970Y2550D01*
Y2470D01*
X2990Y2450D01*
X3030D01*
X3050Y2470D01*
Y2550D01*
X2570Y3570D02*
X2590Y3550D01*
Y3510D01*
X2570Y3490D01*
X2490D01*
X2470Y3510D01*
Y3550D01*
X2490Y3570D01*
X2470Y3690D02*
Y3610D01*
X2550Y3690D01*
X2570D01*
X2590Y3670D01*
Y3630D01*
X2570Y3610D01*
X2590Y3730D02*
Y3810D01*
X2570D01*
X2490Y3730D01*
X2470D01*
X2595Y3195D02*
X2615Y3175D01*
Y3135D01*
X2595Y3115D01*
X2515D01*
X2495Y3135D01*
Y3175D01*
X2515Y3195D01*
X2495Y3315D02*
Y3235D01*
X2575Y3315D01*
X2595D01*
X2615Y3295D01*
Y3255D01*
X2595Y3235D01*
X2495Y3415D02*
X2615D01*
X2555Y3355D01*
Y3435D01*
X2074Y4467D02*
X2102Y4467D01*
X2131Y4439D01*
X2131Y4411D01*
X2074Y4354D01*
X2046D01*
X2018Y4382D01*
Y4411D01*
X1919Y4481D02*
X1975Y4425D01*
Y4538D01*
X1989Y4552D01*
X2018Y4552D01*
X2046Y4524D01*
X2046Y4496D01*
X1890Y4510D02*
X1862Y4538D01*
X1876Y4524D01*
X1961Y4609D01*
X1961Y4580D01*
X4940Y6590D02*
X4960Y6610D01*
X5000D01*
X5020Y6590D01*
Y6510D01*
X5000Y6490D01*
X4960D01*
X4940Y6510D01*
X4900Y6490D02*
X4860D01*
X4880D01*
Y6610D01*
X4900Y6590D01*
X2410Y2160D02*
Y2040D01*
X2350D01*
X2330Y2060D01*
Y2140D01*
X2350Y2160D01*
X2410D01*
X2290Y2060D02*
X2270Y2040D01*
X2230D01*
X2210Y2060D01*
Y2140D01*
X2230Y2160D01*
X2270D01*
X2290Y2140D01*
Y2120D01*
X2270Y2100D01*
X2210D01*
X6670Y7050D02*
X6550D01*
Y6990D01*
X6570Y6970D01*
X6610D01*
X6630Y6990D01*
Y7050D01*
Y7010D02*
X6670Y6970D01*
X6550Y6930D02*
Y6850D01*
X6570D01*
X6650Y6930D01*
X6670D01*
X6570Y6810D02*
X6550Y6790D01*
Y6750D01*
X6570Y6730D01*
X6650D01*
X6670Y6750D01*
Y6790D01*
X6650Y6810D01*
X6570D01*
X6910Y7050D02*
X6790D01*
Y6990D01*
X6810Y6970D01*
X6850D01*
X6870Y6990D01*
Y7050D01*
Y7010D02*
X6910Y6970D01*
X6790Y6850D02*
X6810Y6890D01*
X6850Y6930D01*
X6890D01*
X6910Y6910D01*
Y6870D01*
X6890Y6850D01*
X6870D01*
X6850Y6870D01*
Y6930D01*
X6890Y6810D02*
X6910Y6790D01*
Y6750D01*
X6890Y6730D01*
X6810D01*
X6790Y6750D01*
Y6790D01*
X6810Y6810D01*
X6830D01*
X6850Y6790D01*
Y6730D01*
X1920Y7570D02*
Y7490D01*
X1880Y7450D01*
X1840Y7490D01*
Y7570D01*
X1800D02*
Y7450D01*
X1740D01*
X1720Y7470D01*
Y7550D01*
X1740Y7570D01*
X1800D01*
X1600D02*
X1680D01*
Y7510D01*
X1640Y7530D01*
X1620D01*
X1600Y7510D01*
Y7470D01*
X1620Y7450D01*
X1660D01*
X1680Y7470D01*
X7480Y5010D02*
Y4930D01*
X7440Y4890D01*
X7400Y4930D01*
Y5010D01*
X7360D02*
Y4890D01*
X7300D01*
X7280Y4910D01*
Y4990D01*
X7300Y5010D01*
X7360D01*
X7240Y4990D02*
X7220Y5010D01*
X7180D01*
X7160Y4990D01*
Y4970D01*
X7180Y4950D01*
X7200D01*
X7180D01*
X7160Y4930D01*
Y4910D01*
X7180Y4890D01*
X7220D01*
X7240Y4910D01*
X7480Y5610D02*
Y5530D01*
X7440Y5490D01*
X7400Y5530D01*
Y5610D01*
X7360D02*
Y5490D01*
X7300D01*
X7280Y5510D01*
Y5590D01*
X7300Y5610D01*
X7360D01*
X7240Y5490D02*
X7200D01*
X7220D01*
Y5610D01*
X7240Y5590D01*
X5950Y610D02*
Y730D01*
X5890D01*
X5870Y710D01*
Y670D01*
X5890Y650D01*
X5950D01*
X5910D02*
X5870Y610D01*
X5830Y710D02*
X5810Y730D01*
X5770D01*
X5750Y710D01*
Y690D01*
X5770Y670D01*
X5750Y650D01*
Y630D01*
X5770Y610D01*
X5810D01*
X5830Y630D01*
Y650D01*
X5810Y670D01*
X5830Y690D01*
Y710D01*
X5810Y670D02*
X5770D01*
X2090Y5060D02*
Y5180D01*
X2030D01*
X2010Y5160D01*
Y5120D01*
X2030Y5100D01*
X2090D01*
X2050D02*
X2010Y5060D01*
X1890D02*
X1970D01*
X1890Y5140D01*
Y5160D01*
X1910Y5180D01*
X1950D01*
X1970Y5160D01*
X1850D02*
X1830Y5180D01*
X1790D01*
X1770Y5160D01*
Y5140D01*
X1790Y5120D01*
X1770Y5100D01*
Y5080D01*
X1790Y5060D01*
X1830D01*
X1850Y5080D01*
Y5100D01*
X1830Y5120D01*
X1850Y5140D01*
Y5160D01*
X1830Y5120D02*
X1790D01*
X130Y1210D02*
X110Y1230D01*
Y1270D01*
X130Y1290D01*
X210D01*
X230Y1270D01*
Y1230D01*
X210Y1210D01*
X230Y1170D02*
Y1130D01*
Y1150D01*
X110D01*
X130Y1170D01*
X230Y1070D02*
Y1030D01*
Y1050D01*
X110D01*
X130Y1070D01*
X820Y2960D02*
Y3080D01*
X760D01*
X740Y3060D01*
Y3020D01*
X760Y3000D01*
X820D01*
X780D02*
X740Y2960D01*
X700D02*
X660D01*
X680D01*
Y3080D01*
X700Y3060D01*
X600D02*
X580Y3080D01*
X540D01*
X520Y3060D01*
Y3040D01*
X540Y3020D01*
X560D01*
X540D01*
X520Y3000D01*
Y2980D01*
X540Y2960D01*
X580D01*
X600Y2980D01*
X830Y3760D02*
Y3880D01*
X770D01*
X750Y3860D01*
Y3820D01*
X770Y3800D01*
X830D01*
X790D02*
X750Y3760D01*
X710D02*
X670D01*
X690D01*
Y3880D01*
X710Y3860D01*
X530Y3880D02*
X610D01*
Y3820D01*
X570Y3840D01*
X550D01*
X530Y3820D01*
Y3780D01*
X550Y3760D01*
X590D01*
X610Y3780D01*
X1220Y4510D02*
Y4630D01*
X1160D01*
X1140Y4610D01*
Y4570D01*
X1160Y4550D01*
X1220D01*
X1180D02*
X1140Y4510D01*
X1100D02*
X1060D01*
X1080D01*
Y4630D01*
X1100Y4610D01*
X920Y4510D02*
X1000D01*
X920Y4590D01*
Y4610D01*
X940Y4630D01*
X980D01*
X1000Y4610D01*
X820Y3580D02*
Y3700D01*
X760D01*
X740Y3680D01*
Y3640D01*
X760Y3620D01*
X820D01*
X780D02*
X740Y3580D01*
X700D02*
X660D01*
X680D01*
Y3700D01*
X700Y3680D01*
X600D02*
X580Y3700D01*
X540D01*
X520Y3680D01*
Y3660D01*
X540Y3640D01*
X520Y3620D01*
Y3600D01*
X540Y3580D01*
X580D01*
X600Y3600D01*
Y3620D01*
X580Y3640D01*
X600Y3660D01*
Y3680D01*
X580Y3640D02*
X540D01*
X820Y2800D02*
Y2920D01*
X760D01*
X740Y2900D01*
Y2860D01*
X760Y2840D01*
X820D01*
X780D02*
X740Y2800D01*
X700D02*
X660D01*
X680D01*
Y2920D01*
X700Y2900D01*
X600Y2920D02*
X520D01*
Y2900D01*
X600Y2820D01*
Y2800D01*
X970Y4300D02*
Y4420D01*
X910D01*
X890Y4400D01*
Y4360D01*
X910Y4340D01*
X970D01*
X930D02*
X890Y4300D01*
X850D02*
X810D01*
X830D01*
Y4420D01*
X850Y4400D01*
X690Y4300D02*
Y4420D01*
X750Y4360D01*
X670D01*
X1090Y2070D02*
X1210D01*
Y2130D01*
X1190Y2150D01*
X1150D01*
X1130Y2130D01*
Y2070D01*
Y2110D02*
X1090Y2150D01*
X1210Y2270D02*
X1190Y2230D01*
X1150Y2190D01*
X1110D01*
X1090Y2210D01*
Y2250D01*
X1110Y2270D01*
X1130D01*
X1150Y2250D01*
Y2190D01*
X1210Y2310D02*
Y2390D01*
X1190D01*
X1110Y2310D01*
X1090D01*
X770Y1650D02*
X890D01*
Y1710D01*
X870Y1730D01*
X830D01*
X810Y1710D01*
Y1650D01*
Y1690D02*
X770Y1730D01*
X890Y1850D02*
X870Y1810D01*
X830Y1770D01*
X790D01*
X770Y1790D01*
Y1830D01*
X790Y1850D01*
X810D01*
X830Y1830D01*
Y1770D01*
X870Y1890D02*
X890Y1910D01*
Y1950D01*
X870Y1970D01*
X790D01*
X770Y1950D01*
Y1910D01*
X790Y1890D01*
X870D01*
X1860Y2620D02*
X1775Y2705D01*
X1733Y2662D01*
X1733Y2634D01*
X1761Y2606D01*
X1789D01*
X1832Y2648D01*
X1803Y2620D02*
X1803Y2563D01*
X1704Y2606D02*
X1676Y2606D01*
X1648Y2578D01*
X1648Y2549D01*
X1662Y2535D01*
X1690D01*
X1704Y2549D01*
X1690Y2535D01*
Y2507D01*
X1704Y2493D01*
X1733D01*
X1761Y2521D01*
Y2549D01*
X1620Y2521D02*
X1591Y2521D01*
X1563Y2493D01*
X1563Y2464D01*
X1577Y2450D01*
X1606D01*
Y2422D01*
X1620Y2408D01*
X1648D01*
X1676Y2436D01*
Y2464D01*
X1662Y2479D01*
X1634D01*
Y2507D01*
X1620Y2521D01*
X1634Y2479D02*
X1606Y2450D01*
X7640Y6060D02*
X7660Y6080D01*
X7700D01*
X7720Y6060D01*
Y5980D01*
X7700Y5960D01*
X7660D01*
X7640Y5980D01*
X7540Y5960D02*
Y6080D01*
X7600Y6020D01*
X7520D01*
X7420Y5960D02*
Y6080D01*
X7480Y6020D01*
X7400D01*
X1573Y2843D02*
X1590Y2860D01*
X1623D01*
X1640Y2843D01*
Y2777D01*
X1623Y2760D01*
X1590D01*
X1573Y2777D01*
Y2810D01*
X1607D01*
X1540Y2760D02*
Y2860D01*
X1473Y2760D01*
Y2860D01*
X1440D02*
Y2760D01*
X1390D01*
X1373Y2777D01*
Y2843D01*
X1390Y2860D01*
X1440D01*
X1133Y2843D02*
X1150Y2860D01*
X1183D01*
X1200Y2843D01*
Y2777D01*
X1183Y2760D01*
X1150D01*
X1133Y2777D01*
Y2810D01*
X1167D01*
X1100Y2760D02*
Y2860D01*
X1033Y2760D01*
Y2860D01*
X1000D02*
Y2760D01*
X950D01*
X933Y2777D01*
Y2843D01*
X950Y2860D01*
X1000D01*
X1533Y3040D02*
X1600D01*
Y2990D01*
X1567Y3007D01*
X1550D01*
X1533Y2990D01*
Y2957D01*
X1550Y2940D01*
X1583D01*
X1600Y2957D01*
X1500Y3040D02*
Y2973D01*
X1467Y2940D01*
X1433Y2973D01*
Y3040D01*
X1073D02*
X1140D01*
Y2990D01*
X1107Y3007D01*
X1090D01*
X1073Y2990D01*
Y2957D01*
X1090Y2940D01*
X1123D01*
X1140Y2957D01*
X1040Y3040D02*
Y2973D01*
X1007Y2940D01*
X973Y2973D01*
Y3040D01*
X1640Y3213D02*
X1623Y3230D01*
X1590D01*
X1573Y3213D01*
Y3197D01*
X1590Y3180D01*
X1607D01*
X1590D01*
X1573Y3163D01*
Y3147D01*
X1590Y3130D01*
X1623D01*
X1640Y3147D01*
X1540Y3230D02*
Y3163D01*
X1507Y3130D01*
X1473Y3163D01*
Y3230D01*
X1440Y3213D02*
X1423Y3230D01*
X1390D01*
X1373Y3213D01*
Y3197D01*
X1390Y3180D01*
X1407D01*
X1390D01*
X1373Y3163D01*
Y3147D01*
X1390Y3130D01*
X1423D01*
X1440Y3147D01*
X1650Y3730D02*
Y3830D01*
X1600D01*
X1583Y3813D01*
Y3780D01*
X1600Y3763D01*
X1650D01*
X1483Y3830D02*
X1550D01*
Y3730D01*
X1483D01*
X1550Y3780D02*
X1517D01*
X1450Y3813D02*
X1433Y3830D01*
X1400D01*
X1383Y3813D01*
Y3747D01*
X1400Y3730D01*
X1433D01*
X1450Y3747D01*
Y3813D01*
X1573Y3613D02*
X1590Y3630D01*
X1623D01*
X1640Y3613D01*
Y3547D01*
X1623Y3530D01*
X1590D01*
X1573Y3547D01*
Y3580D01*
X1607D01*
X1540Y3530D02*
Y3630D01*
X1473Y3530D01*
Y3630D01*
X1440D02*
Y3530D01*
X1390D01*
X1373Y3547D01*
Y3613D01*
X1390Y3630D01*
X1440D01*
X1200Y3213D02*
X1183Y3230D01*
X1150D01*
X1133Y3213D01*
Y3197D01*
X1150Y3180D01*
X1167D01*
X1150D01*
X1133Y3163D01*
Y3147D01*
X1150Y3130D01*
X1183D01*
X1200Y3147D01*
X1100Y3230D02*
Y3163D01*
X1067Y3130D01*
X1033Y3163D01*
Y3230D01*
X1000Y3213D02*
X983Y3230D01*
X950D01*
X933Y3213D01*
Y3197D01*
X950Y3180D01*
X967D01*
X950D01*
X933Y3163D01*
Y3147D01*
X950Y3130D01*
X983D01*
X1000Y3147D01*
X1210Y3910D02*
Y4010D01*
X1160D01*
X1143Y3993D01*
Y3960D01*
X1160Y3943D01*
X1210D01*
X1110Y4010D02*
Y3910D01*
X1060D01*
X1043Y3927D01*
Y3993D01*
X1060Y4010D01*
X1110D01*
X1010D02*
X943D01*
Y3993D01*
X1010Y3927D01*
Y3910D01*
X1623Y3993D02*
X1640Y4010D01*
X1673D01*
X1690Y3993D01*
Y3977D01*
X1673Y3960D01*
X1640D01*
X1623Y3943D01*
Y3927D01*
X1640Y3910D01*
X1673D01*
X1690Y3927D01*
X1523Y3993D02*
X1540Y4010D01*
X1573D01*
X1590Y3993D01*
Y3927D01*
X1573Y3910D01*
X1540D01*
X1523Y3927D01*
X1490Y4010D02*
Y3910D01*
X1423D01*
X1133Y3803D02*
X1150Y3820D01*
X1183D01*
X1200Y3803D01*
Y3787D01*
X1183Y3770D01*
X1150D01*
X1133Y3753D01*
Y3737D01*
X1150Y3720D01*
X1183D01*
X1200Y3737D01*
X1100Y3820D02*
Y3720D01*
X1050D01*
X1033Y3737D01*
Y3803D01*
X1050Y3820D01*
X1100D01*
X1000Y3720D02*
Y3787D01*
X967Y3820D01*
X933Y3787D01*
Y3720D01*
Y3770D01*
X1000D01*
X1620Y4110D02*
Y4210D01*
X1570D01*
X1553Y4193D01*
Y4160D01*
X1570Y4143D01*
X1620D01*
X1520Y4210D02*
Y4110D01*
X1470D01*
X1453Y4127D01*
Y4193D01*
X1470Y4210D01*
X1520D01*
X1370Y4110D02*
Y4210D01*
X1420Y4160D01*
X1353D01*
X1260Y4110D02*
Y4210D01*
X1210D01*
X1193Y4193D01*
Y4160D01*
X1210Y4143D01*
X1260D01*
X1160Y4210D02*
Y4110D01*
X1110D01*
X1093Y4127D01*
Y4193D01*
X1110Y4210D01*
X1160D01*
X1060Y4193D02*
X1043Y4210D01*
X1010D01*
X993Y4193D01*
Y4177D01*
X1010Y4160D01*
X1027D01*
X1010D01*
X993Y4143D01*
Y4127D01*
X1010Y4110D01*
X1043D01*
X1060Y4127D01*
X1230Y3530D02*
Y3630D01*
X1197Y3597D01*
X1163Y3630D01*
Y3530D01*
X1080Y3630D02*
X1113D01*
X1130Y3613D01*
Y3547D01*
X1113Y3530D01*
X1080D01*
X1063Y3547D01*
Y3613D01*
X1080Y3630D01*
X963Y3613D02*
X980Y3630D01*
X1013D01*
X1030Y3613D01*
Y3597D01*
X1013Y3580D01*
X980D01*
X963Y3563D01*
Y3547D01*
X980Y3530D01*
X1013D01*
X1030Y3547D01*
X930Y3630D02*
X897D01*
X913D01*
Y3530D01*
X930D01*
X897D01*
X1690Y3330D02*
Y3430D01*
X1657Y3397D01*
X1623Y3430D01*
Y3330D01*
X1590Y3430D02*
X1557D01*
X1573D01*
Y3330D01*
X1590D01*
X1557D01*
X1440Y3413D02*
X1457Y3430D01*
X1490D01*
X1507Y3413D01*
Y3397D01*
X1490Y3380D01*
X1457D01*
X1440Y3363D01*
Y3347D01*
X1457Y3330D01*
X1490D01*
X1507Y3347D01*
X1357Y3430D02*
X1390D01*
X1407Y3413D01*
Y3347D01*
X1390Y3330D01*
X1357D01*
X1340Y3347D01*
Y3413D01*
X1357Y3430D01*
X1143Y3413D02*
X1160Y3430D01*
X1193D01*
X1210Y3413D01*
Y3397D01*
X1193Y3380D01*
X1160D01*
X1143Y3363D01*
Y3347D01*
X1160Y3330D01*
X1193D01*
X1210Y3347D01*
X1043Y3413D02*
X1060Y3430D01*
X1093D01*
X1110Y3413D01*
Y3347D01*
X1093Y3330D01*
X1060D01*
X1043Y3347D01*
X1010Y3430D02*
Y3330D01*
Y3363D01*
X943Y3430D01*
X993Y3380D01*
X943Y3330D01*
X8450Y5770D02*
Y5850D01*
X8490Y5890D01*
X8530Y5850D01*
Y5770D01*
Y5830D01*
X8450D01*
X8440Y5090D02*
Y5170D01*
X8480Y5210D01*
X8520Y5170D01*
Y5090D01*
Y5150D01*
X8440D01*
D93*
X670Y2530D02*
X850Y2710D01*
X860D01*
Y4050D02*
X1740D01*
X860Y3860D02*
X1740D01*
X860Y3670D02*
X1740D01*
X860Y3480D02*
X1740D01*
X870Y3280D02*
X1740D01*
X860Y3080D02*
X1740D01*
X860Y2900D02*
X1740D01*
X1290Y2720D02*
Y4240D01*
X860Y4260D02*
X1000D01*
X860Y2710D02*
Y4260D01*
Y2710D02*
X1740D01*
Y4260D01*
X1000D02*
X1740D01*
X6518Y2027D02*
Y2078D01*
Y2052D01*
X6645D01*
X6670Y2078D01*
Y2103D01*
X6645Y2128D01*
X6670Y1976D02*
Y1925D01*
Y1951D01*
X6518D01*
X6543Y1976D01*
X7433Y6488D02*
X7408Y6514D01*
Y6565D01*
X7433Y6590D01*
X7535D01*
X7560Y6565D01*
Y6514D01*
X7535Y6488D01*
X7484D01*
Y6539D01*
X7560Y6438D02*
Y6387D01*
Y6412D01*
X7408D01*
X7433Y6438D01*
D94*
X3022Y2276D02*
G03*
X3022Y2276I-53J0D01*
G01*
X3052Y1374D02*
Y2355D01*
X2694Y1374D02*
X3052D01*
X2694D02*
Y2355D01*
X3052D01*
X2470Y6187D02*
Y6273D01*
Y6334D01*
Y6421D01*
X1983Y6187D02*
Y6421D01*
D95*
X5330Y7120D02*
Y7420D01*
X5130Y7120D02*
Y7420D01*
X6878Y3002D02*
X7259D01*
X6878Y894D02*
X7259D01*
X8021D02*
X8402D01*
X8021Y3002D02*
X8402D01*
D96*
X3495Y3958D02*
Y4050D01*
Y3958D02*
X3645D01*
Y4050D01*
X3495Y4200D02*
Y4292D01*
X3645D01*
Y4200D02*
Y4292D01*
X3175Y3395D02*
X3267D01*
Y3545D01*
X3175D02*
X3267D01*
X2933Y3395D02*
X3025D01*
X2933D02*
Y3545D01*
X3025D01*
X905Y2255D02*
Y2348D01*
X755D02*
X905D01*
X755Y2255D02*
Y2348D01*
X905Y2012D02*
Y2105D01*
X755Y2012D02*
X905D01*
X755D02*
Y2105D01*
X1219Y2265D02*
X1284Y2330D01*
X1219Y2265D02*
X1325Y2159D01*
X1390Y2224D01*
Y2436D02*
X1455Y2501D01*
X1561Y2395D01*
X1496Y2330D02*
X1561Y2395D01*
X7635Y6115D02*
X7728D01*
Y6265D01*
X7635D02*
X7728D01*
X7393Y6115D02*
X7485D01*
X7393D02*
Y6265D01*
X7485D01*
X512Y3395D02*
X605D01*
X512Y3245D02*
Y3395D01*
Y3245D02*
X605D01*
X755Y3395D02*
X848D01*
Y3245D02*
Y3395D01*
X755Y3245D02*
X848D01*
X2700Y5953D02*
Y6053D01*
X2500Y5953D02*
Y6053D01*
Y5953D02*
X2700D01*
X2500Y6328D02*
X2700D01*
Y6228D02*
Y6328D01*
X2500Y6228D02*
Y6328D01*
X2908Y6670D02*
X3008D01*
X2908Y6470D02*
X3008D01*
Y6670D01*
X2633Y6470D02*
Y6670D01*
X2733D01*
X2633Y6470D02*
X2733D01*
X6710Y7083D02*
Y7183D01*
X6510Y7083D02*
Y7183D01*
Y7083D02*
X6710D01*
X6510Y7458D02*
X6710D01*
Y7358D02*
Y7458D01*
X6510Y7358D02*
Y7458D01*
X6950Y7083D02*
Y7183D01*
X6750Y7083D02*
Y7183D01*
Y7083D02*
X6950D01*
X6750Y7458D02*
X6950D01*
Y7358D02*
Y7458D01*
X6750Y7358D02*
Y7458D01*
X4783Y6805D02*
X4875D01*
X4783Y6655D02*
Y6805D01*
Y6655D02*
X4875D01*
X5025Y6805D02*
X5117D01*
Y6655D02*
Y6805D01*
X5025Y6655D02*
X5117D01*
X85Y1343D02*
Y1435D01*
Y1343D02*
X235D01*
Y1435D01*
X85Y1585D02*
Y1677D01*
X235D01*
Y1585D02*
Y1677D01*
X3995Y675D02*
Y768D01*
X3845D02*
X3995D01*
X3845Y675D02*
Y768D01*
X3995Y432D02*
Y525D01*
X3845Y432D02*
X3995D01*
X3845D02*
Y525D01*
X4412Y1195D02*
X4505D01*
X4412Y1045D02*
Y1195D01*
Y1045D02*
X4505D01*
X4655Y1195D02*
X4747D01*
Y1045D02*
Y1195D01*
X4655Y1045D02*
X4747D01*
X4072Y1195D02*
X4165D01*
X4072Y1045D02*
Y1195D01*
Y1045D02*
X4165D01*
X4315Y1195D02*
X4408D01*
Y1045D02*
Y1195D01*
X4315Y1045D02*
X4408D01*
X3785Y1662D02*
Y1755D01*
Y1662D02*
X3935D01*
Y1755D01*
X3785Y1905D02*
Y1998D01*
X3935D01*
Y1905D02*
Y1998D01*
Y1032D02*
Y1125D01*
Y1032D02*
X4085D01*
Y1125D01*
X3935Y1275D02*
Y1368D01*
X4085D01*
Y1275D02*
Y1368D01*
X4045Y2285D02*
X4138D01*
Y2435D01*
X4045D02*
X4138D01*
X3803Y2285D02*
X3895D01*
X3803D02*
Y2435D01*
X3895D01*
X535Y4495D02*
X628D01*
Y4645D01*
X535D02*
X628D01*
X292Y4495D02*
X385D01*
X292D02*
Y4645D01*
X385D01*
X395Y2945D02*
X488D01*
Y3095D01*
X395D02*
X488D01*
X152Y2945D02*
X245D01*
X152D02*
Y3095D01*
X245D01*
X375Y4275D02*
X468D01*
Y4425D01*
X375D02*
X468D01*
X133Y4275D02*
X225D01*
X133D02*
Y4425D01*
X225D01*
X375Y3745D02*
X468D01*
Y3895D01*
X375D02*
X468D01*
X133Y3745D02*
X225D01*
X133D02*
Y3895D01*
X225D01*
X395Y2795D02*
X488D01*
Y2945D01*
X395D02*
X488D01*
X152Y2795D02*
X245D01*
X152D02*
Y2945D01*
X245D01*
X365Y3365D02*
X457D01*
Y3515D01*
X365D02*
X457D01*
X123Y3365D02*
X215D01*
X123D02*
Y3515D01*
X215D01*
X1065Y2295D02*
Y2388D01*
X915D02*
X1065D01*
X915Y2295D02*
Y2388D01*
X1065Y2052D02*
Y2145D01*
X915Y2052D02*
X1065D01*
X915D02*
Y2145D01*
X1915Y3390D02*
Y3483D01*
X1765D02*
X1915D01*
X1765Y3390D02*
Y3483D01*
X1915Y3148D02*
Y3240D01*
X1765Y3148D02*
X1915D01*
X1765D02*
Y3240D01*
X2765Y3725D02*
Y3817D01*
X2615D02*
X2765D01*
X2615Y3725D02*
Y3817D01*
X2765Y3483D02*
Y3575D01*
X2615Y3483D02*
X2765D01*
X2615D02*
Y3575D01*
X2067Y5020D02*
X2167D01*
X2067Y4820D02*
X2167D01*
Y5020D01*
X1792Y4820D02*
Y5020D01*
X1892D01*
X1792Y4820D02*
X1892D01*
X1710Y6238D02*
Y6338D01*
X1910Y6238D02*
Y6338D01*
X1710D02*
X1910D01*
X1710Y5963D02*
X1910D01*
X1710D02*
Y6063D01*
X1910Y5963D02*
Y6063D01*
X1627Y4402D02*
X1697Y4331D01*
X1768Y4543D02*
X1839Y4473D01*
X1627Y4402D02*
X1768Y4543D01*
X1892Y4137D02*
X2033Y4278D01*
X1821Y4207D02*
X1892Y4137D01*
X1963Y4349D02*
X2033Y4278D01*
X2645Y3142D02*
Y3235D01*
Y3142D02*
X2795D01*
Y3235D01*
X2645Y3385D02*
Y3478D01*
X2795D01*
Y3385D02*
Y3478D01*
X3090Y740D02*
X3140Y765D01*
X3190Y815D01*
Y865D01*
X3165Y890D01*
X3115D01*
X3090Y865D01*
Y840D01*
X3115Y815D01*
X3190D01*
X3180Y1170D02*
X3130D01*
X3155D01*
Y1020D01*
X3180Y1045D01*
X1560Y7250D02*
X1610Y7225D01*
X1660Y7175D01*
Y7125D01*
X1635Y7100D01*
X1585D01*
X1560Y7125D01*
Y7150D01*
X1585Y7175D01*
X1660D01*
X1640Y6820D02*
X1590D01*
X1615D01*
Y6970D01*
X1640Y6945D01*
D98*
X8560Y6670D02*
G03*
X8560Y6670I-480J0D01*
G01*
X8620D02*
G03*
X8620Y6670I-10J0D01*
G01*
D168*
X5242Y7010D02*
G03*
X5242Y7010I-12J0D01*
G01*
D169*
X2470Y6334D02*
G03*
X2470Y6273I0J-30D01*
G01*
D170*
X6975Y6192D02*
D03*
D171*
X4883Y5920D02*
X5088D01*
X4837Y5912D02*
X5134D01*
X4806Y5905D02*
X5172D01*
X4982Y5897D02*
X5195D01*
X5043Y5889D02*
X5218D01*
X5081Y5882D02*
X5241D01*
X5103Y5874D02*
X5263D01*
X5126Y5866D02*
X5279D01*
X5149Y5859D02*
X5294D01*
X5172Y5851D02*
X5317D01*
X5187Y5844D02*
X5332D01*
X5203Y5836D02*
X5347D01*
X5218Y5828D02*
X5363D01*
X5233Y5821D02*
X5378D01*
X5248Y5813D02*
X5385D01*
X5263Y5806D02*
X5401D01*
X5271Y5798D02*
X5416D01*
X5286Y5790D02*
X5424D01*
X5302Y5783D02*
X5439D01*
X5317Y5775D02*
X5446D01*
X5324Y5767D02*
X5462D01*
X5332Y5760D02*
X5469D01*
X5347Y5752D02*
X5484D01*
X5355Y5745D02*
X5492D01*
X5363Y5737D02*
X5500D01*
X5378Y5729D02*
X5507D01*
X5385Y5722D02*
X5523D01*
X5393Y5714D02*
X5530D01*
X5408Y5706D02*
X5538D01*
X5416Y5699D02*
X5545D01*
X5424Y5691D02*
X5553D01*
X5431Y5684D02*
X5568D01*
X5439Y5676D02*
X5576D01*
X5446Y5668D02*
X5584D01*
X5454Y5661D02*
X5591D01*
X5462Y5653D02*
X5599D01*
X5469Y5645D02*
X5606D01*
X5477Y5638D02*
X5614D01*
X5484Y5630D02*
X5622D01*
X5492Y5623D02*
X5629D01*
X5500Y5615D02*
X5637D01*
X5507Y5607D02*
X5644D01*
X5515Y5600D02*
X5652D01*
X5523Y5592D02*
X5660D01*
X5530Y5585D02*
X5660D01*
X5530Y5577D02*
X5667D01*
X5538Y5569D02*
X5675D01*
X5545Y5562D02*
X5683D01*
X5553Y5554D02*
X5690D01*
X5553Y5546D02*
X5698D01*
X5561Y5539D02*
X5698D01*
X5568Y5531D02*
X5705D01*
X5576Y5524D02*
X5713D01*
X5576Y5516D02*
X5721D01*
X5584Y5508D02*
X5728D01*
X5591Y5501D02*
X5728D01*
X5599Y5493D02*
X5736D01*
X5606Y5485D02*
X5744D01*
X5606Y5478D02*
X5751D01*
X5614Y5470D02*
X5751D01*
X5614Y5463D02*
X5759D01*
X5622Y5455D02*
X5759D01*
X5629Y5447D02*
X5766D01*
X5629Y5440D02*
X5774D01*
X4418D02*
X4425D01*
X5637Y5432D02*
X5774D01*
X4418D02*
X4425D01*
X5637Y5424D02*
X5782D01*
X4410D02*
X4425D01*
X5644Y5417D02*
X5789D01*
X4410D02*
X4425D01*
X5652Y5409D02*
X5789D01*
X4410D02*
X4425D01*
X5652Y5402D02*
X5797D01*
X4410D02*
X4425D01*
X5660Y5394D02*
X5805D01*
X4410D02*
X4418D01*
X5660Y5386D02*
X5805D01*
X4410D02*
X4418D01*
X5667Y5379D02*
X5812D01*
X4410D02*
X4418D01*
X5675Y5371D02*
X5812D01*
X5203D02*
X5210D01*
X4402D02*
X4418D01*
X5675Y5364D02*
X5820D01*
X5203D02*
X5241D01*
X4402D02*
X4425D01*
X5683Y5356D02*
X5827D01*
X5218D02*
X5263D01*
X4402D02*
X4425D01*
X5683Y5348D02*
X5827D01*
X5225D02*
X5279D01*
X4402D02*
X4425D01*
X5690Y5341D02*
X5835D01*
X5241D02*
X5294D01*
X4402D02*
X4425D01*
X5690Y5333D02*
X5835D01*
X5248D02*
X5309D01*
X4402D02*
X4425D01*
X5690Y5325D02*
X5843D01*
X5263D02*
X5324D01*
X4402D02*
X4425D01*
X5698Y5318D02*
X5843D01*
X5271D02*
X5332D01*
X4402D02*
X4425D01*
X5698Y5310D02*
X5850D01*
X5279D02*
X5347D01*
X4402D02*
X4425D01*
X5705Y5303D02*
X5850D01*
X5294D02*
X5363D01*
X4402D02*
X4425D01*
X5705Y5295D02*
X5858D01*
X5302D02*
X5370D01*
X4402D02*
X4425D01*
X5713Y5287D02*
X5858D01*
X5309D02*
X5378D01*
X4402D02*
X4425D01*
X5713Y5280D02*
X5865D01*
X5317D02*
X5385D01*
X4402D02*
X4425D01*
X5713Y5272D02*
X5865D01*
X5324D02*
X5401D01*
X4402D02*
X4425D01*
X5721Y5264D02*
X5873D01*
X5332D02*
X5408D01*
X4402D02*
X4425D01*
X5721Y5257D02*
X5873D01*
X5340D02*
X5416D01*
X4402D02*
X4425D01*
X5728Y5249D02*
X5881D01*
X5347D02*
X5424D01*
X4402D02*
X4425D01*
X5728Y5242D02*
X5881D01*
X5363D02*
X5431D01*
X4402D02*
X4425D01*
X5736Y5234D02*
X5881D01*
X5363D02*
X5439D01*
X4402D02*
X4425D01*
X5736Y5226D02*
X5888D01*
X5370D02*
X5446D01*
X4402D02*
X4433D01*
X5736Y5219D02*
X5888D01*
X5378D02*
X5454D01*
X4402D02*
X4433D01*
X5744Y5211D02*
X5896D01*
X5385D02*
X5462D01*
X4402D02*
X4433D01*
X5744Y5204D02*
X5896D01*
X5393D02*
X5469D01*
X4402D02*
X4433D01*
X5744Y5196D02*
X5896D01*
X5393D02*
X5477D01*
X4402D02*
X4433D01*
X5751Y5188D02*
X5904D01*
X5401D02*
X5484D01*
X4402D02*
X4433D01*
X5751Y5181D02*
X5904D01*
X5408D02*
X5484D01*
X4402D02*
X4433D01*
X5751Y5173D02*
X5911D01*
X5416D02*
X5492D01*
X4402D02*
X4441D01*
X5751Y5165D02*
X5911D01*
X5416D02*
X5500D01*
X4402D02*
X4441D01*
X5759Y5158D02*
X5911D01*
X5424D02*
X5507D01*
X4402D02*
X4441D01*
X5759Y5150D02*
X5919D01*
X5424D02*
X5507D01*
X4402D02*
X4441D01*
X5759Y5143D02*
X5919D01*
X5431D02*
X5515D01*
X4402D02*
X4441D01*
X5766Y5135D02*
X5919D01*
X5439D02*
X5523D01*
X4402D02*
X4441D01*
X5766Y5127D02*
X5926D01*
X5439D02*
X5523D01*
X4402D02*
X4441D01*
X5766Y5120D02*
X5926D01*
X5446D02*
X5530D01*
X4402D02*
X4448D01*
X5766Y5112D02*
X5926D01*
X5446D02*
X5530D01*
X4410D02*
X4448D01*
X5774Y5104D02*
X5926D01*
X5454D02*
X5538D01*
X4410D02*
X4448D01*
X5774Y5097D02*
X5934D01*
X5454D02*
X5545D01*
X4410D02*
X4448D01*
X5774Y5089D02*
X5934D01*
X5462D02*
X5545D01*
X4410D02*
X4448D01*
X5774Y5082D02*
X5934D01*
X5462D02*
X5553D01*
X4410D02*
X4456D01*
X5774Y5074D02*
X5942D01*
X5469D02*
X5553D01*
X4822D02*
X4829D01*
X4410D02*
X4456D01*
X5782Y5066D02*
X5942D01*
X5469D02*
X5561D01*
X4814D02*
X4829D01*
X4410D02*
X4456D01*
X5782Y5059D02*
X5942D01*
X5469D02*
X5561D01*
X4814D02*
X4829D01*
X4410D02*
X4463D01*
X5782Y5051D02*
X5949D01*
X5477D02*
X5568D01*
X4814D02*
X4829D01*
X4418D02*
X4463D01*
X5782Y5044D02*
X5949D01*
X5477D02*
X5568D01*
X4814D02*
X4829D01*
X4418D02*
X4463D01*
X5782Y5036D02*
X5949D01*
X5477D02*
X5568D01*
X4814D02*
X4829D01*
X4418D02*
X4471D01*
X5782Y5028D02*
X5949D01*
X5484D02*
X5576D01*
X4814D02*
X4837D01*
X4418D02*
X4471D01*
X5782Y5021D02*
X5949D01*
X5484D02*
X5576D01*
X4814D02*
X4837D01*
X4418D02*
X4471D01*
X5789Y5013D02*
X5957D01*
X5484D02*
X5584D01*
X4814D02*
X4837D01*
X4425D02*
X4471D01*
X5789Y5005D02*
X5957D01*
X5484D02*
X5584D01*
X4814D02*
X4837D01*
X4425D02*
X4479D01*
X5789Y4998D02*
X5957D01*
X5492D02*
X5591D01*
X4814D02*
X4844D01*
X4425D02*
X4479D01*
X5789Y4990D02*
X5957D01*
X5492D02*
X5591D01*
X4822D02*
X4844D01*
X4425D02*
X4479D01*
X5789Y4983D02*
X5957D01*
X5492D02*
X5591D01*
X4822D02*
X4844D01*
X4425D02*
X4486D01*
X5789Y4975D02*
X5965D01*
X5492D02*
X5591D01*
X4822D02*
X4844D01*
X4433D02*
X4486D01*
X5789Y4967D02*
X5965D01*
X5492D02*
X5599D01*
X4822D02*
X4852D01*
X4433D02*
X4486D01*
X5789Y4960D02*
X5965D01*
X5500D02*
X5599D01*
X4822D02*
X4852D01*
X4433D02*
X4494D01*
X5789Y4952D02*
X5965D01*
X5500D02*
X5599D01*
X4822D02*
X4852D01*
X4433D02*
X4494D01*
X5789Y4944D02*
X5965D01*
X5500D02*
X5599D01*
X4822D02*
X4860D01*
X4441D02*
X4494D01*
X5789Y4937D02*
X5965D01*
X5500D02*
X5606D01*
X4822D02*
X4860D01*
X4441D02*
X4501D01*
X5789Y4929D02*
X5972D01*
X5500D02*
X5606D01*
X4822D02*
X4867D01*
X4441D02*
X4501D01*
X5789Y4922D02*
X5972D01*
X5500D02*
X5606D01*
X4829D02*
X4867D01*
X4448D02*
X4501D01*
X5789Y4914D02*
X5972D01*
X5500D02*
X5606D01*
X4829D02*
X4867D01*
X4448D02*
X4509D01*
X5789Y4906D02*
X5972D01*
X5500D02*
X5614D01*
X4829D02*
X4875D01*
X4448D02*
X4509D01*
X5789Y4899D02*
X5972D01*
X5500D02*
X5614D01*
X4829D02*
X4875D01*
X4456D02*
X4517D01*
X5789Y4891D02*
X5972D01*
X5500D02*
X5614D01*
X4837D02*
X4875D01*
X4456D02*
X4517D01*
X5789Y4883D02*
X5972D01*
X5500D02*
X5614D01*
X4837D02*
X4883D01*
X4456D02*
X4524D01*
X5789Y4876D02*
X5972D01*
X5500D02*
X5614D01*
X4837D02*
X4883D01*
X4456D02*
X4524D01*
X5789Y4868D02*
X5972D01*
X5500D02*
X5614D01*
X4837D02*
X4890D01*
X4463D02*
X4532D01*
X5789Y4861D02*
X5972D01*
X5500D02*
X5614D01*
X4844D02*
X4898D01*
X4463D02*
X4532D01*
X5789Y4853D02*
X5972D01*
X5500D02*
X5622D01*
X4844D02*
X4898D01*
X4463D02*
X4540D01*
X5789Y4845D02*
X5980D01*
X5500D02*
X5622D01*
X4844D02*
X4905D01*
X4471D02*
X4540D01*
X5789Y4838D02*
X5980D01*
X5500D02*
X5622D01*
X4852D02*
X4905D01*
X4471D02*
X4547D01*
X5789Y4830D02*
X5980D01*
X5492D02*
X5622D01*
X4852D02*
X4913D01*
X4479D02*
X4547D01*
X5789Y4823D02*
X5980D01*
X5492D02*
X5622D01*
X4860D02*
X4921D01*
X4479D02*
X4555D01*
X5789Y4815D02*
X5980D01*
X5492D02*
X5622D01*
X4860D02*
X4921D01*
X4479D02*
X4555D01*
X5789Y4807D02*
X5980D01*
X5492D02*
X5622D01*
X4860D02*
X4928D01*
X4486D02*
X4555D01*
X5782Y4800D02*
X5980D01*
X5492D02*
X5622D01*
X4867D02*
X4928D01*
X4486D02*
X4562D01*
X5782Y4792D02*
X5980D01*
X5484D02*
X5622D01*
X4867D02*
X4936D01*
X4494D02*
X4570D01*
X5782Y4784D02*
X5980D01*
X5484D02*
X5622D01*
X4875D02*
X4943D01*
X4494D02*
X4570D01*
X5782Y4777D02*
X5980D01*
X5484D02*
X5622D01*
X4875D02*
X4951D01*
X4494D02*
X4578D01*
X5782Y4769D02*
X5980D01*
X5477D02*
X5614D01*
X4883D02*
X4959D01*
X4501D02*
X4585D01*
X5782Y4762D02*
X5980D01*
X5477D02*
X5614D01*
X4883D02*
X4959D01*
X4501D02*
X4585D01*
X5782Y4754D02*
X5980D01*
X5469D02*
X5614D01*
X4890D02*
X4966D01*
X4509D02*
X4593D01*
X5774Y4746D02*
X5980D01*
X5469D02*
X5614D01*
X4890D02*
X4974D01*
X4509D02*
X4593D01*
X5774Y4739D02*
X5980D01*
X5469D02*
X5614D01*
X4898D02*
X4982D01*
X4509D02*
X4601D01*
X5774Y4731D02*
X5980D01*
X5462D02*
X5614D01*
X4898D02*
X4989D01*
X4517D02*
X4608D01*
X5774Y4723D02*
X5980D01*
X5462D02*
X5614D01*
X4905D02*
X4997D01*
X4524D02*
X4608D01*
X5774Y4716D02*
X5980D01*
X5454D02*
X5606D01*
X4905D02*
X5004D01*
X4524D02*
X4616D01*
X5766Y4708D02*
X5980D01*
X5446D02*
X5606D01*
X4913D02*
X5012D01*
X4532D02*
X4623D01*
X5766Y4701D02*
X5972D01*
X5446D02*
X5606D01*
X4921D02*
X5020D01*
X4532D02*
X4623D01*
X5766Y4693D02*
X5972D01*
X5439D02*
X5606D01*
X4921D02*
X5027D01*
X4540D02*
X4631D01*
X5759Y4685D02*
X5972D01*
X5431D02*
X5599D01*
X4928D02*
X5043D01*
X4540D02*
X4639D01*
X5759Y4678D02*
X5972D01*
X5424D02*
X5599D01*
X4936D02*
X5050D01*
X4547D02*
X4639D01*
X5759Y4670D02*
X5972D01*
X5424D02*
X5599D01*
X4936D02*
X5058D01*
X4547D02*
X4646D01*
X5751Y4662D02*
X5972D01*
X5416D02*
X5591D01*
X4943D02*
X5065D01*
X4555D02*
X4654D01*
X5751Y4655D02*
X5972D01*
X5401D02*
X5591D01*
X4951D02*
X5081D01*
X4555D02*
X4662D01*
X5751Y4647D02*
X5972D01*
X5393D02*
X5584D01*
X4959D02*
X5096D01*
X4562D02*
X4669D01*
X5751Y4640D02*
X5972D01*
X5385D02*
X5584D01*
X4966D02*
X5111D01*
X4562D02*
X4677D01*
X5744Y4632D02*
X5965D01*
X5370D02*
X5584D01*
X4966D02*
X5126D01*
X4570D02*
X4677D01*
X5744Y4624D02*
X5965D01*
X5355D02*
X5576D01*
X4974D02*
X5142D01*
X4578D02*
X4684D01*
X5736Y4617D02*
X5965D01*
X5332D02*
X5576D01*
X4982D02*
X5164D01*
X4578D02*
X4692D01*
X5736Y4609D02*
X5965D01*
X5294D02*
X5568D01*
X4989D02*
X5218D01*
X4585D02*
X4700D01*
X5728Y4602D02*
X5957D01*
X4997D02*
X5561D01*
X4593D02*
X4707D01*
X5728Y4594D02*
X5957D01*
X5004D02*
X5561D01*
X4593D02*
X4715D01*
X5721Y4586D02*
X5957D01*
X5012D02*
X5553D01*
X4601D02*
X4722D01*
X5721Y4579D02*
X5957D01*
X5020D02*
X5553D01*
X4601D02*
X4730D01*
X5713Y4571D02*
X5949D01*
X5027D02*
X5545D01*
X4608D02*
X4738D01*
X5713Y4563D02*
X5949D01*
X5043D02*
X5538D01*
X4616D02*
X4738D01*
X5705Y4556D02*
X5949D01*
X5050D02*
X5530D01*
X4616D02*
X4745D01*
X5705Y4548D02*
X5949D01*
X5065D02*
X5523D01*
X4623D02*
X4761D01*
X5698Y4541D02*
X5942D01*
X5073D02*
X5515D01*
X4631D02*
X4768D01*
X5690Y4533D02*
X5942D01*
X5088D02*
X5507D01*
X4631D02*
X4776D01*
X5690Y4525D02*
X5934D01*
X5096D02*
X5500D01*
X4639D02*
X4783D01*
X5683Y4518D02*
X5934D01*
X5111D02*
X5492D01*
X4646D02*
X4791D01*
X5675Y4510D02*
X5934D01*
X5126D02*
X5484D01*
X4654D02*
X4806D01*
X5675Y4502D02*
X5926D01*
X5142D02*
X5469D01*
X4662D02*
X4814D01*
X5667Y4495D02*
X5926D01*
X5157D02*
X5462D01*
X4662D02*
X4822D01*
X5660Y4487D02*
X5926D01*
X5180D02*
X5439D01*
X4669D02*
X4829D01*
X5652Y4480D02*
X5919D01*
X5203D02*
X5424D01*
X4677D02*
X4837D01*
X5644Y4472D02*
X5919D01*
X5233D02*
X5408D01*
X4684D02*
X4852D01*
X5644Y4464D02*
X5919D01*
X5263D02*
X5378D01*
X4692D02*
X4860D01*
X5637Y4457D02*
X5911D01*
X4692D02*
X4867D01*
X5622Y4449D02*
X5911D01*
X4700D02*
X4883D01*
X5614Y4442D02*
X5904D01*
X4707D02*
X4890D01*
X5606Y4434D02*
X5904D01*
X4715D02*
X4905D01*
X5599Y4426D02*
X5896D01*
X4722D02*
X4921D01*
X5591Y4419D02*
X5896D01*
X4730D02*
X4928D01*
X5584Y4411D02*
X5888D01*
X4738D02*
X4943D01*
X5568Y4403D02*
X5888D01*
X4745D02*
X4951D01*
X5561Y4396D02*
X5881D01*
X4753D02*
X4966D01*
X5553Y4388D02*
X5881D01*
X4761D02*
X4989D01*
X5538Y4381D02*
X5873D01*
X4768D02*
X5004D01*
X5523Y4373D02*
X5873D01*
X4776D02*
X5020D01*
X5507Y4365D02*
X5865D01*
X4783D02*
X5043D01*
X5492Y4358D02*
X5858D01*
X4791D02*
X5058D01*
X5477Y4350D02*
X5858D01*
X4799D02*
X5081D01*
X5454Y4342D02*
X5850D01*
X4806D02*
X5096D01*
X5431Y4335D02*
X5843D01*
X4814D02*
X5126D01*
X5401Y4327D02*
X5843D01*
X4822D02*
X5157D01*
X5363Y4320D02*
X5835D01*
X4837D02*
X5187D01*
X4844Y4312D02*
X5827D01*
X4852Y4304D02*
X5820D01*
X4860Y4297D02*
X5820D01*
X4867Y4289D02*
X5812D01*
X4883Y4281D02*
X5805D01*
X4890Y4274D02*
X5797D01*
X4905Y4266D02*
X5789D01*
X4913Y4259D02*
X5782D01*
X4921Y4251D02*
X5774D01*
X4936Y4243D02*
X5759D01*
X4943Y4236D02*
X5751D01*
X4959Y4228D02*
X5744D01*
X4974Y4221D02*
X5736D01*
X4982Y4213D02*
X5721D01*
X4997Y4205D02*
X5713D01*
X5012Y4198D02*
X5698D01*
X5027Y4190D02*
X5683D01*
X5043Y4182D02*
X5675D01*
X5058Y4175D02*
X5660D01*
X5073Y4167D02*
X5644D01*
X5096Y4160D02*
X5629D01*
X5111Y4152D02*
X5614D01*
X5134Y4144D02*
X5591D01*
X5149Y4137D02*
X5576D01*
X5180Y4129D02*
X5553D01*
X5210Y4121D02*
X5530D01*
X5241Y4114D02*
X5500D01*
X5286Y4106D02*
X5462D01*
M02*
