G04 Layer_Color=16711935*
%FSLAX42Y42*%
%MOMM*%
G71*
G01*
G75*
%ADD74C,1.00*%
%ADD98R,1.30X1.20*%
%ADD99R,1.20X1.30*%
%ADD102R,1.70X1.50*%
%ADD118R,2.40X3.35*%
%ADD122R,1.50X1.70*%
%ADD124R,2.20X1.40*%
%ADD125R,1.40X2.20*%
%ADD127R,0.79X1.50*%
%ADD128R,1.19X1.50*%
%ADD131R,0.85X1.73*%
G04:AMPARAMS|DCode=132|XSize=1.7mm|YSize=1.5mm|CornerRadius=0mm|HoleSize=0mm|Usage=FLASHONLY|Rotation=45.000|XOffset=0mm|YOffset=0mm|HoleType=Round|Shape=Rectangle|*
%AMROTATEDRECTD132*
4,1,4,-0.07,-1.13,-1.13,-0.07,0.07,1.13,1.13,0.07,-0.07,-1.13,0.0*
%
%ADD132ROTATEDRECTD132*%

%ADD138R,1.70X1.70*%
%ADD139C,1.70*%
%ADD140C,1.30*%
%ADD141C,2.40*%
%ADD142R,1.63X1.63*%
%ADD143C,1.63*%
%ADD144C,1.73*%
%ADD145C,2.64*%
%ADD146C,3.45*%
%ADD147C,4.20*%
%ADD148R,1.70X1.70*%
%ADD149C,1.90*%
%ADD150C,1.20*%
%ADD151C,4.96*%
%ADD152R,1.89X1.89*%
%ADD153C,1.89*%
%ADD154C,1.50*%
%ADD155C,0.60*%
%ADD156C,0.70*%
%ADD157R,2.35X3.60*%
%ADD158R,0.76X2.18*%
%ADD159R,1.20X0.80*%
%ADD160R,1.73X0.81*%
G04:AMPARAMS|DCode=161|XSize=1.2mm|YSize=1.3mm|CornerRadius=0mm|HoleSize=0mm|Usage=FLASHONLY|Rotation=315.000|XOffset=0mm|YOffset=0mm|HoleType=Round|Shape=Rectangle|*
%AMROTATEDRECTD161*
4,1,4,-0.89,-0.04,0.04,0.89,0.89,0.04,-0.04,-0.89,-0.89,-0.04,0.0*
%
%ADD161ROTATEDRECTD161*%

%ADD162R,2.10X3.60*%
%ADD163C,17.98*%
%ADD164R,5.28X2.99*%
%ADD165R,1.28X1.32*%
D74*
X7730Y4520D02*
D03*
D98*
X375Y3440D02*
D03*
X205D02*
D03*
X405Y2870D02*
D03*
X235D02*
D03*
X385Y3820D02*
D03*
X215D02*
D03*
X385Y4350D02*
D03*
X215D02*
D03*
X405Y3020D02*
D03*
X235D02*
D03*
X545Y4570D02*
D03*
X375D02*
D03*
X4055Y2360D02*
D03*
X3885D02*
D03*
X4155Y1120D02*
D03*
X4325D02*
D03*
X4495D02*
D03*
X4665D02*
D03*
X4865Y6730D02*
D03*
X5035D02*
D03*
X595Y3320D02*
D03*
X765D02*
D03*
X7645Y6190D02*
D03*
X7475D02*
D03*
X3315Y3720D02*
D03*
X3145D02*
D03*
D99*
X1840Y3400D02*
D03*
Y3230D02*
D03*
X990Y2305D02*
D03*
Y2135D02*
D03*
X2760Y3400D02*
D03*
Y3230D02*
D03*
X4010Y1115D02*
D03*
Y1285D02*
D03*
X3860Y1745D02*
D03*
Y1915D02*
D03*
X2763Y3735D02*
D03*
Y3565D02*
D03*
X3920Y685D02*
D03*
Y515D02*
D03*
X160Y1425D02*
D03*
Y1595D02*
D03*
X830Y2265D02*
D03*
Y2095D02*
D03*
X3570Y4040D02*
D03*
Y4210D02*
D03*
D102*
X1815Y6055D02*
D03*
Y6245D02*
D03*
X6850Y7365D02*
D03*
Y7175D02*
D03*
X6610Y7365D02*
D03*
Y7175D02*
D03*
X2600Y6235D02*
D03*
Y6045D02*
D03*
D118*
X8360Y5538D02*
D03*
X7660D02*
D03*
X8360Y4858D02*
D03*
X7660D02*
D03*
D122*
X1885Y4917D02*
D03*
X2075D02*
D03*
X2725Y6570D02*
D03*
X2915D02*
D03*
D124*
X2850Y2500D02*
D03*
X2570D02*
D03*
X2200Y2700D02*
D03*
X2480D02*
D03*
X3590Y1460D02*
D03*
X3870D02*
D03*
D125*
X3580Y2290D02*
D03*
Y2570D02*
D03*
Y1720D02*
D03*
Y2000D02*
D03*
D127*
X2054Y7457D02*
D03*
X2246D02*
D03*
Y7662D02*
D03*
D128*
X2074D02*
D03*
D131*
X4219Y1679D02*
D03*
X4347D02*
D03*
X4474D02*
D03*
X4601D02*
D03*
Y2221D02*
D03*
X4474D02*
D03*
X4347D02*
D03*
X4219D02*
D03*
X3059Y4461D02*
D03*
X3186D02*
D03*
X3313D02*
D03*
X3440D02*
D03*
Y3919D02*
D03*
X3313D02*
D03*
X3186D02*
D03*
X3059D02*
D03*
D132*
X1901Y4276D02*
D03*
X1766Y4411D02*
D03*
D138*
X2830Y6093D02*
D03*
X780Y4602D02*
D03*
X520Y4826D02*
D03*
X4180Y637D02*
D03*
D139*
X2830Y6347D02*
D03*
X780Y5364D02*
D03*
Y5110D02*
D03*
Y4856D02*
D03*
X266Y5334D02*
D03*
X520D02*
D03*
X266Y5080D02*
D03*
X520D02*
D03*
X266Y4826D02*
D03*
X1032Y1681D02*
D03*
Y1935D02*
D03*
X1286Y1681D02*
D03*
Y1935D02*
D03*
X1540Y1681D02*
D03*
Y1935D02*
D03*
X1794Y1681D02*
D03*
X4180Y383D02*
D03*
D140*
X6330Y230D02*
D03*
X6584D02*
D03*
X5500D02*
D03*
X5754D02*
D03*
X4950D02*
D03*
X5204D02*
D03*
X4400D02*
D03*
X4654D02*
D03*
D141*
X8010Y3470D02*
D03*
Y3970D02*
D03*
D142*
X7153Y6595D02*
D03*
D143*
X7026Y6341D02*
D03*
X6899Y6595D02*
D03*
X6772Y6341D02*
D03*
X6645Y6595D02*
D03*
X6518Y6341D02*
D03*
X6391Y6595D02*
D03*
X6264Y6341D02*
D03*
D144*
X7341Y7720D02*
D03*
X7087Y7568D02*
D03*
X6327Y7720D02*
D03*
X6073Y7568D02*
D03*
D145*
X5921Y6925D02*
D03*
X7496D02*
D03*
D146*
X6137Y7230D02*
D03*
X7280D02*
D03*
D147*
X8150Y600D02*
D03*
X450Y7400D02*
D03*
Y600D02*
D03*
X8150Y7400D02*
D03*
D148*
X1794Y1935D02*
D03*
D149*
X8335Y6090D02*
D03*
Y4340D02*
D03*
D150*
X5050Y7500D02*
D03*
X4610D02*
D03*
D151*
X1120Y970D02*
D03*
X3619D02*
D03*
Y7030D02*
D03*
X1120D02*
D03*
D152*
X2924Y1112D02*
D03*
X1816Y6888D02*
D03*
D153*
X2785Y828D02*
D03*
X2647Y1112D02*
D03*
X2508Y828D02*
D03*
X2369Y1112D02*
D03*
X2231Y828D02*
D03*
X2092Y1112D02*
D03*
X1954Y828D02*
D03*
X1816Y1112D02*
D03*
X1954Y7172D02*
D03*
X2092Y6888D02*
D03*
X2231Y7172D02*
D03*
X2369Y6888D02*
D03*
X2508Y7172D02*
D03*
X2647Y6888D02*
D03*
X2785Y7172D02*
D03*
X2924Y6888D02*
D03*
D154*
X580Y1200D02*
D03*
X380D02*
D03*
X580Y1400D02*
D03*
X380D02*
D03*
X580Y1600D02*
D03*
X380D02*
D03*
X580Y1800D02*
D03*
X380D02*
D03*
X580Y2000D02*
D03*
X380D02*
D03*
X580Y2200D02*
D03*
X380D02*
D03*
X580Y2400D02*
D03*
X380D02*
D03*
X580Y2600D02*
D03*
X380D02*
D03*
X7880Y6670D02*
D03*
X8280D02*
D03*
D155*
X5620Y6720D02*
D03*
X6190Y3910D02*
D03*
X6480Y3880D02*
D03*
X7200Y4740D02*
D03*
X5690Y3490D02*
D03*
X2900Y4410D02*
D03*
X2880Y3920D02*
D03*
X4190Y4950D02*
D03*
X3180Y4160D02*
D03*
X3060Y4260D02*
D03*
X3710Y4250D02*
D03*
X2560Y4410D02*
D03*
X2470Y3910D02*
D03*
Y3710D02*
D03*
X3560Y3350D02*
D03*
X2200Y1530D02*
D03*
X410Y3655D02*
D03*
X2940Y2000D02*
D03*
X1570Y4860D02*
D03*
X1250Y5180D02*
D03*
X1470Y4970D02*
D03*
X1010Y4980D02*
D03*
X4180Y2810D02*
D03*
X1250Y6050D02*
D03*
X3950Y950D02*
D03*
X4640Y1500D02*
D03*
X1120Y5270D02*
D03*
X910Y5230D02*
D03*
X4170Y5540D02*
D03*
X3750Y5700D02*
D03*
X2470Y5390D02*
D03*
X2340Y2940D02*
D03*
X3410Y5910D02*
D03*
X4070Y2980D02*
D03*
X3600Y6450D02*
D03*
X4610Y5790D02*
D03*
X4060Y6900D02*
D03*
X3640Y4730D02*
D03*
X2100Y5260D02*
D03*
X2210Y5170D02*
D03*
X7090Y4350D02*
D03*
X7070Y5780D02*
D03*
X7320Y4520D02*
D03*
X6530Y5790D02*
D03*
X6040Y5650D02*
D03*
X6620Y3790D02*
D03*
X3320Y4770D02*
D03*
X3330Y4910D02*
D03*
X3480Y4920D02*
D03*
X4950Y5150D02*
D03*
X4860Y5480D02*
D03*
X6020Y5250D02*
D03*
X2330Y5280D02*
D03*
X3770Y4050D02*
D03*
X2670Y4740D02*
D03*
X2020Y3300D02*
D03*
X880Y2620D02*
D03*
X1810Y3030D02*
D03*
X4820Y7730D02*
D03*
X3750Y6120D02*
D03*
X3380Y3560D02*
D03*
X3030Y3120D02*
D03*
X2740Y2910D02*
D03*
X2890Y2950D02*
D03*
X3040Y2970D02*
D03*
X3740Y1610D02*
D03*
X2350Y2390D02*
D03*
X4530Y6760D02*
D03*
X4690Y6730D02*
D03*
X250Y3630D02*
D03*
X2900Y3700D02*
D03*
X4260Y6560D02*
D03*
X1520Y3350D02*
D03*
X1410Y3210D02*
D03*
X1310Y4580D02*
D03*
X940Y4180D02*
D03*
X340Y3280D02*
D03*
X480Y3170D02*
D03*
X610Y3500D02*
D03*
X345Y3960D02*
D03*
X1240Y4270D02*
D03*
X210Y4620D02*
D03*
X590Y4230D02*
D03*
X440Y4110D02*
D03*
X5020Y6890D02*
D03*
X4270Y7500D02*
D03*
X5390Y7510D02*
D03*
X990Y3490D02*
D03*
X1120Y3600D02*
D03*
D156*
X6010Y3260D02*
D03*
X4480Y2920D02*
D03*
X810Y6680D02*
D03*
X4430Y2680D02*
D03*
X4960Y930D02*
D03*
X6870Y2940D02*
D03*
X5070Y2720D02*
D03*
X5810Y1470D02*
D03*
X2010Y4110D02*
D03*
X730Y3020D02*
D03*
X4570Y5650D02*
D03*
X1412Y4040D02*
D03*
X1990Y2610D02*
D03*
X2650Y5260D02*
D03*
X4150Y5760D02*
D03*
X4130Y3550D02*
D03*
X6900Y4390D02*
D03*
X4490Y3810D02*
D03*
X3720Y3730D02*
D03*
X5390Y4400D02*
D03*
X4740Y6190D02*
D03*
X4150Y4390D02*
D03*
X3670Y5200D02*
D03*
X4490Y5260D02*
D03*
X5440Y5650D02*
D03*
X3940Y2110D02*
D03*
X7030Y5340D02*
D03*
X4970Y3840D02*
D03*
X1580Y6250D02*
D03*
X5900Y4360D02*
D03*
X5390Y4590D02*
D03*
X5700Y2380D02*
D03*
X5850Y3400D02*
D03*
X5880Y3090D02*
D03*
X1830Y6670D02*
D03*
X1115Y2635D02*
D03*
D157*
X6768Y680D02*
D03*
X6212D02*
D03*
D158*
X2417Y6068D02*
D03*
X2290D02*
D03*
X2163D02*
D03*
X2036D02*
D03*
Y6540D02*
D03*
X2163D02*
D03*
X2290D02*
D03*
X2417D02*
D03*
D159*
X7050Y5950D02*
D03*
Y6045D02*
D03*
Y6140D02*
D03*
X6790Y5950D02*
D03*
Y6140D02*
D03*
D160*
X2600Y1420D02*
D03*
X3146D02*
D03*
X2600Y1547D02*
D03*
Y1674D02*
D03*
X3146Y1547D02*
D03*
Y1674D02*
D03*
X2600Y1801D02*
D03*
X3146D02*
D03*
X2600Y1928D02*
D03*
X3146D02*
D03*
X2600Y2055D02*
D03*
Y2182D02*
D03*
X3146Y2055D02*
D03*
Y2182D02*
D03*
X2600Y2309D02*
D03*
X3146D02*
D03*
D161*
X1330Y2270D02*
D03*
X1450Y2390D02*
D03*
D162*
X4375Y7080D02*
D03*
X4765D02*
D03*
D163*
X7640Y1949D02*
D03*
D164*
Y850D02*
D03*
Y3047D02*
D03*
D165*
X5230Y7106D02*
D03*
Y7430D02*
D03*
M02*
