M48
;Layer_Color=9474304
;FILE_FORMAT=4:2
METRIC,LZ
;TYPE=PLATED
T1F00S00C0.60
T2F00S00C0.70
T3F00S00C0.80
T4F00S00C0.90
T5F00S00C0.91
T6F00S00C1.00
T7F00S00C1.02
T8F00S00C1.09
T9F00S00C1.20
T10F00S00C1.40
T11F00S00C1.63
T12F00S00C3.20
T13F00S00C3.26
;TYPE=NON_PLATED
T14F00S00C1.00
T15F00S00C3.25
%
T01
X00088Y00262
X00181Y00303
X00234Y00294
X00274Y00291
X00289Y00295
X00304Y00297
X00303Y00312
X00407Y00298
X00418Y00281
X00374Y00161
X00395Y00095
X00464Y0015
X00294Y002
X00235Y00239
X0022Y00153
X00619Y00391
X00648Y00388
X00662Y00379
X00709Y00435
X00732Y00452
X0072Y00474
X00707Y00578
X00653Y00579
X00604Y00565
X00602Y00525
X00495Y00515
X00486Y00548
X00461Y00579
X00417Y00554
X00375Y0057
Y00612
X0036Y00645
X00341Y00591
X00348Y00492
X00333Y00491
X00332Y00477
X00364Y00473
X00371Y00425
X00377Y00405
X00318Y00416
X00306Y00426
X0029Y00441
X00256
X00267Y00474
X00247Y00539
X00233Y00528
X00221Y00517
X00238Y00394
X0024Y00376
X00283Y00372
X00288Y00392
X00338Y00356
X00356Y00335
X00419Y00495
X00426Y00656
X00453Y00676
X00469Y00673
X00502Y00689
X00562Y00672
X00406Y0069
X00569Y00349
X00202Y0033
X00152Y00335
X00141Y00321
X00112Y0036
X00099Y00349
X00061Y0035
X00041Y003655
X00025Y00363
X000345Y00396
X00044Y00411
X00059Y00423
X00094Y00418
X00124Y00427
X00131Y00458
X00157Y00486
X00147Y00497
X00125Y00518
X00112Y00527
X00091Y00523
X00101Y00498
X00021Y00462
X00034Y00328
X00048Y00317
X00125Y00605
X0021Y00526
X00427Y0075
X00482Y00773
X00539Y00751
T02
X001115Y002635
X00073Y00302
X00199Y00261
X00394Y00211
X00443Y00268
X00448Y00292
X00507Y00272
X0057Y00238
X00588Y00309
X00581Y00147
X005754Y00023
X0055
X005204
X00495
X004654
X0044
X00496Y00093
X00633Y00023
X006584
X00687Y00294
X0069Y00439
X00703Y00534
X00544Y00565
X00457
X00449Y00526
X00415Y00576
X00474Y00619
X00367Y0052
X00265Y00526
X00415Y00439
X00413Y00355
X00372Y00373
X00449Y00381
X00497Y00384
X00539Y0044
X00539Y00459
X0059Y00436
X00585Y0034
X00601Y00326
X00201Y00411
X001412Y00404
X00158Y00625
X00183Y00667
X00081Y00668
T03
X00788Y00667
X00828
T04
X00038Y0012
Y0014
Y0016
Y0018
Y002
Y0022
Y0024
Y0026
X00058
Y0024
Y0022
Y002
Y0018
Y0016
Y0014
Y0012
X001039Y001683
X001293
X001547
X001801
Y001937
X001547
X001293
X001039
X00418Y000637
Y000383
X00283Y006093
Y006347
X00078Y005364
Y00511
Y004856
Y004602
X000517Y004826
X000263
Y00508
X000517
Y005334
X000263
T05
X006264Y006341
X006518
X006772
X007026
X006899Y006595
X006645
X006391
X007153
T06
X00773Y00452
T07
X006073Y007568
X006327Y00772
X007087Y007568
X007341Y00772
T08
X001954Y000828
X001816Y001112
X002092
X002369
X002647
X002924
X002785Y000828
X002508
X002231
X002369Y006888
X002647
X002924
X002092
X001816
X001954Y007172
X002231
X002508
X002785
T09
X008335Y00434
Y00609
T10
X00801Y00347
Y00397
T11
X007496Y006925
X005921
T12
X00045Y0006
X00815
X00045Y0074
X00815
T13
X00112Y00097
X003619
Y00703
X00112
T14
X00461Y0075
X00505
T15
X006137Y00723
X00728
M30
