G04 Layer_Color=8421504*
%FSLAX42Y42*%
%MOMM*%
G71*
G01*
G75*
%ADD10R,1.40X1.00*%
%ADD11R,0.70X0.60*%
%ADD12R,2.01X1.50*%
%ADD13R,2.01X3.81*%
%ADD14R,2.60X2.40*%
%ADD15R,1.50X1.30*%
%ADD16R,1.10X1.00*%
%ADD17R,1.30X1.50*%
G04:AMPARAMS|DCode=18|XSize=1.5mm|YSize=1.3mm|CornerRadius=0mm|HoleSize=0mm|Usage=FLASHONLY|Rotation=45.000|XOffset=0mm|YOffset=0mm|HoleType=Round|Shape=Rectangle|*
%AMROTATEDRECTD18*
4,1,4,-0.07,-0.99,-0.99,-0.07,0.07,0.99,0.99,0.07,-0.07,-0.99,0.0*
%
%ADD18ROTATEDRECTD18*%

%ADD19R,1.80X1.60*%
%ADD20R,1.00X1.10*%
%ADD21R,0.65X1.52*%
%ADD22R,0.60X2.50*%
%ADD23R,2.00X2.50*%
%ADD24R,0.99X1.30*%
%ADD25R,0.59X1.30*%
%ADD26R,2.18X1.60*%
%ADD27R,0.95X0.80*%
%ADD28R,1.20X2.00*%
%ADD29R,2.00X1.20*%
%ADD30R,5.50X2.00*%
%ADD31R,1.10X1.50*%
%ADD32R,1.95X1.25*%
%ADD33R,2.20X3.15*%
%ADD34R,8.94X10.16*%
%ADD35R,2.69X1.02*%
%ADD36R,1.47X0.28*%
%ADD37R,0.28X1.47*%
%ADD38R,2.21X2.21*%
%ADD39R,0.41X0.91*%
%ADD40R,1.60X1.80*%
%ADD41R,7.00X4.00*%
%ADD42R,4.30X2.10*%
%ADD43R,2.00X1.45*%
%ADD44R,1.50X0.80*%
%ADD45R,1.00X1.80*%
%ADD46R,3.10X2.30*%
%ADD47R,2.10X4.30*%
G04:AMPARAMS|DCode=48|XSize=0.3mm|YSize=1.8mm|CornerRadius=0mm|HoleSize=0mm|Usage=FLASHONLY|Rotation=225.000|XOffset=0mm|YOffset=0mm|HoleType=Round|Shape=Round|*
%AMOVALD48*
21,1,1.50,0.30,0.00,0.00,315.0*
1,1,0.30,-0.53,0.53*
1,1,0.30,0.53,-0.53*
%
%ADD48OVALD48*%

G04:AMPARAMS|DCode=49|XSize=0.3mm|YSize=1.8mm|CornerRadius=0mm|HoleSize=0mm|Usage=FLASHONLY|Rotation=135.000|XOffset=0mm|YOffset=0mm|HoleType=Round|Shape=Round|*
%AMOVALD49*
21,1,1.50,0.30,0.00,0.00,225.0*
1,1,0.30,0.53,0.53*
1,1,0.30,-0.53,-0.53*
%
%ADD49OVALD49*%

D10*
X8080Y6245D02*
D03*
Y6435D02*
D03*
X7860Y6340D02*
D03*
D11*
X3370Y1675D02*
D03*
Y1865D02*
D03*
X3170Y1770D02*
D03*
D12*
X5385Y2796D02*
D03*
Y2567D02*
D03*
Y2339D02*
D03*
D13*
X6015Y2570D02*
D03*
D14*
X6260Y3180D02*
D03*
X5620D02*
D03*
D15*
X5130Y2295D02*
D03*
Y2485D02*
D03*
X5040Y475D02*
D03*
Y665D02*
D03*
X4520Y465D02*
D03*
Y655D02*
D03*
X5480Y475D02*
D03*
Y665D02*
D03*
X6910Y2235D02*
D03*
Y2425D02*
D03*
X6900Y5770D02*
D03*
Y5580D02*
D03*
X6700Y5770D02*
D03*
Y5580D02*
D03*
X5510Y3790D02*
D03*
Y3980D02*
D03*
X5730Y3725D02*
D03*
Y3915D02*
D03*
X5950Y3645D02*
D03*
Y3835D02*
D03*
X5840Y5820D02*
D03*
Y5630D02*
D03*
X5630Y5820D02*
D03*
Y5630D02*
D03*
X6650Y1155D02*
D03*
Y965D02*
D03*
X6650Y1390D02*
D03*
Y1580D02*
D03*
X5550Y7375D02*
D03*
Y7185D02*
D03*
X4100Y7385D02*
D03*
Y7195D02*
D03*
X4190Y6025D02*
D03*
Y6215D02*
D03*
X3950Y6075D02*
D03*
Y5885D02*
D03*
X3900Y2965D02*
D03*
Y3155D02*
D03*
X4020Y6395D02*
D03*
Y6585D02*
D03*
X4920Y2295D02*
D03*
Y2485D02*
D03*
X4127Y3350D02*
D03*
Y3160D02*
D03*
X5480Y5450D02*
D03*
Y5260D02*
D03*
D16*
X7955Y6090D02*
D03*
X7785D02*
D03*
X2755Y5640D02*
D03*
X2925D02*
D03*
X2755Y5790D02*
D03*
X2925D02*
D03*
X3085Y5960D02*
D03*
X3255D02*
D03*
X3085Y6150D02*
D03*
X3255D02*
D03*
X335Y6210D02*
D03*
X165D02*
D03*
X335Y6020D02*
D03*
X165D02*
D03*
X335Y5830D02*
D03*
X165D02*
D03*
X335Y5640D02*
D03*
X165D02*
D03*
X5250Y6080D02*
D03*
X5420D02*
D03*
X5320Y5930D02*
D03*
X5150D02*
D03*
Y5780D02*
D03*
X5320D02*
D03*
X4315Y5430D02*
D03*
X4485D02*
D03*
X5225Y6510D02*
D03*
X5055D02*
D03*
D17*
X1225Y2210D02*
D03*
X1415D02*
D03*
X1225Y2440D02*
D03*
X1035D02*
D03*
X1805Y2210D02*
D03*
X1615D02*
D03*
X6095Y6010D02*
D03*
X6285D02*
D03*
X4765Y5310D02*
D03*
X4955D02*
D03*
X4765Y4980D02*
D03*
X4955D02*
D03*
X4765Y5650D02*
D03*
X4955D02*
D03*
X4505Y4720D02*
D03*
X4695D02*
D03*
X7420Y4950D02*
D03*
X7230D02*
D03*
X3455Y2960D02*
D03*
X3645D02*
D03*
X5295Y6920D02*
D03*
X5485D02*
D03*
X5215Y6710D02*
D03*
X5025D02*
D03*
X7250Y3415D02*
D03*
X7060D02*
D03*
X3715Y3360D02*
D03*
X3905D02*
D03*
X3715Y3560D02*
D03*
X3905D02*
D03*
X4120Y3820D02*
D03*
X3930D02*
D03*
X2815Y5370D02*
D03*
X3005D02*
D03*
X3310Y5590D02*
D03*
X3120D02*
D03*
X3115Y2160D02*
D03*
X3305D02*
D03*
X3525D02*
D03*
X3715D02*
D03*
X6975Y3930D02*
D03*
X6785D02*
D03*
X6975Y4130D02*
D03*
X6785D02*
D03*
X5680Y5380D02*
D03*
X5870D02*
D03*
X5555Y4590D02*
D03*
X5745D02*
D03*
X1955Y2420D02*
D03*
X1765D02*
D03*
X5025Y4600D02*
D03*
X5215D02*
D03*
X5665Y4170D02*
D03*
X5855D02*
D03*
X6725Y5960D02*
D03*
X6535D02*
D03*
X7425Y5300D02*
D03*
X7235D02*
D03*
X5635Y6020D02*
D03*
X5825D02*
D03*
X7105Y5960D02*
D03*
X6915D02*
D03*
X6040Y5820D02*
D03*
X6230D02*
D03*
D18*
X7397Y5533D02*
D03*
X7263Y5667D02*
D03*
D19*
X470Y6610D02*
D03*
Y6890D02*
D03*
X238Y6609D02*
D03*
Y6889D02*
D03*
D20*
X3770Y4780D02*
D03*
Y4610D02*
D03*
X2770Y1935D02*
D03*
Y1765D02*
D03*
X2610Y1935D02*
D03*
Y1765D02*
D03*
X5400Y6505D02*
D03*
Y6675D02*
D03*
X4360Y4510D02*
D03*
Y4340D02*
D03*
X3930Y4245D02*
D03*
Y4415D02*
D03*
X2527Y3020D02*
D03*
Y2850D02*
D03*
X1410Y4245D02*
D03*
Y4415D02*
D03*
D21*
X4300Y4709D02*
D03*
X4173D02*
D03*
X4046D02*
D03*
X3919D02*
D03*
Y5251D02*
D03*
X4046D02*
D03*
X4173D02*
D03*
X4300D02*
D03*
D22*
X4990Y7212D02*
D03*
X4910D02*
D03*
X4830D02*
D03*
X4750D02*
D03*
X4670D02*
D03*
D23*
X5275Y7242D02*
D03*
X4385D02*
D03*
X5275Y7787D02*
D03*
X4385D02*
D03*
D24*
X4214Y6757D02*
D03*
D25*
X4386D02*
D03*
Y6962D02*
D03*
X4194D02*
D03*
D26*
X5320Y3340D02*
D03*
X4400D02*
D03*
D27*
X4100Y7580D02*
D03*
Y7740D02*
D03*
X5550Y7580D02*
D03*
Y7740D02*
D03*
D28*
X5260Y5290D02*
D03*
Y5570D02*
D03*
D29*
X6870Y3220D02*
D03*
X6590D02*
D03*
X6610Y2350D02*
D03*
X6330D02*
D03*
D30*
X3865Y2530D02*
D03*
X2915D02*
D03*
D31*
X2466Y6490D02*
D03*
X2212D02*
D03*
X1958D02*
D03*
X1704D02*
D03*
X1450D02*
D03*
X1196D02*
D03*
X942Y5600D02*
D03*
X1196D02*
D03*
X688D02*
D03*
X1958D02*
D03*
X2466D02*
D03*
X688Y6490D02*
D03*
X942D02*
D03*
X2212Y5600D02*
D03*
X1450D02*
D03*
X1704D02*
D03*
D32*
X6538Y2677D02*
D03*
X6928D02*
D03*
D33*
X6860Y582D02*
D03*
X7560D02*
D03*
D34*
X7838Y1550D02*
D03*
D35*
X6918Y1210D02*
D03*
Y1380D02*
D03*
Y1550D02*
D03*
Y1720D02*
D03*
Y1890D02*
D03*
D36*
X6927Y4511D02*
D03*
Y4559D02*
D03*
Y4610D02*
D03*
Y4661D02*
D03*
Y4709D02*
D03*
Y4760D02*
D03*
Y4811D02*
D03*
Y4861D02*
D03*
Y4910D02*
D03*
Y4961D02*
D03*
Y5011D02*
D03*
Y5060D02*
D03*
X6084D02*
D03*
Y5011D02*
D03*
Y4961D02*
D03*
Y4910D02*
D03*
Y4861D02*
D03*
Y4811D02*
D03*
Y4760D02*
D03*
Y4709D02*
D03*
Y4661D02*
D03*
Y4610D02*
D03*
Y4559D02*
D03*
Y4511D02*
D03*
D37*
X6780Y5207D02*
D03*
X6732D02*
D03*
X6681D02*
D03*
X6630D02*
D03*
X6582D02*
D03*
X6531D02*
D03*
X6480D02*
D03*
X6430D02*
D03*
X6381D02*
D03*
X6331D02*
D03*
X6280D02*
D03*
X6232D02*
D03*
Y4364D02*
D03*
X6280D02*
D03*
X6331D02*
D03*
X6381D02*
D03*
X6430D02*
D03*
X6480D02*
D03*
X6531D02*
D03*
X6582D02*
D03*
X6630D02*
D03*
X6681D02*
D03*
X6732D02*
D03*
X6780D02*
D03*
D38*
X6506Y4785D02*
D03*
D39*
X4418Y6472D02*
D03*
X4481D02*
D03*
X4545D02*
D03*
X4608D02*
D03*
X4672D02*
D03*
X4735D02*
D03*
X4799D02*
D03*
X4862D02*
D03*
Y5928D02*
D03*
X4799D02*
D03*
X4735D02*
D03*
X4672D02*
D03*
X4608D02*
D03*
X4545D02*
D03*
X4481D02*
D03*
X4418D02*
D03*
D40*
X4706Y4230D02*
D03*
X5214D02*
D03*
Y3810D02*
D03*
X4706D02*
D03*
D41*
X5860Y1000D02*
D03*
Y2000D02*
D03*
D42*
X8270Y2630D02*
D03*
X7340D02*
D03*
D43*
X220Y4420D02*
D03*
Y3045D02*
D03*
X1050D02*
D03*
Y4420D02*
D03*
D44*
X790Y3292D02*
D03*
Y3403D02*
D03*
Y3512D02*
D03*
Y3622D02*
D03*
Y3733D02*
D03*
Y3842D02*
D03*
Y3953D02*
D03*
Y4062D02*
D03*
D45*
X2815Y2150D02*
D03*
X2565D02*
D03*
D46*
X7810Y5100D02*
D03*
Y5840D02*
D03*
D47*
X4670Y998D02*
D03*
Y1927D02*
D03*
D48*
X2680Y3172D02*
D03*
X2715Y3207D02*
D03*
X2750Y3243D02*
D03*
X2786Y3278D02*
D03*
X2821Y3313D02*
D03*
X2856Y3349D02*
D03*
X2892Y3384D02*
D03*
X2927Y3419D02*
D03*
X2962Y3455D02*
D03*
X2998Y3490D02*
D03*
X3033Y3525D02*
D03*
X3069Y3561D02*
D03*
X3104Y3596D02*
D03*
X3139Y3631D02*
D03*
X3175Y3667D02*
D03*
X3210Y3702D02*
D03*
X3245Y3738D02*
D03*
X3281Y3773D02*
D03*
X3316Y3808D02*
D03*
X3351Y3844D02*
D03*
X3387Y3879D02*
D03*
X3422Y3914D02*
D03*
X3457Y3950D02*
D03*
X3493Y3985D02*
D03*
X3528Y4020D02*
D03*
X2460Y5088D02*
D03*
X2425Y5053D02*
D03*
X2390Y5017D02*
D03*
X2354Y4982D02*
D03*
X2319Y4947D02*
D03*
X2284Y4911D02*
D03*
X2248Y4876D02*
D03*
X2213Y4841D02*
D03*
X2178Y4805D02*
D03*
X2142Y4770D02*
D03*
X2107Y4735D02*
D03*
X2071Y4699D02*
D03*
X2036Y4664D02*
D03*
X2001Y4629D02*
D03*
X1965Y4593D02*
D03*
X1930Y4558D02*
D03*
X1895Y4522D02*
D03*
X1859Y4487D02*
D03*
X1824Y4452D02*
D03*
X1789Y4416D02*
D03*
X1753Y4381D02*
D03*
X1718Y4346D02*
D03*
X1683Y4310D02*
D03*
X1647Y4275D02*
D03*
X1612Y4240D02*
D03*
D49*
X3528Y4240D02*
D03*
X3493Y4275D02*
D03*
X3457Y4310D02*
D03*
X3422Y4346D02*
D03*
X3387Y4381D02*
D03*
X3351Y4416D02*
D03*
X3316Y4452D02*
D03*
X3281Y4487D02*
D03*
X3245Y4522D02*
D03*
X3210Y4558D02*
D03*
X3175Y4593D02*
D03*
X3139Y4629D02*
D03*
X3104Y4664D02*
D03*
X3069Y4699D02*
D03*
X3033Y4735D02*
D03*
X2998Y4770D02*
D03*
X2962Y4805D02*
D03*
X2927Y4841D02*
D03*
X2892Y4876D02*
D03*
X2856Y4911D02*
D03*
X2821Y4947D02*
D03*
X2786Y4982D02*
D03*
X2750Y5017D02*
D03*
X2715Y5053D02*
D03*
X2680Y5088D02*
D03*
X1612Y4020D02*
D03*
X1647Y3985D02*
D03*
X1683Y3950D02*
D03*
X1718Y3914D02*
D03*
X1753Y3879D02*
D03*
X1789Y3844D02*
D03*
X1824Y3808D02*
D03*
X1859Y3773D02*
D03*
X1895Y3738D02*
D03*
X1930Y3702D02*
D03*
X1965Y3667D02*
D03*
X2001Y3631D02*
D03*
X2036Y3596D02*
D03*
X2071Y3561D02*
D03*
X2107Y3525D02*
D03*
X2142Y3490D02*
D03*
X2178Y3455D02*
D03*
X2213Y3419D02*
D03*
X2248Y3384D02*
D03*
X2284Y3349D02*
D03*
X2319Y3313D02*
D03*
X2354Y3278D02*
D03*
X2390Y3243D02*
D03*
X2425Y3207D02*
D03*
X2460Y3172D02*
D03*
M02*
