G04 Layer_Color=65535*
%FSLAX42Y42*%
%MOMM*%
G71*
G01*
G75*
%ADD52C,0.25*%
%ADD53C,0.30*%
%ADD54C,0.50*%
%ADD55C,0.60*%
%ADD58C,0.40*%
%ADD91C,0.20*%
%ADD92C,0.20*%
%ADD93C,0.25*%
%ADD94C,0.15*%
%ADD95C,0.13*%
%ADD96C,0.15*%
%ADD97C,0.15*%
%ADD98C,0.10*%
D52*
X5508Y3410D02*
G03*
X5508Y3410I-12J0D01*
G01*
X7732Y582D02*
G03*
X7732Y582I-12J0D01*
G01*
X2643Y3122D02*
G03*
X2643Y3122I-12J0D01*
G01*
D53*
X6930Y4340D02*
Y4367D01*
X6957D01*
Y4340D01*
X6930D01*
X2232Y3108D02*
Y3159D01*
Y3134D01*
X2105D01*
X2080Y3159D01*
Y3185D01*
X2105Y3210D01*
X2232Y3058D02*
Y2956D01*
Y3007D01*
X2080D01*
Y2905D02*
X2182D01*
X2232Y2855D01*
X2182Y2804D01*
X2080D01*
X2156D01*
Y2905D01*
X2207Y2651D02*
X2232Y2677D01*
Y2728D01*
X2207Y2753D01*
X2105D01*
X2080Y2728D01*
Y2677D01*
X2105Y2651D01*
X2156D01*
Y2702D01*
X1017Y2828D02*
X1042Y2854D01*
Y2905D01*
X1017Y2930D01*
X992D01*
X966Y2905D01*
Y2854D01*
X941Y2828D01*
X915D01*
X890Y2854D01*
Y2905D01*
X915Y2930D01*
X1042Y2778D02*
X890D01*
X941Y2727D01*
X890Y2676D01*
X1042D01*
X1852Y5420D02*
X1700D01*
Y5344D01*
X1725Y5318D01*
X1751D01*
X1776Y5344D01*
Y5420D01*
Y5344D01*
X1802Y5318D01*
X1827D01*
X1852Y5344D01*
Y5420D01*
Y5191D02*
Y5242D01*
X1827Y5268D01*
X1725D01*
X1700Y5242D01*
Y5191D01*
X1725Y5166D01*
X1827D01*
X1852Y5191D01*
Y5039D02*
Y5090D01*
X1827Y5115D01*
X1725D01*
X1700Y5090D01*
Y5039D01*
X1725Y5014D01*
X1827D01*
X1852Y5039D01*
Y4963D02*
Y4861D01*
Y4912D01*
X1700D01*
X2052Y5450D02*
X1925D01*
X1900Y5425D01*
Y5374D01*
X1925Y5348D01*
X2052D01*
X1900Y5298D02*
X2002D01*
X2052Y5247D01*
X2002Y5196D01*
X1900D01*
X1976D01*
Y5298D01*
X1900Y5145D02*
X2052D01*
Y5069D01*
X2027Y5044D01*
X1976D01*
X1951Y5069D01*
Y5145D01*
Y5095D02*
X1900Y5044D01*
X2052Y4993D02*
Y4891D01*
Y4942D01*
X1900D01*
D54*
X8420Y7080D02*
Y6930D01*
X8450Y6900D01*
X8510D01*
X8540Y6930D01*
Y7080D01*
X8430Y7500D02*
Y7620D01*
X8520D01*
X8550Y7590D01*
Y7500D01*
X8540Y7350D02*
X8510Y7380D01*
X8450D01*
X8420Y7350D01*
Y7230D01*
X8450Y7200D01*
X8510D01*
X8540Y7230D01*
Y7900D02*
X8510Y7930D01*
X8450D01*
X8420Y7900D01*
Y7780D01*
X8450Y7750D01*
X8510D01*
X8540Y7780D01*
X7960Y4390D02*
X8120D01*
X8040Y4470D02*
Y4310D01*
D55*
X2600Y3388D02*
G03*
X2600Y3388I-30J0D01*
G01*
X6740Y4530D02*
Y4560D01*
X6770D01*
Y4530D01*
X6740D01*
D58*
X5010Y7022D02*
G03*
X5010Y7022I-20J0D01*
G01*
X8450Y6326D02*
X8467Y6334D01*
X8493Y6360D01*
Y6180D01*
X8484Y6351D02*
Y6180D01*
X8450D02*
X8527D01*
X8471Y6640D02*
X8446Y6631D01*
X8429Y6606D01*
X8420Y6563D01*
Y6537D01*
X8429Y6494D01*
X8446Y6469D01*
X8471Y6460D01*
X8489D01*
X8514Y6469D01*
X8531Y6494D01*
X8540Y6537D01*
Y6563D01*
X8531Y6606D01*
X8514Y6631D01*
X8489Y6640D01*
X8471D01*
X8454Y6631D01*
X8446Y6623D01*
X8437Y6606D01*
X8429Y6563D01*
Y6537D01*
X8437Y6494D01*
X8446Y6477D01*
X8454Y6469D01*
X8471Y6460D01*
X8489D02*
X8506Y6469D01*
X8514Y6477D01*
X8523Y6494D01*
X8531Y6537D01*
Y6563D01*
X8523Y6606D01*
X8514Y6623D01*
X8506Y6631D01*
X8489Y6640D01*
X8475Y6820D02*
Y6720D01*
D91*
X1414Y7981D02*
G03*
X1483Y8050I0J69D01*
G01*
X1553Y8580D02*
G03*
X1484Y8511I0J-69D01*
G01*
X3256Y8050D02*
G03*
X3326Y7981I69J0D01*
G01*
X3256Y8511D02*
G03*
X3186Y8580I-69J0D01*
G01*
X3326Y19D02*
G03*
X3256Y-50I0J-69D01*
G01*
X3186Y-580D02*
G03*
X3256Y-511I0J69D01*
G01*
X1483Y-50D02*
G03*
X1414Y19I-69J0D01*
G01*
X1484Y-511D02*
G03*
X1553Y-580I69J0D01*
G01*
X2963Y2028D02*
G03*
X2963Y2028I-32J0D01*
G01*
X4307Y256D02*
Y764D01*
X4053D02*
X4307D01*
X4053Y256D02*
Y764D01*
Y256D02*
X4307D01*
X6320Y3405D02*
Y3410D01*
Y2950D02*
Y2955D01*
X5560Y2950D02*
X6320D01*
X5560Y3410D02*
X6320D01*
X5560Y2950D02*
Y2955D01*
Y3405D02*
Y3410D01*
X5790Y2950D02*
Y3410D01*
X230Y2800D02*
X730D01*
Y1000D02*
Y2800D01*
X230Y1000D02*
X730D01*
X230D02*
Y2800D01*
X830Y7680D02*
X3910D01*
Y6740D02*
Y7980D01*
X830Y6740D02*
Y7980D01*
X1553Y8580D02*
X3186D01*
X830Y6740D02*
X3910D01*
X3069Y6740D02*
Y7680D01*
X830Y7980D02*
X3910D01*
X1669Y6740D02*
Y7680D01*
X1483Y8050D02*
Y8510D01*
X3256Y8050D02*
Y8510D01*
X390Y6720D02*
Y6780D01*
X550Y6720D02*
Y6780D01*
X390Y6720D02*
X550D01*
X390Y6739D02*
X550D01*
X830Y320D02*
X3910D01*
X830Y20D02*
Y1260D01*
X3910Y20D02*
Y1260D01*
X1553Y-580D02*
X3186D01*
X830Y1260D02*
X3910D01*
X1669Y320D02*
Y1260D01*
X830Y20D02*
X3910D01*
X3069Y320D02*
Y1260D01*
X3256Y-510D02*
Y-50D01*
X1483Y-510D02*
Y-50D01*
X4368Y5175D02*
Y5328D01*
X3865Y5140D02*
X4355D01*
X3865Y4820D02*
Y5140D01*
Y4820D02*
X4355D01*
Y5140D01*
X8110Y4640D02*
X8560D01*
Y5790D01*
X8110D02*
X8560D01*
X8110Y4640D02*
Y5790D01*
X5170Y5260D02*
Y5600D01*
X5350Y5260D02*
Y5600D01*
X5170D02*
X5175D01*
Y5260D02*
Y5390D01*
X5345Y5600D02*
X5350D01*
X5345Y5260D02*
Y5390D01*
X5142Y5213D02*
X5167D01*
X5155Y5195D02*
Y5230D01*
X6560Y3130D02*
X6900D01*
X6560Y3310D02*
X6900D01*
X6560Y3130D02*
Y3135D01*
X6770D02*
X6900D01*
X6560Y3305D02*
Y3310D01*
X6770Y3305D02*
X6900D01*
X6947Y3102D02*
Y3127D01*
X6930Y3115D02*
X6965D01*
X6300Y2260D02*
X6640D01*
X6300Y2440D02*
X6640D01*
X6300Y2260D02*
Y2265D01*
X6510D02*
X6640D01*
X6300Y2435D02*
Y2440D01*
X6510Y2435D02*
X6640D01*
X6688Y2233D02*
Y2258D01*
X6670Y2245D02*
X6705D01*
X158Y6719D02*
Y6779D01*
Y6738D02*
X318D01*
X158Y6719D02*
X318D01*
Y6779D01*
X6507Y2838D02*
X6957D01*
X6507Y2517D02*
X6957D01*
X6815Y778D02*
Y877D01*
X7605D01*
Y778D02*
Y877D01*
X6815Y288D02*
Y388D01*
Y288D02*
X7605D01*
Y388D01*
X8018Y5103D02*
X8080D01*
X8085Y5107D02*
Y5843D01*
X8015Y5848D02*
X8080D01*
X7545Y5103D02*
X7610D01*
X7540Y5107D02*
X7545Y5103D01*
X7540Y5107D02*
Y5843D01*
X7545Y5847D01*
X7607D01*
X1020Y5470D02*
X1650D01*
X1020Y4770D02*
Y5470D01*
Y5280D02*
X1450D01*
X1020Y4670D02*
Y4890D01*
X1450Y4480D02*
Y5470D01*
X1240Y4890D02*
Y5280D01*
X1020Y4890D02*
X1450D01*
X1460Y5010D02*
X1650D01*
Y4480D02*
Y5470D01*
X1020Y4670D02*
X1450D01*
X1450Y4480D02*
X1650D01*
X1450Y4780D02*
X1650D01*
X1460Y5240D02*
X1650D01*
X653Y5491D02*
X907D01*
Y4475D02*
Y5491D01*
X653Y4475D02*
Y5491D01*
Y4475D02*
X907D01*
X2703Y5966D02*
Y6474D01*
Y5966D02*
X2957D01*
Y6474D01*
X2703D02*
X2957D01*
X2570Y3246D02*
X3454Y4130D01*
X1686D02*
X2570Y5014D01*
X1686Y4130D02*
X2570Y3246D01*
Y5014D02*
X3454Y4130D01*
X1190Y2970D02*
X2000D01*
X1780Y2585D02*
Y3355D01*
X1570Y2585D02*
Y3355D01*
X1380Y2585D02*
Y3355D01*
X136Y5461D02*
X644D01*
X136Y4699D02*
X644D01*
X136D02*
Y5461D01*
X644Y4699D02*
Y5461D01*
Y4974D02*
Y5461D01*
X912Y1556D02*
Y2064D01*
X1928Y1556D02*
Y2064D01*
X912Y1556D02*
X1928D01*
X912Y2064D02*
X1928D01*
X3592Y1867D02*
X3512D01*
X3472Y1827D01*
X3512Y1787D01*
X3592D01*
Y1747D02*
X3472D01*
Y1687D01*
X3492Y1667D01*
X3572D01*
X3592Y1687D01*
Y1747D01*
Y1627D02*
Y1547D01*
X3572D01*
X3492Y1627D01*
X3472D01*
X950Y4640D02*
X1030Y4520D01*
Y4640D02*
X950Y4520D01*
X1070D02*
X1110D01*
X1090D01*
Y4640D01*
X1070Y4620D01*
X1170D02*
X1190Y4640D01*
X1230D01*
X1250Y4620D01*
Y4540D01*
X1230Y4520D01*
X1190D01*
X1170Y4540D01*
Y4620D01*
X2900Y1690D02*
X2880Y1670D01*
Y1630D01*
X2900Y1610D01*
X2980D01*
X3000Y1630D01*
Y1670D01*
X2980Y1690D01*
X3000Y1730D02*
Y1770D01*
Y1750D01*
X2880D01*
X2900Y1730D01*
X2880Y1910D02*
X2900Y1870D01*
X2940Y1830D01*
X2980D01*
X3000Y1850D01*
Y1890D01*
X2980Y1910D01*
X2960D01*
X2940Y1890D01*
Y1830D01*
X2380Y1770D02*
X2360Y1750D01*
Y1710D01*
X2380Y1690D01*
X2460D01*
X2480Y1710D01*
Y1750D01*
X2460Y1770D01*
X2480Y1810D02*
Y1850D01*
Y1830D01*
X2360D01*
X2380Y1810D01*
X2360Y1990D02*
Y1910D01*
X2420D01*
X2400Y1950D01*
Y1970D01*
X2420Y1990D01*
X2460D01*
X2480Y1970D01*
Y1930D01*
X2460Y1910D01*
X2440Y2410D02*
Y2290D01*
X2500D01*
X2520Y2310D01*
Y2330D01*
X2500Y2350D01*
X2440D01*
X2500D01*
X2520Y2370D01*
Y2390D01*
X2500Y2410D01*
X2440D01*
X2640Y2310D02*
Y2390D01*
X2620Y2410D01*
X2580D01*
X2560Y2390D01*
Y2310D01*
X2580Y2290D01*
X2620D01*
X2600Y2330D02*
X2640Y2290D01*
X2620D02*
X2640Y2310D01*
X2680Y2290D02*
X2720D01*
X2700D01*
Y2410D01*
X2680Y2390D01*
X2150Y2460D02*
X2130Y2480D01*
X2090D01*
X2070Y2460D01*
Y2380D01*
X2090Y2360D01*
X2130D01*
X2150Y2380D01*
X2250Y2360D02*
Y2480D01*
X2190Y2420D01*
X2270D01*
X2310Y2460D02*
X2330Y2480D01*
X2370D01*
X2390Y2460D01*
Y2440D01*
X2370Y2420D01*
X2350D01*
X2370D01*
X2390Y2400D01*
Y2380D01*
X2370Y2360D01*
X2330D01*
X2310Y2380D01*
X5180Y6170D02*
Y6290D01*
X5240D01*
X5260Y6270D01*
Y6230D01*
X5240Y6210D01*
X5180D01*
X5220D02*
X5260Y6170D01*
X5380Y6290D02*
X5300D01*
Y6230D01*
X5340Y6250D01*
X5360D01*
X5380Y6230D01*
Y6190D01*
X5360Y6170D01*
X5320D01*
X5300Y6190D01*
X5420Y6270D02*
X5440Y6290D01*
X5480D01*
X5500Y6270D01*
Y6250D01*
X5480Y6230D01*
X5460D01*
X5480D01*
X5500Y6210D01*
Y6190D01*
X5480Y6170D01*
X5440D01*
X5420Y6190D01*
X5060Y5930D02*
X4960D01*
Y5980D01*
X4977Y5997D01*
X5010D01*
X5027Y5980D01*
Y5930D01*
Y5963D02*
X5060Y5997D01*
X4960Y6097D02*
Y6030D01*
X5010D01*
X4993Y6063D01*
Y6080D01*
X5010Y6097D01*
X5043D01*
X5060Y6080D01*
Y6047D01*
X5043Y6030D01*
X5060Y6130D02*
Y6163D01*
Y6147D01*
X4960D01*
X4977Y6130D01*
X4790Y5760D02*
Y5860D01*
X4840D01*
X4857Y5843D01*
Y5810D01*
X4840Y5793D01*
X4790D01*
X4823D02*
X4857Y5760D01*
X4940D02*
Y5860D01*
X4890Y5810D01*
X4957D01*
X5040Y5760D02*
Y5860D01*
X4990Y5810D01*
X5057D01*
X3630Y5110D02*
X3750D01*
Y5050D01*
X3730Y5030D01*
X3690D01*
X3670Y5050D01*
Y5110D01*
Y5070D02*
X3630Y5030D01*
X3750Y4910D02*
Y4990D01*
X3690D01*
X3710Y4950D01*
Y4930D01*
X3690Y4910D01*
X3650D01*
X3630Y4930D01*
Y4970D01*
X3650Y4990D01*
X3910Y5390D02*
Y5490D01*
X3960D01*
X3977Y5473D01*
Y5440D01*
X3960Y5423D01*
X3910D01*
X3943D02*
X3977Y5390D01*
X4010D02*
X4043D01*
X4027D01*
Y5490D01*
X4010Y5473D01*
X1540Y6090D02*
X1520Y6110D01*
X1480D01*
X1460Y6090D01*
Y6070D01*
X1480Y6050D01*
X1520D01*
X1540Y6030D01*
Y6010D01*
X1520Y5990D01*
X1480D01*
X1460Y6010D01*
X1660Y5990D02*
X1580D01*
X1660Y6070D01*
Y6090D01*
X1640Y6110D01*
X1600D01*
X1580Y6090D01*
X8120Y6950D02*
X8040Y7070D01*
Y6950D02*
X8120Y7070D01*
X8000D02*
X7960D01*
X7980D01*
Y6950D01*
X8000Y6970D01*
X7820Y7070D02*
X7900D01*
X7820Y6990D01*
Y6970D01*
X7840Y6950D01*
X7880D01*
X7900Y6970D01*
X720Y7710D02*
X640Y7830D01*
Y7710D02*
X720Y7830D01*
X520Y7710D02*
X600D01*
Y7770D01*
X560Y7750D01*
X540D01*
X520Y7770D01*
Y7810D01*
X540Y7830D01*
X580D01*
X600Y7810D01*
X2450Y1550D02*
X2530Y1430D01*
Y1550D02*
X2450Y1430D01*
X2570Y1550D02*
X2650D01*
Y1530D01*
X2570Y1450D01*
Y1430D01*
X7254Y5890D02*
X7339Y5975D01*
X7382Y5932D01*
X7382Y5904D01*
X7353Y5876D01*
X7325D01*
X7283Y5918D01*
X7311Y5890D02*
X7311Y5833D01*
X7480D02*
X7438Y5848D01*
X7382Y5848D01*
X7353Y5819D01*
Y5791D01*
X7382Y5763D01*
X7410D01*
X7424Y5777D01*
Y5805D01*
X7382Y5848D01*
X7565Y5749D02*
X7509Y5805D01*
X7466Y5763D01*
X7509Y5749D01*
X7523Y5734D01*
Y5706D01*
X7495Y5678D01*
X7466D01*
X7438Y5706D01*
Y5734D01*
X6590Y5380D02*
X6470D01*
Y5440D01*
X6490Y5460D01*
X6530D01*
X6550Y5440D01*
Y5380D01*
Y5420D02*
X6590Y5460D01*
X6470Y5580D02*
X6490Y5540D01*
X6530Y5500D01*
X6570D01*
X6590Y5520D01*
Y5560D01*
X6570Y5580D01*
X6550D01*
X6530Y5560D01*
Y5500D01*
X6590Y5620D02*
Y5660D01*
Y5640D01*
X6470D01*
X6490Y5620D01*
X6015Y6120D02*
Y6240D01*
X6075D01*
X6095Y6220D01*
Y6180D01*
X6075Y6160D01*
X6015D01*
X6055D02*
X6095Y6120D01*
X6215Y6240D02*
X6135D01*
Y6180D01*
X6175Y6200D01*
X6195D01*
X6215Y6180D01*
Y6140D01*
X6195Y6120D01*
X6155D01*
X6135Y6140D01*
X6255Y6220D02*
X6275Y6240D01*
X6315D01*
X6335Y6220D01*
Y6200D01*
X6315Y6180D01*
X6335Y6160D01*
Y6140D01*
X6315Y6120D01*
X6275D01*
X6255Y6140D01*
Y6160D01*
X6275Y6180D01*
X6255Y6200D01*
Y6220D01*
X6275Y6180D02*
X6315D01*
X4610Y5100D02*
Y5200D01*
X4660D01*
X4677Y5183D01*
Y5150D01*
X4660Y5133D01*
X4610D01*
X4643D02*
X4677Y5100D01*
X4777Y5200D02*
X4710D01*
Y5150D01*
X4743Y5167D01*
X4760D01*
X4777Y5150D01*
Y5117D01*
X4760Y5100D01*
X4727D01*
X4710Y5117D01*
X4877Y5100D02*
X4810D01*
X4877Y5167D01*
Y5183D01*
X4860Y5200D01*
X4827D01*
X4810Y5183D01*
X5070Y4920D02*
Y5040D01*
X5130D01*
X5150Y5020D01*
Y4980D01*
X5130Y4960D01*
X5070D01*
X5110D02*
X5150Y4920D01*
X5270Y5040D02*
X5190D01*
Y4980D01*
X5230Y5000D01*
X5250D01*
X5270Y4980D01*
Y4940D01*
X5250Y4920D01*
X5210D01*
X5190Y4940D01*
X5310Y5020D02*
X5330Y5040D01*
X5370D01*
X5390Y5020D01*
Y4940D01*
X5370Y4920D01*
X5330D01*
X5310Y4940D01*
Y5020D01*
X6360Y3600D02*
X6240D01*
Y3660D01*
X6260Y3680D01*
X6300D01*
X6320Y3660D01*
Y3600D01*
Y3640D02*
X6360Y3680D01*
Y3780D02*
X6240D01*
X6300Y3720D01*
Y3800D01*
X6340Y3840D02*
X6360Y3860D01*
Y3900D01*
X6340Y3920D01*
X6260D01*
X6240Y3900D01*
Y3860D01*
X6260Y3840D01*
X6280D01*
X6300Y3860D01*
Y3920D01*
X4210Y5600D02*
Y5700D01*
X4260D01*
X4277Y5683D01*
Y5650D01*
X4260Y5633D01*
X4210D01*
X4243D02*
X4277Y5600D01*
X4360D02*
Y5700D01*
X4310Y5650D01*
X4377D01*
X4410Y5683D02*
X4427Y5700D01*
X4460D01*
X4477Y5683D01*
Y5667D01*
X4460Y5650D01*
X4477Y5633D01*
Y5617D01*
X4460Y5600D01*
X4427D01*
X4410Y5617D01*
Y5633D01*
X4427Y5650D01*
X4410Y5667D01*
Y5683D01*
X4427Y5650D02*
X4460D01*
X6000Y5430D02*
Y5550D01*
X6060D01*
X6080Y5530D01*
Y5490D01*
X6060Y5470D01*
X6000D01*
X6040D02*
X6080Y5430D01*
X6180D02*
Y5550D01*
X6120Y5490D01*
X6200D01*
X6240Y5530D02*
X6260Y5550D01*
X6300D01*
X6320Y5530D01*
Y5510D01*
X6300Y5490D01*
X6280D01*
X6300D01*
X6320Y5470D01*
Y5450D01*
X6300Y5430D01*
X6260D01*
X6240Y5450D01*
X5530Y5590D02*
X5410D01*
Y5650D01*
X5430Y5670D01*
X5470D01*
X5490Y5650D01*
Y5590D01*
Y5630D02*
X5530Y5670D01*
Y5770D02*
X5410D01*
X5470Y5710D01*
Y5790D01*
X5530Y5910D02*
Y5830D01*
X5450Y5910D01*
X5430D01*
X5410Y5890D01*
Y5850D01*
X5430Y5830D01*
X6220Y3640D02*
X6100D01*
Y3700D01*
X6120Y3720D01*
X6160D01*
X6180Y3700D01*
Y3640D01*
Y3680D02*
X6220Y3720D01*
Y3820D02*
X6100D01*
X6160Y3760D01*
Y3840D01*
X6100Y3960D02*
X6120Y3920D01*
X6160Y3880D01*
X6200D01*
X6220Y3900D01*
Y3940D01*
X6200Y3960D01*
X6180D01*
X6160Y3940D01*
Y3880D01*
X4480Y4470D02*
Y4590D01*
X4540D01*
X4560Y4570D01*
Y4530D01*
X4540Y4510D01*
X4480D01*
X4520D02*
X4560Y4470D01*
X4660D02*
Y4590D01*
X4600Y4530D01*
X4680D01*
X4800Y4590D02*
X4720D01*
Y4530D01*
X4760Y4550D01*
X4780D01*
X4800Y4530D01*
Y4490D01*
X4780Y4470D01*
X4740D01*
X4720Y4490D01*
X490Y6240D02*
Y6360D01*
X550D01*
X570Y6340D01*
Y6300D01*
X550Y6280D01*
X490D01*
X530D02*
X570Y6240D01*
X690Y6360D02*
X610D01*
Y6300D01*
X650Y6320D01*
X670D01*
X690Y6300D01*
Y6260D01*
X670Y6240D01*
X630D01*
X610Y6260D01*
X730Y6360D02*
X810D01*
Y6340D01*
X730Y6260D01*
Y6240D01*
X480Y6080D02*
Y6200D01*
X540D01*
X560Y6180D01*
Y6140D01*
X540Y6120D01*
X480D01*
X520D02*
X560Y6080D01*
X680Y6200D02*
X600D01*
Y6140D01*
X640Y6160D01*
X660D01*
X680Y6140D01*
Y6100D01*
X660Y6080D01*
X620D01*
X600Y6100D01*
X800Y6200D02*
X760Y6180D01*
X720Y6140D01*
Y6100D01*
X740Y6080D01*
X780D01*
X800Y6100D01*
Y6120D01*
X780Y6140D01*
X720D01*
X480Y5930D02*
Y6050D01*
X540D01*
X560Y6030D01*
Y5990D01*
X540Y5970D01*
X480D01*
X520D02*
X560Y5930D01*
X680Y6050D02*
X600D01*
Y5990D01*
X640Y6010D01*
X660D01*
X680Y5990D01*
Y5950D01*
X660Y5930D01*
X620D01*
X600Y5950D01*
X800Y6050D02*
X720D01*
Y5990D01*
X760Y6010D01*
X780D01*
X800Y5990D01*
Y5950D01*
X780Y5930D01*
X740D01*
X720Y5950D01*
X480Y5780D02*
Y5900D01*
X540D01*
X560Y5880D01*
Y5840D01*
X540Y5820D01*
X480D01*
X520D02*
X560Y5780D01*
X680Y5900D02*
X600D01*
Y5840D01*
X640Y5860D01*
X660D01*
X680Y5840D01*
Y5800D01*
X660Y5780D01*
X620D01*
X600Y5800D01*
X780Y5780D02*
Y5900D01*
X720Y5840D01*
X800D01*
X770Y2140D02*
Y2260D01*
X830D01*
X850Y2240D01*
Y2200D01*
X830Y2180D01*
X770D01*
X810D02*
X850Y2140D01*
X950D02*
Y2260D01*
X890Y2200D01*
X970D01*
X1010Y2240D02*
X1030Y2260D01*
X1070D01*
X1090Y2240D01*
Y2160D01*
X1070Y2140D01*
X1030D01*
X1010Y2160D01*
Y2240D01*
X1330Y2370D02*
Y2490D01*
X1390D01*
X1410Y2470D01*
Y2430D01*
X1390Y2410D01*
X1330D01*
X1370D02*
X1410Y2370D01*
X1450Y2470D02*
X1470Y2490D01*
X1510D01*
X1530Y2470D01*
Y2450D01*
X1510Y2430D01*
X1490D01*
X1510D01*
X1530Y2410D01*
Y2390D01*
X1510Y2370D01*
X1470D01*
X1450Y2390D01*
X1570Y2490D02*
X1650D01*
Y2470D01*
X1570Y2390D01*
Y2370D01*
X1945Y2150D02*
Y2270D01*
X2005D01*
X2025Y2250D01*
Y2210D01*
X2005Y2190D01*
X1945D01*
X1985D02*
X2025Y2150D01*
X2065Y2250D02*
X2085Y2270D01*
X2125D01*
X2145Y2250D01*
Y2230D01*
X2125Y2210D01*
X2105D01*
X2125D01*
X2145Y2190D01*
Y2170D01*
X2125Y2150D01*
X2085D01*
X2065Y2170D01*
X2265Y2270D02*
X2225Y2250D01*
X2185Y2210D01*
Y2170D01*
X2205Y2150D01*
X2245D01*
X2265Y2170D01*
Y2190D01*
X2245Y2210D01*
X2185D01*
X4670Y720D02*
X4790D01*
Y660D01*
X4770Y640D01*
X4730D01*
X4710Y660D01*
Y720D01*
Y680D02*
X4670Y640D01*
X4770Y600D02*
X4790Y580D01*
Y540D01*
X4770Y520D01*
X4750D01*
X4730Y540D01*
Y560D01*
Y540D01*
X4710Y520D01*
X4690D01*
X4670Y540D01*
Y580D01*
X4690Y600D01*
X4770Y480D02*
X4790Y460D01*
Y420D01*
X4770Y400D01*
X4750D01*
X4730Y420D01*
Y440D01*
Y420D01*
X4710Y400D01*
X4690D01*
X4670Y420D01*
Y460D01*
X4690Y480D01*
X5180Y720D02*
X5300D01*
Y660D01*
X5280Y640D01*
X5240D01*
X5220Y660D01*
Y720D01*
Y680D02*
X5180Y640D01*
X5280Y600D02*
X5300Y580D01*
Y540D01*
X5280Y520D01*
X5260D01*
X5240Y540D01*
Y560D01*
Y540D01*
X5220Y520D01*
X5200D01*
X5180Y540D01*
Y580D01*
X5200Y600D01*
X5180Y420D02*
X5300D01*
X5240Y480D01*
Y400D01*
X7560Y4830D02*
Y4950D01*
X7620D01*
X7640Y4930D01*
Y4890D01*
X7620Y4870D01*
X7560D01*
X7600D02*
X7640Y4830D01*
X7680Y4930D02*
X7700Y4950D01*
X7740D01*
X7760Y4930D01*
Y4910D01*
X7740Y4890D01*
X7720D01*
X7740D01*
X7760Y4870D01*
Y4850D01*
X7740Y4830D01*
X7700D01*
X7680Y4850D01*
X7880Y4950D02*
X7800D01*
Y4890D01*
X7840Y4910D01*
X7860D01*
X7880Y4890D01*
Y4850D01*
X7860Y4830D01*
X7820D01*
X7800Y4850D01*
X4170Y3030D02*
X4270D01*
Y2980D01*
X4253Y2963D01*
X4220D01*
X4203Y2980D01*
Y3030D01*
Y2997D02*
X4170Y2963D01*
X4253Y2930D02*
X4270Y2913D01*
Y2880D01*
X4253Y2863D01*
X4237D01*
X4220Y2880D01*
Y2897D01*
Y2880D01*
X4203Y2863D01*
X4187D01*
X4170Y2880D01*
Y2913D01*
X4187Y2930D01*
X4170Y2830D02*
Y2797D01*
Y2813D01*
X4270D01*
X4253Y2830D01*
X3400Y3100D02*
Y3220D01*
X3460D01*
X3480Y3200D01*
Y3160D01*
X3460Y3140D01*
X3400D01*
X3440D02*
X3480Y3100D01*
X3520Y3200D02*
X3540Y3220D01*
X3580D01*
X3600Y3200D01*
Y3180D01*
X3580Y3160D01*
X3560D01*
X3580D01*
X3600Y3140D01*
Y3120D01*
X3580Y3100D01*
X3540D01*
X3520Y3120D01*
X3640Y3200D02*
X3660Y3220D01*
X3700D01*
X3720Y3200D01*
Y3120D01*
X3700Y3100D01*
X3660D01*
X3640Y3120D01*
Y3200D01*
X7040Y2420D02*
X7160D01*
Y2360D01*
X7140Y2340D01*
X7100D01*
X7080Y2360D01*
Y2420D01*
Y2380D02*
X7040Y2340D01*
Y2220D02*
Y2300D01*
X7120Y2220D01*
X7140D01*
X7160Y2240D01*
Y2280D01*
X7140Y2300D01*
X7160Y2180D02*
Y2100D01*
X7140D01*
X7060Y2180D01*
X7040D01*
X4160Y6640D02*
X4280D01*
Y6580D01*
X4260Y6560D01*
X4220D01*
X4200Y6580D01*
Y6640D01*
Y6600D02*
X4160Y6560D01*
Y6520D02*
Y6480D01*
Y6500D01*
X4280D01*
X4260Y6520D01*
X4180Y6420D02*
X4160Y6400D01*
Y6360D01*
X4180Y6340D01*
X4260D01*
X4280Y6360D01*
Y6400D01*
X4260Y6420D01*
X4240D01*
X4220Y6400D01*
Y6340D01*
X3760Y6530D02*
X3880D01*
Y6470D01*
X3860Y6450D01*
X3820D01*
X3800Y6470D01*
Y6530D01*
Y6490D02*
X3760Y6450D01*
Y6410D02*
Y6370D01*
Y6390D01*
X3880D01*
X3860Y6410D01*
X3880Y6230D02*
X3860Y6270D01*
X3820Y6310D01*
X3780D01*
X3760Y6290D01*
Y6250D01*
X3780Y6230D01*
X3800D01*
X3820Y6250D01*
Y6310D01*
X5630Y730D02*
X5750D01*
Y670D01*
X5730Y650D01*
X5690D01*
X5670Y670D01*
Y730D01*
Y690D02*
X5630Y650D01*
X5730Y610D02*
X5750Y590D01*
Y550D01*
X5730Y530D01*
X5710D01*
X5690Y550D01*
Y570D01*
Y550D01*
X5670Y530D01*
X5650D01*
X5630Y550D01*
Y590D01*
X5650Y610D01*
X5630Y410D02*
Y490D01*
X5710Y410D01*
X5730D01*
X5750Y430D01*
Y470D01*
X5730Y490D01*
X4950Y6260D02*
Y6380D01*
X5010D01*
X5030Y6360D01*
Y6320D01*
X5010Y6300D01*
X4950D01*
X4990D02*
X5030Y6260D01*
X5070Y6380D02*
X5150D01*
Y6360D01*
X5070Y6280D01*
Y6260D01*
X5670Y6400D02*
X5550D01*
Y6460D01*
X5570Y6480D01*
X5610D01*
X5630Y6460D01*
Y6400D01*
Y6440D02*
X5670Y6480D01*
X5550Y6600D02*
X5570Y6560D01*
X5610Y6520D01*
X5650D01*
X5670Y6540D01*
Y6580D01*
X5650Y6600D01*
X5630D01*
X5610Y6580D01*
Y6520D01*
X5010Y2160D02*
Y2040D01*
X5090D01*
X5130D02*
X5170D01*
X5150D01*
Y2160D01*
X5130Y2140D01*
X6230Y4170D02*
Y4050D01*
X6290D01*
X6310Y4070D01*
Y4150D01*
X6290Y4170D01*
X6230D01*
X6350Y4050D02*
X6390D01*
X6370D01*
Y4170D01*
X6350Y4150D01*
X6450D02*
X6470Y4170D01*
X6510D01*
X6530Y4150D01*
Y4070D01*
X6510Y4050D01*
X6470D01*
X6450Y4070D01*
Y4150D01*
X5077Y5357D02*
X5060Y5340D01*
Y5307D01*
X5077Y5290D01*
X5143D01*
X5160Y5307D01*
Y5340D01*
X5143Y5357D01*
X5060Y5457D02*
Y5390D01*
X5110D01*
X5093Y5423D01*
Y5440D01*
X5110Y5457D01*
X5143D01*
X5160Y5440D01*
Y5407D01*
X5143Y5390D01*
X5160Y5540D02*
X5060D01*
X5110Y5490D01*
Y5557D01*
X7320Y6090D02*
X7300Y6110D01*
X7260D01*
X7240Y6090D01*
Y6010D01*
X7260Y5990D01*
X7300D01*
X7320Y6010D01*
X7440Y6110D02*
X7360D01*
Y6050D01*
X7400Y6070D01*
X7420D01*
X7440Y6050D01*
Y6010D01*
X7420Y5990D01*
X7380D01*
X7360Y6010D01*
X7480Y5990D02*
X7520D01*
X7500D01*
Y6110D01*
X7480Y6090D01*
X5640Y6250D02*
X5620Y6270D01*
X5580D01*
X5560Y6250D01*
Y6170D01*
X5580Y6150D01*
X5620D01*
X5640Y6170D01*
X5760Y6270D02*
X5680D01*
Y6210D01*
X5720Y6230D01*
X5740D01*
X5760Y6210D01*
Y6170D01*
X5740Y6150D01*
X5700D01*
X5680Y6170D01*
X5800Y6250D02*
X5820Y6270D01*
X5860D01*
X5880Y6250D01*
Y6170D01*
X5860Y6150D01*
X5820D01*
X5800Y6170D01*
Y6250D01*
X7240Y5170D02*
X7220Y5190D01*
X7180D01*
X7160Y5170D01*
Y5090D01*
X7180Y5070D01*
X7220D01*
X7240Y5090D01*
X7340Y5070D02*
Y5190D01*
X7280Y5130D01*
X7360D01*
X7400Y5090D02*
X7420Y5070D01*
X7460D01*
X7480Y5090D01*
Y5170D01*
X7460Y5190D01*
X7420D01*
X7400Y5170D01*
Y5150D01*
X7420Y5130D01*
X7480D01*
X5450Y4880D02*
X5430Y4860D01*
Y4820D01*
X5450Y4800D01*
X5530D01*
X5550Y4820D01*
Y4860D01*
X5530Y4880D01*
X5550Y4980D02*
X5430D01*
X5490Y4920D01*
Y5000D01*
X5430Y5040D02*
Y5120D01*
X5450D01*
X5530Y5040D01*
X5550D01*
X5580Y4380D02*
X5560Y4400D01*
X5520D01*
X5500Y4380D01*
Y4300D01*
X5520Y4280D01*
X5560D01*
X5580Y4300D01*
X5680Y4280D02*
Y4400D01*
X5620Y4340D01*
X5700D01*
X5820Y4400D02*
X5780Y4380D01*
X5740Y4340D01*
Y4300D01*
X5760Y4280D01*
X5800D01*
X5820Y4300D01*
Y4320D01*
X5800Y4340D01*
X5740D01*
X6210Y5690D02*
X6190Y5710D01*
X6150D01*
X6130Y5690D01*
Y5610D01*
X6150Y5590D01*
X6190D01*
X6210Y5610D01*
X6330Y5710D02*
X6250D01*
Y5650D01*
X6290Y5670D01*
X6310D01*
X6330Y5650D01*
Y5610D01*
X6310Y5590D01*
X6270D01*
X6250Y5610D01*
X6450Y5590D02*
X6370D01*
X6450Y5670D01*
Y5690D01*
X6430Y5710D01*
X6390D01*
X6370Y5690D01*
X6545Y6170D02*
X6525Y6190D01*
X6485D01*
X6465Y6170D01*
Y6090D01*
X6485Y6070D01*
X6525D01*
X6545Y6090D01*
X6645Y6070D02*
Y6190D01*
X6585Y6130D01*
X6665D01*
X6705Y6170D02*
X6725Y6190D01*
X6765D01*
X6785Y6170D01*
Y6150D01*
X6765Y6130D01*
X6785Y6110D01*
Y6090D01*
X6765Y6070D01*
X6725D01*
X6705Y6090D01*
Y6110D01*
X6725Y6130D01*
X6705Y6150D01*
Y6170D01*
X6725Y6130D02*
X6765D01*
X5040Y4820D02*
X5020Y4840D01*
X4980D01*
X4960Y4820D01*
Y4740D01*
X4980Y4720D01*
X5020D01*
X5040Y4740D01*
X5140Y4720D02*
Y4840D01*
X5080Y4780D01*
X5160D01*
X5280Y4840D02*
X5200D01*
Y4780D01*
X5240Y4800D01*
X5260D01*
X5280Y4780D01*
Y4740D01*
X5260Y4720D01*
X5220D01*
X5200Y4740D01*
X5680Y4820D02*
X5660Y4840D01*
X5620D01*
X5600Y4820D01*
Y4740D01*
X5620Y4720D01*
X5660D01*
X5680Y4740D01*
X5780Y4720D02*
Y4840D01*
X5720Y4780D01*
X5800D01*
X5920Y4720D02*
X5840D01*
X5920Y4800D01*
Y4820D01*
X5900Y4840D01*
X5860D01*
X5840Y4820D01*
X5700Y5240D02*
X5680Y5260D01*
X5640D01*
X5620Y5240D01*
Y5160D01*
X5640Y5140D01*
X5680D01*
X5700Y5160D01*
X5800Y5140D02*
Y5260D01*
X5740Y5200D01*
X5820D01*
X5860Y5140D02*
X5900D01*
X5880D01*
Y5260D01*
X5860Y5240D01*
X7187Y4160D02*
X7167Y4180D01*
X7127D01*
X7107Y4160D01*
Y4080D01*
X7127Y4060D01*
X7167D01*
X7187Y4080D01*
X7287Y4060D02*
Y4180D01*
X7227Y4120D01*
X7307D01*
X7347Y4160D02*
X7367Y4180D01*
X7407D01*
X7427Y4160D01*
Y4080D01*
X7407Y4060D01*
X7367D01*
X7347Y4080D01*
Y4160D01*
X7187Y3960D02*
X7167Y3980D01*
X7127D01*
X7107Y3960D01*
Y3880D01*
X7127Y3860D01*
X7167D01*
X7187Y3880D01*
X7227Y3960D02*
X7247Y3980D01*
X7287D01*
X7307Y3960D01*
Y3940D01*
X7287Y3920D01*
X7267D01*
X7287D01*
X7307Y3900D01*
Y3880D01*
X7287Y3860D01*
X7247D01*
X7227Y3880D01*
X7347D02*
X7367Y3860D01*
X7407D01*
X7427Y3880D01*
Y3960D01*
X7407Y3980D01*
X7367D01*
X7347Y3960D01*
Y3940D01*
X7367Y3920D01*
X7427D01*
X3540Y2030D02*
X3520Y2050D01*
X3480D01*
X3460Y2030D01*
Y1950D01*
X3480Y1930D01*
X3520D01*
X3540Y1950D01*
X3580Y2030D02*
X3600Y2050D01*
X3640D01*
X3660Y2030D01*
Y2010D01*
X3640Y1990D01*
X3620D01*
X3640D01*
X3660Y1970D01*
Y1950D01*
X3640Y1930D01*
X3600D01*
X3580Y1950D01*
X3700Y2030D02*
X3720Y2050D01*
X3760D01*
X3780Y2030D01*
Y2010D01*
X3760Y1990D01*
X3780Y1970D01*
Y1950D01*
X3760Y1930D01*
X3720D01*
X3700Y1950D01*
Y1970D01*
X3720Y1990D01*
X3700Y2010D01*
Y2030D01*
X3720Y1990D02*
X3760D01*
X3130Y2030D02*
X3110Y2050D01*
X3070D01*
X3050Y2030D01*
Y1950D01*
X3070Y1930D01*
X3110D01*
X3130Y1950D01*
X3170Y2030D02*
X3190Y2050D01*
X3230D01*
X3250Y2030D01*
Y2010D01*
X3230Y1990D01*
X3210D01*
X3230D01*
X3250Y1970D01*
Y1950D01*
X3230Y1930D01*
X3190D01*
X3170Y1950D01*
X3290Y2050D02*
X3370D01*
Y2030D01*
X3290Y1950D01*
Y1930D01*
X4403Y3103D02*
X4420Y3120D01*
Y3153D01*
X4403Y3170D01*
X4337D01*
X4320Y3153D01*
Y3120D01*
X4337Y3103D01*
X4403Y3070D02*
X4420Y3053D01*
Y3020D01*
X4403Y3003D01*
X4387D01*
X4370Y3020D01*
Y3037D01*
Y3020D01*
X4353Y3003D01*
X4337D01*
X4320Y3020D01*
Y3053D01*
X4337Y3070D01*
X4420Y2903D02*
X4403Y2937D01*
X4370Y2970D01*
X4337D01*
X4320Y2953D01*
Y2920D01*
X4337Y2903D01*
X4353D01*
X4370Y2920D01*
Y2970D01*
X3260Y5410D02*
X3240Y5430D01*
X3200D01*
X3180Y5410D01*
Y5330D01*
X3200Y5310D01*
X3240D01*
X3260Y5330D01*
X3300Y5410D02*
X3320Y5430D01*
X3360D01*
X3380Y5410D01*
Y5390D01*
X3360Y5370D01*
X3340D01*
X3360D01*
X3380Y5350D01*
Y5330D01*
X3360Y5310D01*
X3320D01*
X3300Y5330D01*
X3420Y5410D02*
X3440Y5430D01*
X3480D01*
X3500Y5410D01*
Y5390D01*
X3480Y5370D01*
X3460D01*
X3480D01*
X3500Y5350D01*
Y5330D01*
X3480Y5310D01*
X3440D01*
X3420Y5330D01*
X3530Y5600D02*
X3510Y5620D01*
X3470D01*
X3450Y5600D01*
Y5520D01*
X3470Y5500D01*
X3510D01*
X3530Y5520D01*
X3570Y5600D02*
X3590Y5620D01*
X3630D01*
X3650Y5600D01*
Y5580D01*
X3630Y5560D01*
X3610D01*
X3630D01*
X3650Y5540D01*
Y5520D01*
X3630Y5500D01*
X3590D01*
X3570Y5520D01*
X3750Y5500D02*
Y5620D01*
X3690Y5560D01*
X3770D01*
X4327Y3553D02*
X4310Y3570D01*
X4277D01*
X4260Y3553D01*
Y3487D01*
X4277Y3470D01*
X4310D01*
X4327Y3487D01*
X4427Y3470D02*
X4360D01*
X4427Y3537D01*
Y3553D01*
X4410Y3570D01*
X4377D01*
X4360Y3553D01*
X4460D02*
X4477Y3570D01*
X4510D01*
X4527Y3553D01*
Y3537D01*
X4510Y3520D01*
X4527Y3503D01*
Y3487D01*
X4510Y3470D01*
X4477D01*
X4460Y3487D01*
Y3503D01*
X4477Y3520D01*
X4460Y3537D01*
Y3553D01*
X4477Y3520D02*
X4510D01*
X3960Y4060D02*
X3940Y4080D01*
X3900D01*
X3880Y4060D01*
Y3980D01*
X3900Y3960D01*
X3940D01*
X3960Y3980D01*
X4000Y4060D02*
X4020Y4080D01*
X4060D01*
X4080Y4060D01*
Y4040D01*
X4060Y4020D01*
X4040D01*
X4060D01*
X4080Y4000D01*
Y3980D01*
X4060Y3960D01*
X4020D01*
X4000Y3980D01*
X4120Y4060D02*
X4140Y4080D01*
X4180D01*
X4200Y4060D01*
Y3980D01*
X4180Y3960D01*
X4140D01*
X4120Y3980D01*
Y4060D01*
X4327Y3693D02*
X4310Y3710D01*
X4277D01*
X4260Y3693D01*
Y3627D01*
X4277Y3610D01*
X4310D01*
X4327Y3627D01*
X4427Y3610D02*
X4360D01*
X4427Y3677D01*
Y3693D01*
X4410Y3710D01*
X4377D01*
X4360Y3693D01*
X4460Y3627D02*
X4477Y3610D01*
X4510D01*
X4527Y3627D01*
Y3693D01*
X4510Y3710D01*
X4477D01*
X4460Y3693D01*
Y3677D01*
X4477Y3660D01*
X4527D01*
X1460Y3850D02*
X1480Y3870D01*
Y3910D01*
X1460Y3930D01*
X1380D01*
X1360Y3910D01*
Y3870D01*
X1380Y3850D01*
X1460Y3810D02*
X1480Y3790D01*
Y3750D01*
X1460Y3730D01*
X1440D01*
X1420Y3750D01*
Y3770D01*
Y3750D01*
X1400Y3730D01*
X1380D01*
X1360Y3750D01*
Y3790D01*
X1380Y3810D01*
X1360Y3610D02*
Y3690D01*
X1440Y3610D01*
X1460D01*
X1480Y3630D01*
Y3670D01*
X1460Y3690D01*
X2407Y2776D02*
X2427Y2796D01*
Y2836D01*
X2407Y2856D01*
X2327D01*
X2307Y2836D01*
Y2796D01*
X2327Y2776D01*
X2407Y2736D02*
X2427Y2716D01*
Y2676D01*
X2407Y2656D01*
X2387D01*
X2367Y2676D01*
Y2696D01*
Y2676D01*
X2347Y2656D01*
X2327D01*
X2307Y2676D01*
Y2716D01*
X2327Y2736D01*
X2427Y2537D02*
Y2616D01*
X2367D01*
X2387Y2576D01*
Y2557D01*
X2367Y2537D01*
X2327D01*
X2307Y2557D01*
Y2596D01*
X2327Y2616D01*
X6230Y2550D02*
X6210Y2570D01*
X6170D01*
X6150Y2550D01*
Y2470D01*
X6170Y2450D01*
X6210D01*
X6230Y2470D01*
X6350Y2450D02*
X6270D01*
X6350Y2530D01*
Y2550D01*
X6330Y2570D01*
X6290D01*
X6270Y2550D01*
X6470Y2570D02*
X6390D01*
Y2510D01*
X6430Y2530D01*
X6450D01*
X6470Y2510D01*
Y2470D01*
X6450Y2450D01*
X6410D01*
X6390Y2470D01*
X7100Y3260D02*
X7080Y3280D01*
X7040D01*
X7020Y3260D01*
Y3180D01*
X7040Y3160D01*
X7080D01*
X7100Y3180D01*
X7220Y3160D02*
X7140D01*
X7220Y3240D01*
Y3260D01*
X7200Y3280D01*
X7160D01*
X7140Y3260D01*
X7340Y3280D02*
X7300Y3260D01*
X7260Y3220D01*
Y3180D01*
X7280Y3160D01*
X7320D01*
X7340Y3180D01*
Y3200D01*
X7320Y3220D01*
X7260D01*
X4190Y4400D02*
X4210Y4420D01*
Y4460D01*
X4190Y4480D01*
X4110D01*
X4090Y4460D01*
Y4420D01*
X4110Y4400D01*
X4090Y4280D02*
Y4360D01*
X4170Y4280D01*
X4190D01*
X4210Y4300D01*
Y4340D01*
X4190Y4360D01*
X4090Y4160D02*
Y4240D01*
X4170Y4160D01*
X4190D01*
X4210Y4180D01*
Y4220D01*
X4190Y4240D01*
X4880Y2710D02*
X4860Y2690D01*
Y2650D01*
X4880Y2630D01*
X4960D01*
X4980Y2650D01*
Y2690D01*
X4960Y2710D01*
X4980Y2750D02*
Y2790D01*
Y2770D01*
X4860D01*
X4880Y2750D01*
X4980Y2930D02*
Y2850D01*
X4900Y2930D01*
X4880D01*
X4860Y2910D01*
Y2870D01*
X4880Y2850D01*
X7050Y3000D02*
X7030Y3020D01*
X6990D01*
X6970Y3000D01*
Y2920D01*
X6990Y2900D01*
X7030D01*
X7050Y2920D01*
X7090Y3020D02*
X7170D01*
Y3000D01*
X7090Y2920D01*
Y2900D01*
X4100Y6860D02*
X4120Y6880D01*
Y6920D01*
X4100Y6940D01*
X4020D01*
X4000Y6920D01*
Y6880D01*
X4020Y6860D01*
Y6820D02*
X4000Y6800D01*
Y6760D01*
X4020Y6740D01*
X4100D01*
X4120Y6760D01*
Y6800D01*
X4100Y6820D01*
X4080D01*
X4060Y6800D01*
Y6740D01*
X6790Y3470D02*
X6770Y3490D01*
X6730D01*
X6710Y3470D01*
Y3390D01*
X6730Y3370D01*
X6770D01*
X6790Y3390D01*
X6910Y3490D02*
X6870Y3470D01*
X6830Y3430D01*
Y3390D01*
X6850Y3370D01*
X6890D01*
X6910Y3390D01*
Y3410D01*
X6890Y3430D01*
X6830D01*
X4700Y6770D02*
X4680Y6790D01*
X4640D01*
X4620Y6770D01*
Y6690D01*
X4640Y6670D01*
X4680D01*
X4700Y6690D01*
X4820Y6790D02*
X4740D01*
Y6730D01*
X4780Y6750D01*
X4800D01*
X4820Y6730D01*
Y6690D01*
X4800Y6670D01*
X4760D01*
X4740Y6690D01*
X5030Y6940D02*
X5010Y6960D01*
X4970D01*
X4950Y6940D01*
Y6860D01*
X4970Y6840D01*
X5010D01*
X5030Y6860D01*
X5130Y6840D02*
Y6960D01*
X5070Y6900D01*
X5150D01*
X4810Y3690D02*
Y3570D01*
X4870D01*
X4890Y3590D01*
Y3610D01*
X4870Y3630D01*
X4810D01*
X4870D01*
X4890Y3650D01*
Y3670D01*
X4870Y3690D01*
X4810D01*
X5010Y3590D02*
Y3670D01*
X4990Y3690D01*
X4950D01*
X4930Y3670D01*
Y3590D01*
X4950Y3570D01*
X4990D01*
X4970Y3610D02*
X5010Y3570D01*
X4990D02*
X5010Y3590D01*
X5050Y3670D02*
X5070Y3690D01*
X5110D01*
X5130Y3670D01*
Y3650D01*
X5110Y3630D01*
X5090D01*
X5110D01*
X5130Y3610D01*
Y3590D01*
X5110Y3570D01*
X5070D01*
X5050Y3590D01*
X4260Y5850D02*
Y5730D01*
X4320D01*
X4340Y5750D01*
Y5830D01*
X4320Y5850D01*
X4260D01*
X4440Y5730D02*
Y5850D01*
X4380Y5790D01*
X4460D01*
X3370Y6090D02*
Y6210D01*
X3430D01*
X3450Y6190D01*
Y6150D01*
X3430Y6130D01*
X3370D01*
X3410D02*
X3450Y6090D01*
X3570Y6210D02*
X3490D01*
Y6150D01*
X3530Y6170D01*
X3550D01*
X3570Y6150D01*
Y6110D01*
X3550Y6090D01*
X3510D01*
X3490Y6110D01*
X3610D02*
X3630Y6090D01*
X3670D01*
X3690Y6110D01*
Y6190D01*
X3670Y6210D01*
X3630D01*
X3610Y6190D01*
Y6170D01*
X3630Y6150D01*
X3690D01*
X3490Y5910D02*
Y6030D01*
X3550D01*
X3570Y6010D01*
Y5970D01*
X3550Y5950D01*
X3490D01*
X3530D02*
X3570Y5910D01*
X3690Y6030D02*
X3650Y6010D01*
X3610Y5970D01*
Y5930D01*
X3630Y5910D01*
X3670D01*
X3690Y5930D01*
Y5950D01*
X3670Y5970D01*
X3610D01*
X3810Y5910D02*
X3730D01*
X3810Y5990D01*
Y6010D01*
X3790Y6030D01*
X3750D01*
X3730Y6010D01*
X2240Y5950D02*
Y6070D01*
X2300D01*
X2320Y6050D01*
Y6010D01*
X2300Y5990D01*
X2240D01*
X2280D02*
X2320Y5950D01*
X2440Y6070D02*
X2400Y6050D01*
X2360Y6010D01*
Y5970D01*
X2380Y5950D01*
X2420D01*
X2440Y5970D01*
Y5990D01*
X2420Y6010D01*
X2360D01*
X2540Y5950D02*
Y6070D01*
X2480Y6010D01*
X2560D01*
X2240Y5780D02*
Y5900D01*
X2300D01*
X2320Y5880D01*
Y5840D01*
X2300Y5820D01*
X2240D01*
X2280D02*
X2320Y5780D01*
X2440Y5900D02*
X2400Y5880D01*
X2360Y5840D01*
Y5800D01*
X2380Y5780D01*
X2420D01*
X2440Y5800D01*
Y5820D01*
X2420Y5840D01*
X2360D01*
X2560Y5900D02*
X2520Y5880D01*
X2480Y5840D01*
Y5800D01*
X2500Y5780D01*
X2540D01*
X2560Y5800D01*
Y5820D01*
X2540Y5840D01*
X2480D01*
X610Y6900D02*
X710D01*
Y6850D01*
X693Y6833D01*
X660D01*
X643Y6850D01*
Y6900D01*
Y6867D02*
X610Y6833D01*
X710Y6733D02*
X693Y6767D01*
X660Y6800D01*
X627D01*
X610Y6783D01*
Y6750D01*
X627Y6733D01*
X643D01*
X660Y6750D01*
Y6800D01*
X693Y6700D02*
X710Y6683D01*
Y6650D01*
X693Y6633D01*
X677D01*
X660Y6650D01*
X643Y6633D01*
X627D01*
X610Y6650D01*
Y6683D01*
X627Y6700D01*
X643D01*
X660Y6683D01*
X677Y6700D01*
X693D01*
X660Y6683D02*
Y6650D01*
X2027Y1857D02*
X2107Y1737D01*
Y1857D02*
X2027Y1737D01*
X2147Y1757D02*
X2167Y1737D01*
X2207D01*
X2227Y1757D01*
Y1837D01*
X2207Y1857D01*
X2167D01*
X2147Y1837D01*
Y1817D01*
X2167Y1797D01*
X2227D01*
X6500Y3550D02*
X6380D01*
Y3610D01*
X6400Y3630D01*
X6440D01*
X6460Y3610D01*
Y3550D01*
Y3590D02*
X6500Y3630D01*
Y3730D02*
X6380D01*
X6440Y3670D01*
Y3750D01*
X6380Y3790D02*
Y3870D01*
X6400D01*
X6480Y3790D01*
X6500D01*
X4410Y4140D02*
X4430Y4160D01*
Y4200D01*
X4410Y4220D01*
X4330D01*
X4310Y4200D01*
Y4160D01*
X4330Y4140D01*
X4410Y4100D02*
X4430Y4080D01*
Y4040D01*
X4410Y4020D01*
X4390D01*
X4370Y4040D01*
Y4060D01*
Y4040D01*
X4350Y4020D01*
X4330D01*
X4310Y4040D01*
Y4080D01*
X4330Y4100D01*
X147Y7093D02*
X130Y7110D01*
X97D01*
X80Y7093D01*
Y7027D01*
X97Y7010D01*
X130D01*
X147Y7027D01*
X247Y7110D02*
X180D01*
Y7060D01*
X213Y7077D01*
X230D01*
X247Y7060D01*
Y7027D01*
X230Y7010D01*
X197D01*
X180Y7027D01*
X280Y7093D02*
X297Y7110D01*
X330D01*
X347Y7093D01*
Y7077D01*
X330Y7060D01*
X313D01*
X330D01*
X347Y7043D01*
Y7027D01*
X330Y7010D01*
X297D01*
X280Y7027D01*
X6710Y1700D02*
X6590D01*
Y1760D01*
X6610Y1780D01*
X6650D01*
X6670Y1760D01*
Y1700D01*
Y1740D02*
X6710Y1780D01*
Y1900D02*
Y1820D01*
X6630Y1900D01*
X6610D01*
X6590Y1880D01*
Y1840D01*
X6610Y1820D01*
X6590Y2020D02*
X6610Y1980D01*
X6650Y1940D01*
X6690D01*
X6710Y1960D01*
Y2000D01*
X6690Y2020D01*
X6670D01*
X6650Y2000D01*
Y1940D01*
X6700Y515D02*
X6580D01*
Y575D01*
X6600Y595D01*
X6640D01*
X6660Y575D01*
Y515D01*
Y555D02*
X6700Y595D01*
Y715D02*
Y635D01*
X6620Y715D01*
X6600D01*
X6580Y695D01*
Y655D01*
X6600Y635D01*
X6580Y835D02*
Y755D01*
X6640D01*
X6620Y795D01*
Y815D01*
X6640Y835D01*
X6680D01*
X6700Y815D01*
Y775D01*
X6680Y755D01*
X4500Y6910D02*
Y6843D01*
X4533Y6810D01*
X4567Y6843D01*
Y6910D01*
X4600D02*
Y6810D01*
X4650D01*
X4667Y6827D01*
Y6893D01*
X4650Y6910D01*
X4600D01*
X4767Y6810D02*
X4700D01*
X4767Y6877D01*
Y6893D01*
X4750Y6910D01*
X4717D01*
X4700Y6893D01*
X7690Y350D02*
Y270D01*
X7730Y230D01*
X7770Y270D01*
Y350D01*
X7810D02*
Y230D01*
X7870D01*
X7890Y250D01*
Y330D01*
X7870Y350D01*
X7810D01*
X8010D02*
X7970Y330D01*
X7930Y290D01*
Y250D01*
X7950Y230D01*
X7990D01*
X8010Y250D01*
Y270D01*
X7990Y290D01*
X7930D01*
X6180Y2830D02*
Y2710D01*
X6260D01*
X6380D02*
X6300D01*
X6380Y2790D01*
Y2810D01*
X6360Y2830D01*
X6320D01*
X6300Y2810D01*
X4420Y5040D02*
Y4920D01*
X4480D01*
X4500Y4940D01*
Y5020D01*
X4480Y5040D01*
X4420D01*
X4620Y4920D02*
X4540D01*
X4620Y5000D01*
Y5020D01*
X4600Y5040D01*
X4560D01*
X4540Y5020D01*
X361Y4637D02*
X441Y4517D01*
Y4637D02*
X361Y4517D01*
X481Y4617D02*
X501Y4637D01*
X541D01*
X561Y4617D01*
Y4597D01*
X541Y4577D01*
X561Y4557D01*
Y4537D01*
X541Y4517D01*
X501D01*
X481Y4537D01*
Y4557D01*
X501Y4577D01*
X481Y4597D01*
Y4617D01*
X501Y4577D02*
X541D01*
X4640Y3080D02*
X4620Y3100D01*
X4580D01*
X4560Y3080D01*
Y3060D01*
X4580Y3040D01*
X4620D01*
X4640Y3020D01*
Y3000D01*
X4620Y2980D01*
X4580D01*
X4560Y3000D01*
X4680Y2980D02*
X4720D01*
X4700D01*
Y3100D01*
X4680Y3080D01*
X6560Y2190D02*
Y2070D01*
X6620D01*
X6640Y2090D01*
Y2170D01*
X6620Y2190D01*
X6560D01*
X6760D02*
X6680D01*
Y2130D01*
X6720Y2150D01*
X6740D01*
X6760Y2130D01*
Y2090D01*
X6740Y2070D01*
X6700D01*
X6680Y2090D01*
X6054Y750D02*
X5934D01*
X5994D01*
Y670D01*
X6054D01*
X5934D01*
X6054Y630D02*
X5934D01*
Y550D01*
X6054Y430D02*
Y510D01*
X5994D01*
X6014Y470D01*
Y450D01*
X5994Y430D01*
X5954D01*
X5934Y450D01*
Y490D01*
X5954Y510D01*
X6364Y750D02*
X6244D01*
X6304D01*
Y670D01*
X6364D01*
X6244D01*
X6364Y630D02*
X6244D01*
Y550D01*
Y450D02*
X6364D01*
X6304Y510D01*
Y430D01*
X6214Y750D02*
X6094D01*
X6154D01*
Y670D01*
X6214D01*
X6094D01*
X6214Y630D02*
X6094D01*
Y550D01*
X6214Y430D02*
X6194Y470D01*
X6154Y510D01*
X6114D01*
X6094Y490D01*
Y450D01*
X6114Y430D01*
X6134D01*
X6154Y450D01*
Y510D01*
X4080Y2390D02*
Y2270D01*
X4140D01*
X4160Y2290D01*
Y2310D01*
X4140Y2330D01*
X4080D01*
X4140D01*
X4160Y2350D01*
Y2370D01*
X4140Y2390D01*
X4080D01*
X4280Y2290D02*
Y2370D01*
X4260Y2390D01*
X4220D01*
X4200Y2370D01*
Y2290D01*
X4220Y2270D01*
X4260D01*
X4240Y2310D02*
X4280Y2270D01*
X4260D02*
X4280Y2290D01*
X4400Y2270D02*
X4320D01*
X4400Y2350D01*
Y2370D01*
X4380Y2390D01*
X4340D01*
X4320Y2370D01*
X6500Y750D02*
X6380D01*
X6440D01*
Y670D01*
X6500D01*
X6380D01*
X6500Y630D02*
X6380D01*
Y550D01*
Y510D02*
Y470D01*
Y490D01*
X6500D01*
X6480Y510D01*
X3970Y7160D02*
X3850D01*
Y7220D01*
X3870Y7240D01*
X3910D01*
X3930Y7220D01*
Y7160D01*
Y7200D02*
X3970Y7240D01*
Y7360D02*
Y7280D01*
X3890Y7360D01*
X3870D01*
X3850Y7340D01*
Y7300D01*
X3870Y7280D01*
Y7400D02*
X3850Y7420D01*
Y7460D01*
X3870Y7480D01*
X3890D01*
X3910Y7460D01*
Y7440D01*
Y7460D01*
X3930Y7480D01*
X3950D01*
X3970Y7460D01*
Y7420D01*
X3950Y7400D01*
X5810Y7150D02*
X5690D01*
Y7210D01*
X5710Y7230D01*
X5750D01*
X5770Y7210D01*
Y7150D01*
Y7190D02*
X5810Y7230D01*
Y7350D02*
Y7270D01*
X5730Y7350D01*
X5710D01*
X5690Y7330D01*
Y7290D01*
X5710Y7270D01*
X5810Y7450D02*
X5690D01*
X5750Y7390D01*
Y7470D01*
X4750Y7600D02*
X4830Y7480D01*
Y7600D02*
X4750Y7480D01*
X4870D02*
X4910D01*
X4890D01*
Y7600D01*
X4870Y7580D01*
X1687Y3712D02*
X1567Y3633D01*
X1687D02*
X1567Y3712D01*
Y3533D02*
X1687D01*
X1627Y3593D01*
Y3513D01*
X5680Y7510D02*
X5800D01*
X5740D01*
Y7590D01*
X5680D01*
X5800D01*
X5680Y7630D02*
X5800D01*
Y7710D01*
X5700Y7750D02*
X5680Y7770D01*
Y7810D01*
X5700Y7830D01*
X5720D01*
X5740Y7810D01*
Y7790D01*
Y7810D01*
X5760Y7830D01*
X5780D01*
X5800Y7810D01*
Y7770D01*
X5780Y7750D01*
X3840Y7530D02*
X3960D01*
X3900D01*
Y7610D01*
X3840D01*
X3960D01*
X3840Y7650D02*
X3960D01*
Y7730D01*
Y7850D02*
Y7770D01*
X3880Y7850D01*
X3860D01*
X3840Y7830D01*
Y7790D01*
X3860Y7770D01*
X8060Y4770D02*
X7940D01*
Y4830D01*
X7960Y4850D01*
X8000D01*
X8020Y4830D01*
Y4770D01*
Y4810D02*
X8060Y4850D01*
Y4950D02*
X7940D01*
X8000Y4890D01*
Y4970D01*
X8210Y5970D02*
Y6050D01*
X8150D01*
Y6010D01*
Y6050D01*
X8090D01*
Y5930D02*
Y5890D01*
Y5910D01*
X8210D01*
X8190Y5930D01*
X4000Y1630D02*
X3980Y1610D01*
Y1570D01*
X4000Y1550D01*
X4080D01*
X4100Y1570D01*
Y1610D01*
X4080Y1630D01*
X4100Y1670D02*
Y1710D01*
Y1690D01*
X3980D01*
X4000Y1670D01*
Y1770D02*
X3980Y1790D01*
Y1830D01*
X4000Y1850D01*
X4020D01*
X4040Y1830D01*
Y1810D01*
Y1830D01*
X4060Y1850D01*
X4080D01*
X4100Y1830D01*
Y1790D01*
X4080Y1770D01*
X6110Y3530D02*
X6090Y3550D01*
X6050D01*
X6030Y3530D01*
Y3450D01*
X6050Y3430D01*
X6090D01*
X6110Y3450D01*
X6150Y3430D02*
X6190D01*
X6170D01*
Y3550D01*
X6150Y3530D01*
X6250Y3450D02*
X6270Y3430D01*
X6310D01*
X6330Y3450D01*
Y3530D01*
X6310Y3550D01*
X6270D01*
X6250Y3530D01*
Y3510D01*
X6270Y3490D01*
X6330D01*
X5295Y3087D02*
Y2967D01*
X5355D01*
X5375Y2987D01*
Y3067D01*
X5355Y3087D01*
X5295D01*
X5415D02*
X5495D01*
Y3067D01*
X5415Y2987D01*
Y2967D01*
X5120Y2710D02*
X5100Y2690D01*
Y2650D01*
X5120Y2630D01*
X5200D01*
X5220Y2650D01*
Y2690D01*
X5200Y2710D01*
X5220Y2750D02*
Y2790D01*
Y2770D01*
X5100D01*
X5120Y2750D01*
X5220Y2910D02*
X5100D01*
X5160Y2850D01*
Y2930D01*
X410Y2980D02*
X490Y2860D01*
Y2980D02*
X410Y2860D01*
X530D02*
X570D01*
X550D01*
Y2980D01*
X530Y2960D01*
X630Y2860D02*
X670D01*
X650D01*
Y2980D01*
X630Y2960D01*
X2712Y6676D02*
X2792Y6556D01*
Y6676D02*
X2712Y6556D01*
X2832Y6656D02*
X2852Y6676D01*
X2892D01*
X2912Y6656D01*
Y6636D01*
X2892Y6616D01*
X2872D01*
X2892D01*
X2912Y6596D01*
Y6576D01*
X2892Y6556D01*
X2852D01*
X2832Y6576D01*
X3970Y800D02*
X4090Y880D01*
X3970D02*
X4090Y800D01*
X3970Y1000D02*
X3990Y960D01*
X4030Y920D01*
X4070D01*
X4090Y940D01*
Y980D01*
X4070Y1000D01*
X4050D01*
X4030Y980D01*
Y920D01*
X3070Y5160D02*
Y5040D01*
X3130D01*
X3150Y5060D01*
Y5140D01*
X3130Y5160D01*
X3070D01*
X3190Y5140D02*
X3210Y5160D01*
X3250D01*
X3270Y5140D01*
Y5120D01*
X3250Y5100D01*
X3270Y5080D01*
Y5060D01*
X3250Y5040D01*
X3210D01*
X3190Y5060D01*
Y5080D01*
X3210Y5100D01*
X3190Y5120D01*
Y5140D01*
X3210Y5100D02*
X3250D01*
X7390Y6190D02*
Y6310D01*
X7450D01*
X7470Y6290D01*
Y6250D01*
X7450Y6230D01*
X7390D01*
X7430D02*
X7470Y6190D01*
X7510Y6290D02*
X7530Y6310D01*
X7570D01*
X7590Y6290D01*
Y6270D01*
X7570Y6250D01*
X7550D01*
X7570D01*
X7590Y6230D01*
Y6210D01*
X7570Y6190D01*
X7530D01*
X7510Y6210D01*
X7630D02*
X7650Y6190D01*
X7690D01*
X7710Y6210D01*
Y6290D01*
X7690Y6310D01*
X7650D01*
X7630Y6290D01*
Y6270D01*
X7650Y6250D01*
X7710D01*
X8020Y6540D02*
X8100D01*
X8140Y6580D01*
X8100Y6620D01*
X8020D01*
Y6660D02*
Y6740D01*
Y6700D01*
X8140D01*
Y6780D02*
Y6820D01*
Y6800D01*
X8020D01*
X8040Y6780D01*
X3920Y360D02*
Y440D01*
Y400D01*
X4040D01*
Y480D02*
X3920D01*
Y540D01*
X3940Y560D01*
X3980D01*
X4000Y540D01*
Y480D01*
Y520D02*
X4040Y560D01*
Y600D02*
X3920D01*
X3960Y640D01*
X3920Y680D01*
X4040D01*
X1600Y4960D02*
Y4900D01*
Y4930D01*
X1510D01*
X1570Y4870D02*
X1510Y4810D01*
X1540Y4840D01*
X1570Y4810D01*
X1510Y4870D01*
Y5200D02*
X1600D01*
Y5155D01*
X1585Y5140D01*
X1555D01*
X1540Y5155D01*
Y5200D01*
Y5170D02*
X1510Y5140D01*
X1570Y5110D02*
X1510Y5050D01*
X1540Y5080D01*
X1570Y5050D01*
X1510Y5110D01*
X5350Y320D02*
X5430D01*
X5390Y360D02*
Y280D01*
X4160Y200D02*
X4240D01*
X4200Y240D02*
Y160D01*
X4807Y338D02*
X4887D01*
X4847Y378D02*
Y298D01*
X520Y5550D02*
X560D01*
X540D01*
Y5670D01*
X520Y5650D01*
X250Y6460D02*
X210D01*
X190Y6440D01*
Y6360D01*
X210Y6340D01*
X250D01*
X270Y6360D01*
Y6440D01*
X250Y6460D01*
X310Y6340D02*
Y6460D01*
X390Y6340D01*
Y6460D01*
X4640Y2260D02*
X4720D01*
X4680Y2300D02*
Y2220D01*
X7100Y2830D02*
X7180D01*
X7140Y2870D02*
Y2790D01*
X7680Y810D02*
Y890D01*
X7720Y930D01*
X7760Y890D01*
Y810D01*
Y870D01*
X7680D01*
X4010Y7840D02*
Y7960D01*
X4070D01*
X4090Y7940D01*
Y7900D01*
X4070Y7880D01*
X4010D01*
X4050D02*
X4090Y7840D01*
X4130Y7960D02*
X4210Y7840D01*
Y7960D02*
X4130Y7840D01*
X5450Y7960D02*
X5530D01*
X5490D01*
Y7840D01*
X5570Y7960D02*
X5650Y7840D01*
Y7960D02*
X5570Y7840D01*
X1180Y5190D02*
X1080D01*
Y5140D01*
X1097Y5123D01*
X1113D01*
X1130Y5140D01*
Y5190D01*
Y5140D01*
X1147Y5123D01*
X1163D01*
X1180Y5140D01*
Y5190D01*
Y5090D02*
Y5023D01*
Y5057D01*
X1080D01*
X1163Y4990D02*
X1180Y4973D01*
Y4940D01*
X1163Y4923D01*
X1097D01*
X1080Y4940D01*
Y4973D01*
X1097Y4990D01*
X1163D01*
X1940Y2905D02*
X1840D01*
Y2855D01*
X1857Y2838D01*
X1923D01*
X1940Y2855D01*
Y2905D01*
Y2805D02*
Y2772D01*
Y2788D01*
X1840D01*
Y2805D01*
Y2772D01*
X1940Y2672D02*
Y2705D01*
X1923Y2722D01*
X1857D01*
X1840Y2705D01*
Y2672D01*
X1857Y2655D01*
X1923D01*
X1940Y2672D01*
X1713Y2848D02*
X1730Y2865D01*
Y2898D01*
X1713Y2915D01*
X1647D01*
X1630Y2898D01*
Y2865D01*
X1647Y2848D01*
X1730Y2815D02*
X1630D01*
Y2748D01*
X1730Y2715D02*
X1630D01*
X1663D01*
X1730Y2648D01*
X1680Y2698D01*
X1630Y2648D01*
X1513Y2848D02*
X1530Y2865D01*
Y2898D01*
X1513Y2915D01*
X1497D01*
X1480Y2898D01*
Y2865D01*
X1463Y2848D01*
X1447D01*
X1430Y2865D01*
Y2898D01*
X1447Y2915D01*
X1530Y2815D02*
X1430D01*
X1463Y2782D01*
X1430Y2748D01*
X1530D01*
Y2665D02*
Y2698D01*
X1513Y2715D01*
X1447D01*
X1430Y2698D01*
Y2665D01*
X1447Y2648D01*
X1513D01*
X1530Y2665D01*
X3140Y6590D02*
Y6510D01*
Y6550D01*
X3020D01*
Y6470D02*
X3140D01*
Y6410D01*
X3120Y6390D01*
X3080D01*
X3060Y6410D01*
Y6470D01*
Y6430D02*
X3020Y6390D01*
Y6350D02*
X3140D01*
X3100Y6310D01*
X3140Y6270D01*
X3020D01*
X6110Y200D02*
X6190D01*
X6150Y240D02*
Y160D01*
X1933Y3305D02*
X1950Y3288D01*
Y3255D01*
X1933Y3238D01*
X1917D01*
X1900Y3255D01*
Y3272D01*
Y3255D01*
X1883Y3238D01*
X1867D01*
X1850Y3255D01*
Y3288D01*
X1867Y3305D01*
X1950Y3205D02*
X1883D01*
X1850Y3172D01*
X1883Y3138D01*
X1950D01*
X1933Y3105D02*
X1950Y3088D01*
Y3055D01*
X1933Y3038D01*
X1917D01*
X1900Y3055D01*
Y3072D01*
Y3055D01*
X1883Y3038D01*
X1867D01*
X1850Y3055D01*
Y3088D01*
X1867Y3105D01*
X1713Y3305D02*
X1730Y3288D01*
Y3255D01*
X1713Y3238D01*
X1697D01*
X1680Y3255D01*
Y3272D01*
Y3255D01*
X1663Y3238D01*
X1647D01*
X1630Y3255D01*
Y3288D01*
X1647Y3305D01*
X1730Y3205D02*
X1663D01*
X1630Y3172D01*
X1663Y3138D01*
X1730D01*
X1713Y3105D02*
X1730Y3088D01*
Y3055D01*
X1713Y3038D01*
X1697D01*
X1680Y3055D01*
Y3072D01*
Y3055D01*
X1663Y3038D01*
X1647D01*
X1630Y3055D01*
Y3088D01*
X1647Y3105D01*
X1313Y2848D02*
X1330Y2865D01*
Y2898D01*
X1313Y2915D01*
X1247D01*
X1230Y2898D01*
Y2865D01*
X1247Y2848D01*
X1280D01*
Y2882D01*
X1230Y2815D02*
X1330D01*
X1230Y2748D01*
X1330D01*
Y2715D02*
X1230D01*
Y2665D01*
X1247Y2648D01*
X1313D01*
X1330Y2665D01*
Y2715D01*
X1110Y4813D02*
X1127Y4830D01*
X1160D01*
X1177Y4813D01*
Y4797D01*
X1160Y4780D01*
X1143D01*
X1160D01*
X1177Y4763D01*
Y4747D01*
X1160Y4730D01*
X1127D01*
X1110Y4747D01*
X1210Y4830D02*
Y4763D01*
X1243Y4730D01*
X1277Y4763D01*
Y4830D01*
X1310Y4813D02*
X1327Y4830D01*
X1360D01*
X1377Y4813D01*
Y4797D01*
X1360Y4780D01*
X1343D01*
X1360D01*
X1377Y4763D01*
Y4747D01*
X1360Y4730D01*
X1327D01*
X1310Y4747D01*
X1410Y5190D02*
X1310D01*
Y5140D01*
X1327Y5123D01*
X1343D01*
X1360Y5140D01*
Y5190D01*
Y5140D01*
X1377Y5123D01*
X1393D01*
X1410Y5140D01*
Y5190D01*
Y5090D02*
Y5023D01*
Y5057D01*
X1310D01*
Y4990D02*
Y4957D01*
Y4973D01*
X1410D01*
X1393Y4990D01*
X1197Y5423D02*
X1180Y5440D01*
X1147D01*
X1130Y5423D01*
Y5357D01*
X1147Y5340D01*
X1180D01*
X1197Y5357D01*
Y5390D01*
X1163D01*
X1230Y5340D02*
Y5440D01*
X1297Y5340D01*
Y5440D01*
X1330D02*
Y5340D01*
X1380D01*
X1397Y5357D01*
Y5423D01*
X1380Y5440D01*
X1330D01*
X1600Y5370D02*
Y5430D01*
X1555D01*
X1570Y5400D01*
Y5385D01*
X1555Y5370D01*
X1525D01*
X1510Y5385D01*
Y5415D01*
X1525Y5430D01*
X1600Y5340D02*
X1540D01*
X1510Y5310D01*
X1540Y5280D01*
X1600D01*
X1585Y4690D02*
X1600Y4705D01*
Y4735D01*
X1585Y4750D01*
X1525D01*
X1510Y4735D01*
Y4705D01*
X1525Y4690D01*
X1555D01*
Y4720D01*
X1510Y4660D02*
X1600D01*
X1510Y4600D01*
X1600D01*
Y4570D02*
X1510D01*
Y4525D01*
X1525Y4510D01*
X1585D01*
X1600Y4525D01*
Y4570D01*
X1510Y3263D02*
Y3297D01*
Y3280D01*
X1427D01*
X1410Y3297D01*
Y3313D01*
X1427Y3330D01*
X1410Y3230D02*
X1510D01*
Y3180D01*
X1493Y3163D01*
X1460D01*
X1443Y3180D01*
Y3230D01*
Y3197D02*
X1410Y3163D01*
X1493Y3063D02*
X1510Y3080D01*
Y3113D01*
X1493Y3130D01*
X1477D01*
X1460Y3113D01*
Y3080D01*
X1443Y3063D01*
X1427D01*
X1410Y3080D01*
Y3113D01*
X1427Y3130D01*
X1320Y3233D02*
Y3267D01*
Y3250D01*
X1237D01*
X1220Y3267D01*
Y3283D01*
X1237Y3300D01*
X1320Y3200D02*
X1220D01*
Y3150D01*
X1237Y3133D01*
X1303D01*
X1320Y3150D01*
Y3200D01*
Y3100D02*
Y3033D01*
Y3067D01*
X1220D01*
D92*
X4390Y6149D02*
G03*
X4390Y6251I0J51D01*
G01*
Y6001D02*
X4890D01*
X4390D02*
Y6399D01*
X4890D01*
Y6001D02*
Y6399D01*
D93*
X4595Y3697D02*
G03*
X4595Y3697I-11J0D01*
G01*
X7025Y2643D02*
G03*
X7025Y2643I-9J0D01*
G01*
X1308Y4071D02*
G03*
X1308Y4071I-10J0D01*
G01*
X4727Y230D02*
G03*
X4727Y230I-200J0D01*
G01*
X5277D02*
G03*
X5277Y230I-200J0D01*
G01*
X5827D02*
G03*
X5827Y230I-200J0D01*
G01*
X6657D02*
G03*
X6657Y230I-200J0D01*
G01*
X4692Y2252D02*
G03*
X4692Y2252I-9J0D01*
G01*
X2765Y2780D02*
X4015D01*
X2765Y2280D02*
Y2780D01*
Y2280D02*
X4015D01*
Y2780D01*
X498Y5740D02*
Y6360D01*
X2628D01*
Y5740D02*
Y6360D01*
X498Y5740D02*
X2628D01*
X498Y5850D02*
Y5880D01*
Y5850D02*
X608Y5740D01*
X4810Y4280D02*
X5110D01*
X4810Y3760D02*
X5110D01*
X5320D02*
Y4280D01*
X4600Y3760D02*
Y4280D01*
X8320Y2770D02*
Y3145D01*
Y2115D02*
Y2490D01*
X7290Y2115D02*
Y2490D01*
Y2770D02*
Y3145D01*
Y2115D02*
X8320D01*
X7290Y3145D02*
X8320D01*
X5756Y6151D02*
Y8310D01*
Y6151D02*
X7661D01*
Y8310D01*
X5756D02*
X7661D01*
X7500Y4220D02*
X8570D01*
X7500Y3220D02*
Y4220D01*
Y3220D02*
X8570D01*
Y4220D01*
X8310Y4070D02*
X8570D01*
X8310Y3880D02*
Y4070D01*
Y3880D02*
X8560D01*
X8310Y3570D02*
X8570D01*
X8310Y3380D02*
Y3570D01*
Y3380D02*
X8570D01*
X1185Y3052D02*
Y4412D01*
X359Y3052D02*
X909D01*
X368Y4412D02*
X911D01*
X-145D02*
X66D01*
X-145Y3052D02*
X73D01*
X-145D02*
Y4412D01*
X4810Y948D02*
X5185D01*
X4155D02*
X4530D01*
X4155Y1977D02*
X4530D01*
X4810D02*
X5185D01*
X4155Y948D02*
Y1977D01*
X5185Y948D02*
Y1977D01*
X1180Y3370D02*
X2000D01*
Y2585D02*
Y3370D01*
X1180Y2585D02*
X2000D01*
X1180D02*
Y3370D01*
X7170Y3762D02*
X7272Y3610D01*
Y3762D02*
X7170Y3610D01*
X7424D02*
X7322D01*
X7424Y3712D01*
Y3737D01*
X7399Y3762D01*
X7348D01*
X7322Y3737D01*
D94*
X3204Y1613D02*
X3335D01*
X3204D02*
Y1719D01*
Y1927D02*
X3335D01*
X3204Y1826D02*
Y1927D01*
X6828Y4435D02*
X6856D01*
X6155D02*
Y4463D01*
Y5136D02*
X6183D01*
X6856Y5108D02*
Y5136D01*
X6828D02*
X6856D01*
X6155Y5108D02*
Y5136D01*
Y4435D02*
X6183D01*
X6856D02*
Y4463D01*
D95*
X5527Y2882D02*
X5873D01*
X5527Y2258D02*
X5873D01*
Y2882D01*
X5527Y2258D02*
Y2882D01*
X4445Y7940D02*
Y8085D01*
X5215D01*
Y7940D02*
Y8085D01*
X4520Y7165D02*
X4615D01*
X5045D02*
X5140D01*
X5215Y7390D02*
Y7635D01*
X4445Y7390D02*
Y7635D01*
X4560Y3515D02*
X5160D01*
Y3165D02*
Y3515D01*
X4560Y3165D02*
X5160D01*
X4560D02*
Y3515D01*
D96*
X5030Y2202D02*
Y2302D01*
X5230Y2202D02*
Y2302D01*
X5030Y2202D02*
X5230D01*
X5030Y2577D02*
X5230D01*
X5030Y2477D02*
Y2577D01*
X5230Y2477D02*
Y2577D01*
X7703Y6015D02*
X7795D01*
X7703D02*
Y6165D01*
X7795D01*
X7945Y6015D02*
X8038D01*
Y6165D01*
X7945D02*
X8038D01*
X1132Y2310D02*
X1232D01*
X1132Y2110D02*
X1232D01*
X1132D02*
Y2310D01*
X1507Y2110D02*
Y2310D01*
X1407D02*
X1507D01*
X1407Y2110D02*
X1507D01*
X1218Y2340D02*
X1318D01*
X1218Y2540D02*
X1318D01*
Y2340D02*
Y2540D01*
X943Y2340D02*
Y2540D01*
Y2340D02*
X1043D01*
X943Y2540D02*
X1043D01*
X1798Y2110D02*
X1898D01*
X1798Y2310D02*
X1898D01*
Y2110D02*
Y2310D01*
X1523Y2110D02*
Y2310D01*
Y2110D02*
X1623D01*
X1523Y2310D02*
X1623D01*
X4940Y383D02*
Y482D01*
X5140Y383D02*
Y482D01*
X4940Y383D02*
X5140D01*
X4940Y757D02*
X5140D01*
X4940Y657D02*
Y757D01*
X5140Y657D02*
Y757D01*
X4420Y372D02*
Y472D01*
X4620Y372D02*
Y472D01*
X4420Y372D02*
X4620D01*
X4420Y747D02*
X4620D01*
X4420Y647D02*
Y747D01*
X4620Y647D02*
Y747D01*
X5380Y383D02*
Y482D01*
X5580Y383D02*
Y482D01*
X5380Y383D02*
X5580D01*
X5380Y757D02*
X5580D01*
X5380Y657D02*
Y757D01*
X5580Y657D02*
Y757D01*
X6810Y2142D02*
Y2242D01*
X7010Y2142D02*
Y2242D01*
X6810Y2142D02*
X7010D01*
X6810Y2517D02*
X7010D01*
X6810Y2417D02*
Y2517D01*
X7010Y2417D02*
Y2517D01*
X2915Y5715D02*
X3008D01*
Y5565D02*
Y5715D01*
X2915Y5565D02*
X3008D01*
X2673Y5715D02*
X2765D01*
X2673Y5565D02*
Y5715D01*
Y5565D02*
X2765D01*
X2915Y5865D02*
X3008D01*
Y5715D02*
Y5865D01*
X2915Y5715D02*
X3008D01*
X2673Y5865D02*
X2765D01*
X2673Y5715D02*
Y5865D01*
Y5715D02*
X2765D01*
X3245Y6035D02*
X3338D01*
Y5885D02*
Y6035D01*
X3245Y5885D02*
X3338D01*
X3002Y6035D02*
X3095D01*
X3002Y5885D02*
Y6035D01*
Y5885D02*
X3095D01*
X3245Y6225D02*
X3338D01*
Y6075D02*
Y6225D01*
X3245Y6075D02*
X3338D01*
X3002Y6225D02*
X3095D01*
X3002Y6075D02*
Y6225D01*
Y6075D02*
X3095D01*
X82Y6135D02*
X175D01*
X82D02*
Y6285D01*
X175D01*
X325Y6135D02*
X418D01*
Y6285D01*
X325D02*
X418D01*
X82Y5945D02*
X175D01*
X82D02*
Y6095D01*
X175D01*
X325Y5945D02*
X418D01*
Y6095D01*
X325D02*
X418D01*
X82Y5755D02*
X175D01*
X82D02*
Y5905D01*
X175D01*
X325Y5755D02*
X418D01*
Y5905D01*
X325D02*
X418D01*
X82Y5565D02*
X175D01*
X82D02*
Y5715D01*
X175D01*
X325Y5565D02*
X418D01*
Y5715D01*
X325D02*
X418D01*
X7321Y5467D02*
X7392Y5397D01*
X7463Y5609D02*
X7533Y5538D01*
X7392Y5397D02*
X7533Y5538D01*
X7127Y5662D02*
X7268Y5803D01*
X7127Y5662D02*
X7197Y5591D01*
X7268Y5803D02*
X7339Y5733D01*
X7000Y5763D02*
Y5863D01*
X6800Y5763D02*
Y5863D01*
X7000D01*
X6800Y5488D02*
X7000D01*
Y5588D01*
X6800Y5488D02*
Y5588D01*
X6800Y5763D02*
Y5863D01*
X6600Y5763D02*
Y5863D01*
X6800D01*
X6600Y5488D02*
X6800D01*
Y5588D01*
X6600Y5488D02*
Y5588D01*
X6003Y6110D02*
X6103D01*
X6003Y5910D02*
X6103D01*
X6003D02*
Y6110D01*
X6378Y5910D02*
Y6110D01*
X6278D02*
X6378D01*
X6278Y5910D02*
X6378D01*
X4672Y5410D02*
X4772D01*
X4672Y5210D02*
X4772D01*
X4672D02*
Y5410D01*
X5047Y5210D02*
Y5410D01*
X4947D02*
X5047D01*
X4947Y5210D02*
X5047D01*
X5410Y3698D02*
Y3798D01*
X5610Y3698D02*
Y3798D01*
X5410Y3698D02*
X5610D01*
X5410Y4073D02*
X5610D01*
X5410Y3973D02*
Y4073D01*
X5610Y3973D02*
Y4073D01*
X4672Y5080D02*
X4772D01*
X4672Y4880D02*
X4772D01*
X4672D02*
Y5080D01*
X5047Y4880D02*
Y5080D01*
X4947D02*
X5047D01*
X4947Y4880D02*
X5047D01*
X5630Y3633D02*
Y3733D01*
X5830Y3633D02*
Y3733D01*
X5630Y3633D02*
X5830D01*
X5630Y4008D02*
X5830D01*
X5630Y3908D02*
Y4008D01*
X5830Y3908D02*
Y4008D01*
X4672Y5750D02*
X4772D01*
X4672Y5550D02*
X4772D01*
X4672D02*
Y5750D01*
X5047Y5550D02*
Y5750D01*
X4947D02*
X5047D01*
X4947Y5550D02*
X5047D01*
X5850Y3553D02*
Y3653D01*
X6050Y3553D02*
Y3653D01*
X5850Y3553D02*
X6050D01*
X5850Y3928D02*
X6050D01*
X5850Y3828D02*
Y3928D01*
X6050Y3828D02*
Y3928D01*
X4412Y4820D02*
X4512D01*
X4412Y4620D02*
X4512D01*
X4412D02*
Y4820D01*
X4788Y4620D02*
Y4820D01*
X4688D02*
X4788D01*
X4688Y4620D02*
X4788D01*
X5940Y5813D02*
Y5913D01*
X5740Y5813D02*
Y5913D01*
X5940D01*
X5740Y5538D02*
X5940D01*
Y5638D01*
X5740Y5538D02*
Y5638D01*
X5730Y5813D02*
Y5913D01*
X5530Y5813D02*
Y5913D01*
X5730D01*
X5530Y5538D02*
X5730D01*
Y5638D01*
X5530Y5538D02*
Y5638D01*
X5410Y6155D02*
X5503D01*
Y6005D02*
Y6155D01*
X5410Y6005D02*
X5503D01*
X5167Y6155D02*
X5260D01*
X5167Y6005D02*
Y6155D01*
Y6005D02*
X5260D01*
X5067Y5855D02*
X5160D01*
X5067D02*
Y6005D01*
X5160D01*
X5310Y5855D02*
X5403D01*
Y6005D01*
X5310D02*
X5403D01*
X5310Y5855D02*
X5403D01*
Y5705D02*
Y5855D01*
X5310Y5705D02*
X5403D01*
X5067Y5855D02*
X5160D01*
X5067Y5705D02*
Y5855D01*
Y5705D02*
X5160D01*
X588Y6862D02*
Y6995D01*
X353D02*
X588D01*
X353Y6862D02*
Y6995D01*
X588Y6505D02*
Y6638D01*
X353Y6505D02*
X588D01*
X353D02*
Y6638D01*
X7412Y4850D02*
X7512D01*
X7412Y5050D02*
X7512D01*
Y4850D02*
Y5050D01*
X7138Y4850D02*
Y5050D01*
Y4850D02*
X7238D01*
X7138Y5050D02*
X7238D01*
X6750Y1148D02*
Y1248D01*
X6550Y1148D02*
Y1248D01*
X6750D01*
X6550Y873D02*
X6750D01*
Y973D01*
X6550Y873D02*
Y973D01*
X6550Y1298D02*
Y1398D01*
X6750Y1298D02*
Y1398D01*
X6550Y1298D02*
X6750D01*
X6550Y1673D02*
X6750D01*
X6550Y1573D02*
Y1673D01*
X6750Y1573D02*
Y1673D01*
X3362Y3060D02*
X3462D01*
X3362Y2860D02*
X3462D01*
X3362D02*
Y3060D01*
X3738Y2860D02*
Y3060D01*
X3638D02*
X3738D01*
X3638Y2860D02*
X3738D01*
X5650Y7368D02*
Y7468D01*
X5450Y7368D02*
Y7468D01*
X5650D01*
X5450Y7093D02*
X5650D01*
Y7193D01*
X5450Y7093D02*
Y7193D01*
X4200Y7378D02*
Y7478D01*
X4000Y7378D02*
Y7478D01*
X4200D01*
X4000Y7103D02*
X4200D01*
Y7203D01*
X4000Y7103D02*
Y7203D01*
X4090Y5933D02*
Y6033D01*
X4290Y5933D02*
Y6033D01*
X4090Y5933D02*
X4290D01*
X4090Y6308D02*
X4290D01*
X4090Y6208D02*
Y6308D01*
X4290Y6208D02*
Y6308D01*
X4050Y6067D02*
Y6167D01*
X3850Y6067D02*
Y6167D01*
X4050D01*
X3850Y5792D02*
X4050D01*
Y5892D01*
X3850Y5792D02*
Y5892D01*
X3845Y4528D02*
Y4620D01*
X3695Y4528D02*
X3845D01*
X3695D02*
Y4620D01*
X3845Y4770D02*
Y4863D01*
X3695D02*
X3845D01*
X3695Y4770D02*
Y4863D01*
X4475Y5505D02*
X4567D01*
Y5355D02*
Y5505D01*
X4475Y5355D02*
X4567D01*
X4233Y5505D02*
X4325D01*
X4233Y5355D02*
Y5505D01*
Y5355D02*
X4325D01*
X2845Y1683D02*
Y1775D01*
X2695Y1683D02*
X2845D01*
X2695D02*
Y1775D01*
X2845Y1925D02*
Y2017D01*
X2695D02*
X2845D01*
X2695Y1925D02*
Y2017D01*
X2685Y1683D02*
Y1775D01*
X2535Y1683D02*
X2685D01*
X2535D02*
Y1775D01*
X2685Y1925D02*
Y2017D01*
X2535D02*
X2685D01*
X2535Y1925D02*
Y2017D01*
X4025Y7512D02*
X4175D01*
X4025D02*
Y7597D01*
X4175Y7512D02*
Y7597D01*
X4025Y7722D02*
Y7807D01*
X4175Y7722D02*
Y7807D01*
X4025D02*
X4175D01*
X4004Y7531D02*
Y7548D01*
X5475Y7512D02*
X5625D01*
X5475D02*
Y7597D01*
X5625Y7512D02*
Y7597D01*
X5475Y7722D02*
Y7807D01*
X5625Y7722D02*
Y7807D01*
X5475D02*
X5625D01*
X5454Y7531D02*
Y7548D01*
X3800Y2872D02*
Y2972D01*
X4000Y2872D02*
Y2972D01*
X3800Y2872D02*
X4000D01*
X3800Y3247D02*
X4000D01*
X3800Y3147D02*
Y3247D01*
X4000Y3147D02*
Y3247D01*
X5325Y6665D02*
Y6757D01*
X5475D01*
Y6665D02*
Y6757D01*
X5325Y6422D02*
Y6515D01*
Y6422D02*
X5475D01*
Y6515D01*
X4972Y6435D02*
X5065D01*
X4972D02*
Y6585D01*
X5065D01*
X5215Y6435D02*
X5308D01*
Y6585D01*
X5215D02*
X5308D01*
X4435Y4258D02*
Y4350D01*
X4285Y4258D02*
X4435D01*
X4285D02*
Y4350D01*
X4435Y4500D02*
Y4592D01*
X4285D02*
X4435D01*
X4285Y4500D02*
Y4592D01*
X3855Y4405D02*
Y4497D01*
X4005D01*
Y4405D02*
Y4497D01*
X3855Y4162D02*
Y4255D01*
Y4162D02*
X4005D01*
Y4255D01*
X2602Y2767D02*
Y2860D01*
X2452Y2767D02*
X2602D01*
X2452D02*
Y2860D01*
X2602Y3010D02*
Y3102D01*
X2452D02*
X2602D01*
X2452Y3010D02*
Y3102D01*
X5202Y7020D02*
X5302D01*
X5202Y6820D02*
X5302D01*
X5202D02*
Y7020D01*
X5577Y6820D02*
Y7020D01*
X5477D02*
X5577D01*
X5477Y6820D02*
X5577D01*
X5208Y6610D02*
X5308D01*
X5208Y6810D02*
X5308D01*
Y6610D02*
Y6810D01*
X4933Y6610D02*
Y6810D01*
Y6610D02*
X5033D01*
X4933Y6810D02*
X5033D01*
X7243Y3315D02*
X7343D01*
X7243Y3515D02*
X7343D01*
Y3315D02*
Y3515D01*
X6968Y3315D02*
Y3515D01*
Y3315D02*
X7068D01*
X6968Y3515D02*
X7068D01*
X3920Y6302D02*
Y6402D01*
X4120Y6302D02*
Y6402D01*
X3920Y6302D02*
X4120D01*
X3920Y6677D02*
X4120D01*
X3920Y6577D02*
Y6677D01*
X4120Y6577D02*
Y6677D01*
X4820Y2202D02*
Y2302D01*
X5020Y2202D02*
Y2302D01*
X4820Y2202D02*
X5020D01*
X4820Y2577D02*
X5020D01*
X4820Y2477D02*
Y2577D01*
X5020Y2477D02*
Y2577D01*
X3622Y3460D02*
X3722D01*
X3622Y3260D02*
X3722D01*
X3622D02*
Y3460D01*
X3997Y3260D02*
Y3460D01*
X3897D02*
X3997D01*
X3897Y3260D02*
X3997D01*
X3622Y3660D02*
X3722D01*
X3622Y3460D02*
X3722D01*
X3622D02*
Y3660D01*
X3997Y3460D02*
Y3660D01*
X3897D02*
X3997D01*
X3897Y3460D02*
X3997D01*
X4113Y3720D02*
X4213D01*
X4113Y3920D02*
X4213D01*
Y3720D02*
Y3920D01*
X3838Y3720D02*
Y3920D01*
Y3720D02*
X3938D01*
X3838Y3920D02*
X3938D01*
X2722Y5470D02*
X2822D01*
X2722Y5270D02*
X2822D01*
X2722D02*
Y5470D01*
X3097Y5270D02*
Y5470D01*
X2997D02*
X3097D01*
X2997Y5270D02*
X3097D01*
X3303Y5490D02*
X3403D01*
X3303Y5690D02*
X3403D01*
Y5490D02*
Y5690D01*
X3028Y5490D02*
Y5690D01*
Y5490D02*
X3128D01*
X3028Y5690D02*
X3128D01*
X4227Y3343D02*
Y3443D01*
X4027Y3343D02*
Y3443D01*
X4227D01*
X4027Y3068D02*
X4227D01*
Y3168D01*
X4027Y3068D02*
Y3168D01*
X3022Y2260D02*
X3122D01*
X3022Y2060D02*
X3122D01*
X3022D02*
Y2260D01*
X3397Y2060D02*
Y2260D01*
X3297D02*
X3397D01*
X3297Y2060D02*
X3397D01*
X3432Y2260D02*
X3532D01*
X3432Y2060D02*
X3532D01*
X3432D02*
Y2260D01*
X3807Y2060D02*
Y2260D01*
X3707D02*
X3807D01*
X3707Y2060D02*
X3807D01*
X6968Y3830D02*
X7068D01*
X6968Y4030D02*
X7068D01*
Y3830D02*
Y4030D01*
X6693Y3830D02*
Y4030D01*
Y3830D02*
X6793D01*
X6693Y4030D02*
X6793D01*
X6968Y4030D02*
X7068D01*
X6968Y4230D02*
X7068D01*
Y4030D02*
Y4230D01*
X6693Y4030D02*
Y4230D01*
Y4030D02*
X6793D01*
X6693Y4230D02*
X6793D01*
X5587Y5480D02*
X5687D01*
X5587Y5280D02*
X5687D01*
X5587D02*
Y5480D01*
X5962Y5280D02*
Y5480D01*
X5862D02*
X5962D01*
X5862Y5280D02*
X5962D01*
X5462Y4690D02*
X5562D01*
X5462Y4490D02*
X5562D01*
X5462D02*
Y4690D01*
X5837Y4490D02*
Y4690D01*
X5737D02*
X5837D01*
X5737Y4490D02*
X5837D01*
X1948Y2320D02*
X2048D01*
X1948Y2520D02*
X2048D01*
Y2320D02*
Y2520D01*
X1673Y2320D02*
Y2520D01*
Y2320D02*
X1773D01*
X1673Y2520D02*
X1773D01*
X4932Y4700D02*
X5032D01*
X4932Y4500D02*
X5032D01*
X4932D02*
Y4700D01*
X5307Y4500D02*
Y4700D01*
X5207D02*
X5307D01*
X5207Y4500D02*
X5307D01*
X5572Y4270D02*
X5672D01*
X5572Y4070D02*
X5672D01*
X5572D02*
Y4270D01*
X5947Y4070D02*
Y4270D01*
X5847D02*
X5947D01*
X5847Y4070D02*
X5947D01*
X5580Y5443D02*
Y5543D01*
X5380Y5443D02*
Y5543D01*
X5580D01*
X5380Y5168D02*
X5580D01*
Y5268D01*
X5380Y5168D02*
Y5268D01*
X6718Y5860D02*
X6818D01*
X6718Y6060D02*
X6818D01*
Y5860D02*
Y6060D01*
X6443Y5860D02*
Y6060D01*
Y5860D02*
X6543D01*
X6443Y6060D02*
X6543D01*
X7418Y5200D02*
X7518D01*
X7418Y5400D02*
X7518D01*
Y5200D02*
Y5400D01*
X7143Y5200D02*
Y5400D01*
Y5200D02*
X7243D01*
X7143Y5400D02*
X7243D01*
X5542Y6120D02*
X5642D01*
X5542Y5920D02*
X5642D01*
X5542D02*
Y6120D01*
X5917Y5920D02*
Y6120D01*
X5817D02*
X5917D01*
X5817Y5920D02*
X5917D01*
X7098Y5860D02*
X7198D01*
X7098Y6060D02*
X7198D01*
Y5860D02*
Y6060D01*
X6823Y5860D02*
Y6060D01*
Y5860D02*
X6923D01*
X6823Y6060D02*
X6923D01*
X5947Y5920D02*
X6047D01*
X5947Y5720D02*
X6047D01*
X5947D02*
Y5920D01*
X6322Y5720D02*
Y5920D01*
X6222D02*
X6322D01*
X6222Y5720D02*
X6322D01*
X1335Y4405D02*
Y4497D01*
X1485D01*
Y4405D02*
Y4497D01*
X1335Y4162D02*
Y4255D01*
Y4162D02*
X1485D01*
Y4255D01*
X7140Y5400D02*
X7020D01*
Y5460D01*
X7040Y5480D01*
X7080D01*
X7100Y5460D01*
Y5400D01*
Y5440D02*
X7140Y5480D01*
X7020Y5600D02*
X7040Y5560D01*
X7080Y5520D01*
X7120D01*
X7140Y5540D01*
Y5580D01*
X7120Y5600D01*
X7100D01*
X7080Y5580D01*
Y5520D01*
X7040Y5640D02*
X7020Y5660D01*
Y5700D01*
X7040Y5720D01*
X7060D01*
X7080Y5700D01*
Y5680D01*
Y5700D01*
X7100Y5720D01*
X7120D01*
X7140Y5700D01*
Y5660D01*
X7120Y5640D01*
D97*
X125Y6862D02*
Y6993D01*
X353D01*
Y6862D02*
Y6993D01*
X125Y6505D02*
Y6635D01*
Y6505D02*
X353D01*
Y6635D01*
D98*
X5230Y860D02*
Y2120D01*
X6500Y860D02*
Y2120D01*
X6240Y860D02*
X6500D01*
X6240Y2120D02*
X6500D01*
X5230Y860D02*
X5480D01*
X5230Y2120D02*
X5480D01*
M02*
