G04 Layer_Color=16711935*
%FSLAX42Y42*%
%MOMM*%
G71*
G01*
G75*
%ADD68C,1.00*%
%ADD104R,1.70X1.50*%
%ADD105R,1.30X1.20*%
%ADD106R,1.50X1.70*%
G04:AMPARAMS|DCode=107|XSize=1.7mm|YSize=1.5mm|CornerRadius=0mm|HoleSize=0mm|Usage=FLASHONLY|Rotation=45.000|XOffset=0mm|YOffset=0mm|HoleType=Round|Shape=Rectangle|*
%AMROTATEDRECTD107*
4,1,4,-0.07,-1.13,-1.13,-0.07,0.07,1.13,1.13,0.07,-0.07,-1.13,0.0*
%
%ADD107ROTATEDRECTD107*%

%ADD109R,1.20X1.30*%
%ADD110R,0.85X1.73*%
%ADD113R,1.19X1.50*%
%ADD114R,0.79X1.50*%
%ADD117R,1.40X2.20*%
%ADD118R,2.20X1.40*%
%ADD122R,2.40X3.35*%
%ADD139C,1.50*%
%ADD140C,1.70*%
%ADD141R,1.70X1.70*%
%ADD142C,1.89*%
%ADD143R,1.89X1.89*%
%ADD144C,4.96*%
%ADD145C,1.20*%
%ADD146C,1.90*%
%ADD147C,4.20*%
%ADD148C,3.45*%
%ADD149C,2.64*%
%ADD150C,1.73*%
%ADD151C,1.63*%
%ADD152R,1.63X1.63*%
%ADD153C,2.40*%
%ADD154C,1.30*%
%ADD155R,1.70X1.70*%
%ADD156C,0.60*%
%ADD157C,0.70*%
%ADD158R,1.28X1.32*%
%ADD159R,5.28X2.99*%
%ADD160C,17.98*%
%ADD161R,2.10X3.60*%
G04:AMPARAMS|DCode=162|XSize=1.2mm|YSize=1.3mm|CornerRadius=0mm|HoleSize=0mm|Usage=FLASHONLY|Rotation=315.000|XOffset=0mm|YOffset=0mm|HoleType=Round|Shape=Rectangle|*
%AMROTATEDRECTD162*
4,1,4,-0.89,-0.04,0.04,0.89,0.89,0.04,-0.04,-0.89,-0.89,-0.04,0.0*
%
%ADD162ROTATEDRECTD162*%

%ADD163R,1.73X0.81*%
%ADD164R,1.20X0.80*%
%ADD165R,0.76X2.18*%
%ADD166R,2.35X3.60*%
%ADD167R,0.85X1.90*%
D68*
X7730Y4520D02*
D03*
D104*
X2600Y6045D02*
D03*
Y6235D02*
D03*
X6610Y7175D02*
D03*
Y7365D02*
D03*
X6850Y7175D02*
D03*
Y7365D02*
D03*
X1810Y6245D02*
D03*
Y6055D02*
D03*
D105*
X3015Y3470D02*
D03*
X3185D02*
D03*
X7475Y6190D02*
D03*
X7645D02*
D03*
X765Y3320D02*
D03*
X595D02*
D03*
X5035Y6730D02*
D03*
X4865D02*
D03*
X4665Y1120D02*
D03*
X4495D02*
D03*
X4325D02*
D03*
X4155D02*
D03*
X3885Y2360D02*
D03*
X4055D02*
D03*
X375Y4570D02*
D03*
X545D02*
D03*
X235Y3020D02*
D03*
X405D02*
D03*
X215Y4350D02*
D03*
X385D02*
D03*
X215Y3820D02*
D03*
X385D02*
D03*
X235Y2870D02*
D03*
X405D02*
D03*
X205Y3440D02*
D03*
X375D02*
D03*
D106*
X2915Y6570D02*
D03*
X2725D02*
D03*
X2075Y4920D02*
D03*
X1885D02*
D03*
D107*
X1763Y4407D02*
D03*
X1897Y4273D02*
D03*
D109*
X3570Y4210D02*
D03*
Y4040D02*
D03*
X830Y2095D02*
D03*
Y2265D02*
D03*
X160Y1595D02*
D03*
Y1425D02*
D03*
X3920Y515D02*
D03*
Y685D02*
D03*
X3860Y1915D02*
D03*
Y1745D02*
D03*
X4010Y1285D02*
D03*
Y1115D02*
D03*
X990Y2135D02*
D03*
Y2305D02*
D03*
X1840Y3230D02*
D03*
Y3400D02*
D03*
X2690Y3565D02*
D03*
Y3735D02*
D03*
X2720Y3395D02*
D03*
Y3225D02*
D03*
D110*
X4219Y2221D02*
D03*
X4347D02*
D03*
X4474D02*
D03*
X4601D02*
D03*
Y1679D02*
D03*
X4474D02*
D03*
X4347D02*
D03*
X4219D02*
D03*
D113*
X2074Y7662D02*
D03*
D114*
X2246D02*
D03*
Y7457D02*
D03*
X2054D02*
D03*
D117*
X3580Y2000D02*
D03*
Y1720D02*
D03*
Y2570D02*
D03*
Y2290D02*
D03*
D118*
X3870Y1460D02*
D03*
X3590D02*
D03*
X2480Y2700D02*
D03*
X2200D02*
D03*
X2570Y2500D02*
D03*
X2850D02*
D03*
D122*
X7660Y4858D02*
D03*
X8360D02*
D03*
X7660Y5538D02*
D03*
X8360D02*
D03*
D139*
X8280Y6670D02*
D03*
X7880D02*
D03*
X380Y2600D02*
D03*
X580D02*
D03*
X380Y2400D02*
D03*
X580D02*
D03*
X380Y2200D02*
D03*
X580D02*
D03*
X380Y2000D02*
D03*
X580D02*
D03*
X380Y1800D02*
D03*
X580D02*
D03*
X380Y1600D02*
D03*
X580D02*
D03*
X380Y1400D02*
D03*
X580D02*
D03*
X380Y1200D02*
D03*
X580D02*
D03*
D140*
X4180Y383D02*
D03*
X780Y4856D02*
D03*
Y5110D02*
D03*
Y5364D02*
D03*
X2830Y6347D02*
D03*
X263Y4826D02*
D03*
X517Y5080D02*
D03*
X263D02*
D03*
X517Y5334D02*
D03*
X263D02*
D03*
X1801Y1683D02*
D03*
X1547Y1937D02*
D03*
Y1683D02*
D03*
X1293Y1937D02*
D03*
Y1683D02*
D03*
X1039Y1937D02*
D03*
Y1683D02*
D03*
D141*
X4180Y637D02*
D03*
X780Y4602D02*
D03*
X2830Y6093D02*
D03*
X517Y4826D02*
D03*
D142*
X2924Y6888D02*
D03*
X2785Y7172D02*
D03*
X2647Y6888D02*
D03*
X2508Y7172D02*
D03*
X2369Y6888D02*
D03*
X2231Y7172D02*
D03*
X2092Y6888D02*
D03*
X1954Y7172D02*
D03*
X1816Y1112D02*
D03*
X1954Y828D02*
D03*
X2092Y1112D02*
D03*
X2231Y828D02*
D03*
X2369Y1112D02*
D03*
X2508Y828D02*
D03*
X2647Y1112D02*
D03*
X2785Y828D02*
D03*
D143*
X1816Y6888D02*
D03*
X2924Y1112D02*
D03*
D144*
X1120Y7030D02*
D03*
X3619D02*
D03*
Y970D02*
D03*
X1120D02*
D03*
D145*
X4610Y7500D02*
D03*
X5050D02*
D03*
D146*
X8335Y4340D02*
D03*
Y6090D02*
D03*
D147*
X8150Y7400D02*
D03*
X450Y600D02*
D03*
Y7400D02*
D03*
X8150Y600D02*
D03*
D148*
X7280Y7230D02*
D03*
X6137D02*
D03*
D149*
X7496Y6925D02*
D03*
X5921D02*
D03*
D150*
X6073Y7568D02*
D03*
X6327Y7720D02*
D03*
X7087Y7568D02*
D03*
X7341Y7720D02*
D03*
D151*
X6264Y6341D02*
D03*
X6391Y6595D02*
D03*
X6518Y6341D02*
D03*
X6645Y6595D02*
D03*
X6772Y6341D02*
D03*
X6899Y6595D02*
D03*
X7026Y6341D02*
D03*
D152*
X7153Y6595D02*
D03*
D153*
X8010Y3970D02*
D03*
Y3470D02*
D03*
D154*
X4654Y230D02*
D03*
X4400D02*
D03*
X5204D02*
D03*
X4950D02*
D03*
X5754D02*
D03*
X5500D02*
D03*
X6584D02*
D03*
X6330D02*
D03*
D155*
X1801Y1937D02*
D03*
D156*
X1120Y3600D02*
D03*
X990Y3490D02*
D03*
X5390Y7510D02*
D03*
X4270Y7500D02*
D03*
X5020Y6890D02*
D03*
X440Y4110D02*
D03*
X590Y4230D02*
D03*
X210Y4620D02*
D03*
X1240Y4270D02*
D03*
X345Y3960D02*
D03*
X610Y3500D02*
D03*
X480Y3170D02*
D03*
X340Y3280D02*
D03*
X940Y4180D02*
D03*
X1310Y4580D02*
D03*
X1410Y3210D02*
D03*
X1520Y3350D02*
D03*
X4260Y6560D02*
D03*
X250Y3630D02*
D03*
X4690Y6730D02*
D03*
X4530Y6760D02*
D03*
X2350Y2390D02*
D03*
X3740Y1610D02*
D03*
X3040Y2970D02*
D03*
X2890Y2950D02*
D03*
X2740Y2910D02*
D03*
X3030Y3120D02*
D03*
X3380Y3560D02*
D03*
X3750Y6120D02*
D03*
X4820Y7730D02*
D03*
X1810Y3030D02*
D03*
X880Y2620D02*
D03*
X2020Y3300D02*
D03*
X2670Y4740D02*
D03*
X3770Y4050D02*
D03*
X2330Y5280D02*
D03*
X6020Y5250D02*
D03*
X4860Y5480D02*
D03*
X4950Y5150D02*
D03*
X3480Y4920D02*
D03*
X3330Y4910D02*
D03*
X3320Y4770D02*
D03*
X6620Y3790D02*
D03*
X6040Y5650D02*
D03*
X6530Y5790D02*
D03*
X7320Y4520D02*
D03*
X7070Y5780D02*
D03*
X7090Y4350D02*
D03*
X2210Y5170D02*
D03*
X2100Y5260D02*
D03*
X3640Y4730D02*
D03*
X4060Y6900D02*
D03*
X4610Y5790D02*
D03*
X3600Y6450D02*
D03*
X4070Y2980D02*
D03*
X3410Y5910D02*
D03*
X2340Y2940D02*
D03*
X2470Y5390D02*
D03*
X3750Y5700D02*
D03*
X4170Y5540D02*
D03*
X910Y5230D02*
D03*
X1120Y5270D02*
D03*
X4640Y1500D02*
D03*
X3950Y950D02*
D03*
X1250Y6050D02*
D03*
X4180Y2810D02*
D03*
X1010Y4980D02*
D03*
X1470Y4970D02*
D03*
X1250Y5180D02*
D03*
X1570Y4860D02*
D03*
X2940Y2000D02*
D03*
X410Y3655D02*
D03*
X2200Y1530D02*
D03*
X3560Y3350D02*
D03*
X2560Y4410D02*
D03*
X3710Y4250D02*
D03*
X3060Y4260D02*
D03*
X3180Y4160D02*
D03*
X4190Y4950D02*
D03*
X2880Y3920D02*
D03*
X2900Y4410D02*
D03*
X5690Y3490D02*
D03*
X7200Y4740D02*
D03*
X6480Y3880D02*
D03*
X6190Y3910D02*
D03*
X5620Y6720D02*
D03*
X2380Y3940D02*
D03*
X2400Y3760D02*
D03*
X2830Y3720D02*
D03*
D157*
X1115Y2635D02*
D03*
X1830Y6670D02*
D03*
X5880Y3090D02*
D03*
X5850Y3400D02*
D03*
X5700Y2380D02*
D03*
X5390Y4590D02*
D03*
X5900Y4360D02*
D03*
X1580Y6250D02*
D03*
X4970Y3840D02*
D03*
X7030Y5340D02*
D03*
X3940Y2110D02*
D03*
X5440Y5650D02*
D03*
X4490Y5260D02*
D03*
X3670Y5200D02*
D03*
X4150Y4390D02*
D03*
X4740Y6190D02*
D03*
X5390Y4400D02*
D03*
X3720Y3730D02*
D03*
X4490Y3810D02*
D03*
X6900Y4390D02*
D03*
X4130Y3550D02*
D03*
X4150Y5760D02*
D03*
X2650Y5260D02*
D03*
X1990Y2610D02*
D03*
X1412Y4040D02*
D03*
X4570Y5650D02*
D03*
X730Y3020D02*
D03*
X2010Y4110D02*
D03*
X5810Y1470D02*
D03*
X5070Y2720D02*
D03*
X6870Y2940D02*
D03*
X4960Y930D02*
D03*
X4430Y2680D02*
D03*
X810Y6680D02*
D03*
X4480Y2920D02*
D03*
X6010Y3260D02*
D03*
D158*
X5230Y7430D02*
D03*
Y7106D02*
D03*
D159*
X7640Y3047D02*
D03*
Y850D02*
D03*
D160*
Y1949D02*
D03*
D161*
X4765Y7080D02*
D03*
X4375D02*
D03*
D162*
X1450Y2390D02*
D03*
X1330Y2270D02*
D03*
D163*
X3146Y2309D02*
D03*
X2600D02*
D03*
X3146Y2182D02*
D03*
Y2055D02*
D03*
X2600Y2182D02*
D03*
Y2055D02*
D03*
X3146Y1928D02*
D03*
X2600D02*
D03*
X3146Y1801D02*
D03*
X2600D02*
D03*
X3146Y1674D02*
D03*
Y1547D02*
D03*
X2600Y1674D02*
D03*
Y1547D02*
D03*
X3146Y1420D02*
D03*
X2600D02*
D03*
D164*
X6790Y6140D02*
D03*
Y5950D02*
D03*
X7050Y6140D02*
D03*
Y6045D02*
D03*
Y5950D02*
D03*
D165*
X2417Y6540D02*
D03*
X2290D02*
D03*
X2163D02*
D03*
X2036D02*
D03*
Y6068D02*
D03*
X2163D02*
D03*
X2290D02*
D03*
X2417D02*
D03*
D166*
X6212Y680D02*
D03*
X6768D02*
D03*
D167*
X3056Y4460D02*
D03*
X3183D02*
D03*
X3310D02*
D03*
X3437D02*
D03*
Y3740D02*
D03*
X3310D02*
D03*
X3183D02*
D03*
X3056D02*
D03*
M02*
